<svg preserveAspectRatio="none" xmlns="http://www.w3.org/2000/svg" width="1292" height="1490" viewBox="0 0 1292 1490">
  <path fill="#fcfbfb" d="M0 0c426.36 0 852.72 0 1292 0 0 491.7 0 983.4 0 1490-426.36 0-852.72 0-1292 0C0 998.3 0 506.6 0 0"/>
  <path fill="#0b0b0b" d="M657.46 59.568q2.355-.009 4.71-.025c34.472-.17 68.353 6.327 98.534 23.51 10.324 5.984 19.361 13.343 27.919 21.62a261 261 0 0 0 3.959 3.718c22.84 21.474 37.002 53.006 45.933 82.458 3.035 10.252 5.369 20.676 7.485 31.151a313 313 0 0 1 2.834 15.92q.26 1.676.528 3.35c1.897 11.963 3.123 23.988 4.166 36.052q.14 1.605.286 3.21c2.039 22.663 2.28 45.429 2.213 68.167 0 .447-.002.893-.003 1.353q-.037 12.425-.111 24.848-.043 6.94-.06 13.88-.007 3.249-.034 6.496c-.139 16.02.582 32.233 4.431 47.849.053.224.053.224.323 1.36 10.972 46.07 38.1 85.637 68.274 122.846 2.416 2.982 4.781 6.003 7.144 9.027 3.418 4.375 6.86 8.726 10.384 13.017.358.436.716.872 1.084 1.322q2.471 3.01 4.953 6.01c8.23 9.956 16.103 20.137 23.788 30.518q2.704 3.653 5.438 7.282c30.664 40.72 57.555 85.41 99.038 212.28.223 1.556.47 3.106.73 4.656 4.804 28.805 5.089 60.834-.406 89.557-.092.488-.184.977-.279 1.48-1.995 10.545-4.134 21.051-7.924 31.118-.994 2.728-1.401 5.534-1.797 8.402q.45.057.914.115c3.581.569 6.193 1.852 9.211 3.823.47.306.942.612 1.427.928 9.547 6.418 17.157 13.878 22.448 24.134.288.559.577 1.117.874 1.693 6.858 13.683 10.25 28.417 13.784 43.228 8.87 37.138 8.87 37.138 22.172 51.668 14.037 15.396 28.19 34.558 33.17 55.099 1.576 7.632 2.479 16.013.086 23.546-3.01 8.14-7.743 16.225-14.271 22.03-.995.899-1.96 1.828-2.928 2.756-8.532 8.058-17.903 14.308-28.49 19.345a568 568 0 0 0-9.64 4.754 2269 2269 0 0 1-17.7 8.792c-46.726 22.98-46.726 22.98-63.057 36.089-.46.366-.918.732-1.391 1.108A525 525 0 0 0 1028 1289c-.361.302-.723.604-1.095.916-4.655 3.899-8.924 7.934-12.905 12.522-23.718 27.313-23.718 27.313-35.999 35.834-1.572 1.143-3.054 2.39-4.552 3.627-5.525 4.548-11.311 8.431-17.449 12.101-.531.32-1.062.64-1.61.969-8.313 4.972-16.816 9.335-25.67 13.266a184 184 0 0 0-3.372 1.54c-4.912 2.24-9.916 3.563-15.16 4.788-.229.053-.229.053-1.383.326-18.432 4.306-37.749 6.057-56.438 2.371a74 74 0 0 0-3.676-.592c-6.577-1.024-12.304-4.208-18.112-7.305a152 152 0 0 0-5.466-2.77c-14.012-6.92-25.85-18.911-34.587-31.711A303 303 0 0 1 788 1331c-.296-.456-.593-.912-.898-1.382-4.928-7.67-8.774-15.775-11.102-24.618 0-.66 0-1.32 0-2-.344.009-.688.018-1.042.027-17.856.437-35.388.08-53.145-1.964-.4-.046-.799-.092-1.21-.14-6.462-.744-12.919-1.528-19.356-2.464-2.257-.326-4.5-.611-6.774-.775-.564-.042-1.128-.084-1.71-.127-.28-.02-.28-.02-1.7-.12-.589-.043-1.177-.086-1.784-.13q-2.139-.157-4.279-.307c-.33-.33-.66-.66-1-1-14.196-1.835-28.236-3.31-42.562-3.25-.275 0-.275 0-1.665.003-5.638.023-11.244.214-16.863.7-.452.038-.903.077-1.369.116-2.334.225-4.313.674-6.541 1.431a62 62 0 0 1-3.687.281c-.344.019-.688.037-1.042.056-1.458.078-2.916.146-4.374.215q-1.605.08-3.21.167c-.635.03-1.27.06-1.925.092-1.73.186-3.13.607-4.762 1.189-1.103.19-1.103.19-2.121.281-.378.038-.757.075-1.147.114-.386.034-.772.07-1.17.105q-1.155.105-2.308.219c-.337.03-.674.06-1.021.092-1.41.216-2.768.58-4.149.934-1.816.427-3.652.68-5.498.939q-1.272.184-2.544.37c-.218.03-.218.03-1.322.19-12.345 1.78-12.345 1.78-17.845 2.881-.191.038-.191.038-1.159.228-1.317.276-2.516.542-3.712 1.17-1.566.744-3.236.808-4.941.977-3.694.37-3.694.37-5.437.984-1.861.59-3.686.843-5.618 1.051-.383.043-.766.086-1.16.13q-1.86.205-3.723.398c-.421.044-.843.09-1.277.135-7.303.768-14.502 1.063-21.848.802q.684-2.564 1.375-5.125c.126-.474.253-.949.383-1.437.678-2.51 1.415-4.972 2.273-7.426 4.505-13.363 4.723-30.749 1.992-44.524-3.088-14.254-10.05-27.96-17.71-40.273-1.043-1.69-1.805-3.28-2.313-5.215 2.483 1.14 4.735 2.45 7.012 3.96 22.665 15.016 47.854 25.31 74.426 30.915.46.098.922.196 1.397.297 14.99 3.122 29.95 4.215 45.228 4.14q1.217-.003 2.434-.006c29.416-.107 57.733-5.604 85.503-15.306.343-.119.686-.238 1.04-.36 23.176-8.061 45.232-18.905 65.96-32.015.47-.295.939-.59 1.422-.893A182 182 0 0 0 787 1190c.53-.375 1.06-.75 1.607-1.138 2.128-1.784 3.353-3.587 4.342-6.16.991-2.863 1.772-5.776 2.551-8.702q.447-1.607.896-3.212a526 526 0 0 0 6.733-26.989c.478-2.158 1-4.288 1.607-6.414 3.03-11.06 3.383-22.488 4.145-33.875.201-2.975.417-5.948.633-8.92.021-.297.021-.297.13-1.795q.129-1.787.259-3.575.192-2.658.381-5.318c4.219-59.038 4.219-59.038 11.716-80.902q.366-1.09.73-2.18c4.12-12.244 8.986-24.077 16.27-34.82.66 0 1.32 0 2 0 .063-.28.126-.56.191-.848 1.024-3.35 2.918-5.778 5.37-8.204 7.177-6.62 16.462-13.223 25.998-15.643.475-.1.95-.201 1.441-.305.04-.361.08-.723.12-1.095 1.249-10.922 3.02-21.695 9.468-30.886 4.552-6.061 9.685-9.427 16.592-12.46A124 124 0 0 1 904 895c.443-.181.886-.362 1.342-.549 2.229-.606 4.338-.632 6.638-.654.243-.004.243-.004 1.47-.021 1.58-.018 3.158-.024 4.738-.026.27 0 .27 0 1.634-.003 9.406.012 18.061.842 27.178 3.253.573.15 1.145.3 1.735.454 7.652 2.063 15.01 4.803 22.223 8.074q1.12.507 2.24 1.01c17.715 7.967 35.015 16.47 48.802 30.462.332.32.664.64 1.005.97 5.125 4.963 8.488 10.61 10.608 17.444 1.339 5.491 1.044 11.375-.312 16.838-.382 1.266-.849 2.505-1.301 3.748 3.3 0 6.6 0 10 0 2.474-8.815 3.31-18.173 1.418-27.21-2.138-8.163-6.987-14.49-12.418-20.79-.336-.398-.672-.796-1.018-1.206C1013.292 907.417 986.61 896.532 964 886c-.16-4.449 0-8.57.858-12.96 4.27-21.918 4.147-47.057-.608-68.881a303 303 0 0 1-.754-3.627C959.198 779.554 952.287 759.282 943 740q-.492-1.03-.984-2.06A413 413 0 0 0 935 724c-.17-.323-.34-.646-.516-.98-8.408-15.903-18.42-30.845-29.484-45.02-.33-.427-.658-.854-.998-1.293-4.602-5.961-9.516-11.573-14.623-17.105a185 185 0 0 1-5.163-5.861c-2.628-3.095-5.381-5.964-8.403-8.678-.322-.295-.643-.59-.974-.894-.156-.136-.156-.136-.944-.821-.27-.237-.54-.475-.818-.719-1.61-.94-3.258-1.227-5.077-1.629 1.39 4.82 2.97 8.49 6.612 12.001q.822.77 1.655 1.528c1.492 1.362 2.936 2.772 4.385 4.178.29.28.58.56.879.847 3.822 3.715 7.112 7.837 10.374 12.044a291 291 0 0 0 3.447 4.308c26.596 33.172 45.36 75.095 51.898 117.157.28 1.976.524 3.954.75 5.937.056.471.113.942.17 1.427 2.237 19.348.895 38.849-3.607 57.76-.104.436-.207.872-.313 1.322A116.4 116.4 0 0 1 939 876c-.45-.06-.9-.12-1.363-.181-5.868-.76-11.747-1.333-17.637-1.881q-1.462-.138-2.926-.276-3.537-.332-7.074-.662c-.08-.372-.16-.744-.243-1.127C905.08 850.261 899.809 829.055 893 808c-.177-.553-.355-1.105-.537-1.675C886.398 787.427 878.97 769.16 871 751c-.26-.593-.52-1.186-.788-1.797-5.672-12.886-11.734-25.451-18.576-37.756-20.195-36.37-36.623-75.008-76.595-180.405q-1.229-3.594-2.47-7.182c-5.34-15.484-10.337-31.025-14.758-46.797a1350 1350 0 0 1-2.23-8.027c-.163-.586-.325-1.17-.492-1.773-.145-.535-.29-1.07-.44-1.622-.126-.465-.253-.93-.383-1.408C754 463 754 463 754 461c-.99 0-1.98 0-3 0-.112.272-.112.272-.676 1.648-1.58 3.133-4.053 5.525-6.511 7.977-.131.13-.131.13-.792.79-12.349 12.206-28.258 20.408-44.494 26.245-.363.131-.727.262-1.101.397-.364.131-.727.262-1.1.397-10.864 3.922-20.137 9.693-29.816 15.936-11.042 7.106-22.007 13.467-34.51 17.61-.59.209-1.18.418-1.789.633-15.44 5.29-35.268 5.514-51.344 2.79-4.525-.898-8.722-2.406-12.867-4.423-.315-.153-.63-.305-.954-.463-11.288-5.567-20.669-13.57-29.808-22.107-9.876-9.215-20.718-16.666-32.185-23.77A137 137 0 0 1 499 482c-1.323 5.601-2.154 11.172-2.705 16.898-1.64 16.83-4.962 33.696-9.673 49.935-.775 2.682-1.51 5.374-2.25 8.065-8.302 30.107-8.302 30.107-12.583 41.043-.624 1.6-1.2 3.214-1.766 4.836-2.68 7.682-5.56 15.272-8.523 22.848-.185.475-.37.95-.562 1.439-2.874 7.356-5.873 14.657-8.938 21.936-.203.484-.407.968-.616 1.467-6.556 15.592-13.357 31.071-20.282 46.503q-.897 2.001-1.792 4.004-1.426 3.19-2.864 6.377a842 842 0 0 0-1.055 2.354c-1.69 3.783-3.432 7.476-5.527 11.054-1.448 2.472-2.628 4.863-3.594 7.554-1.835 4.808-3.964 9.461-6.133 14.125q-.541 1.166-1.083 2.333a3315 3315 0 0 1-4.482 9.612c-5.17 11.047-9.916 22.173-14.19 33.597q-.593 1.583-1.188 3.165C372.259 836.2 363.397 881.993 361 930c-4.155-3.73-7.018-7.712-9.812-12.5-.213-.362-.426-.724-.645-1.096-7.98-13.71-13.22-28.97-16.185-44.525a194 194 0 0 0-.709-3.547c-6.67-32.062.06-67.595 9.975-98.19 8.142-24.618 19.868-47.343 31.784-70.293 4.454-8.59 8.891-17.162 12.764-26.033.143-.327.287-.654.435-.99 1.409-3.234 2.682-6.366 3.393-9.826-3.217 2.89-5.397 5.982-7.547 9.715-.328.56-.656 1.118-.995 1.695a771 771 0 0 0-2.656 4.573q-.834 1.442-1.672 2.88c-7.999 13.74-15.714 27.635-23.299 41.607q-1.164 2.142-2.333 4.283c-4.096 7.515-8.076 14.964-11.031 23.015-.924 2.437-1.954 4.831-2.967 7.232a625 625 0 0 0-10.437 26.375c-.087.233-.087.233-.522 1.412-3.25 8.875-5.695 17.844-7.79 27.054a96 96 0 0 1-1.817 6.71c-1.131 3.855-1.572 7.718-1.996 11.699a617 617 0 0 1-.357 3.19q-.163 1.431-.316 2.862C316 839 316 839 315.495 840.368c-.558 1.84-.657 3.532-.672 5.435-.007.37-.013.74-.02 1.12-.02 1.224-.031 2.447-.041 3.67a1347 1347 0 0 0-.057 8.106q-.014 2.759-.062 5.515c-.385 22.414 3.932 44.803 14.743 64.661 3.372 6.072 7.308 11.682 11.614 17.125.362.464.725.928 1.098 1.406 13.532 17.257 30.158 29.128 48.432 40.862 21.781 13.99 42.471 28.935 61.32 46.728 1.923 1.808 3.896 3.548 5.892 5.273 4.121 3.568 7.75 7.334 11.235 11.52.954 1.13 1.927 2.24 2.907 3.348 13.526 15.276 25.418 33.674 30.573 53.633.32 1.755.445 3.448.543 5.23.024.22.024.22.143 1.333.638 6.173.324 11.43-2.191 17.17-3.065 6.386-6.938 11.692-12.804 15.757-6.838 4.408-14.609 6.417-22.709 6.817-3.149.08-6.292.043-9.439-.077-.135-.173-.135-.173-.82-1.047a6331 6331 0 0 0-4.674-5.965 747 747 0 0 0-8.451-10.625c-5.124-6.306-10.135-12.68-14.925-19.244a457 457 0 0 0-1.582-2.153c-9.282-12.586-16.37-26.237-23.089-40.306-1.955-4.094-3.937-8.175-5.916-12.257q-.654-1.348-1.308-2.698C381.552 1032.46 366.586 1004.886 346 981c-.362-.429-.723-.857-1.096-1.299-5.397-6.387-11.19-11.715-17.904-16.701 0-.66 0-1.32 0-2-1.98-.66-3.96-1.32-6-2 0-.66 0-1.32 0-2-1.65-.33-3.3-.66-5-1 0-.66 0-1.32 0-2-.557-.182-1.114-.364-1.687-.55q-1.157-.381-2.313-.762c-.41-.135-.822-.27-1.245-.408-1.929-.64-3.837-1.293-5.712-2.077-11.631-4.855-25.259-5.445-37.697-4.013-8.888 1.465-18.97 6.231-26.014 11.822A78 78 0 0 0 236 963c-.66-.66-1.32-1.32-2-2-7.73-46.187 1.252-95.258 21.714-153.832 4.592-12.283 9.725-24.292 15.286-36.168.267-.573.535-1.145.81-1.735 7.82-16.736 16.05-33.203 25.19-49.265.105-.184.105-.184.634-1.117A615 615 0 0 1 307 703c.256-.422.512-.843.776-1.278 13.267-21.833 27.444-43.195 42.552-63.804q1.132-1.547 2.259-3.097c9.372-12.87 19.026-25.452 29.079-37.796q2.487-3.056 4.969-6.115c1.258-1.55 2.519-3.1 3.786-4.642C402.934 571.02 413.83 554.46 423 537c.168-.318.336-.635.51-.962 17.166-32.446 26.931-66.512 31.728-102.85.064-.479.127-.957.192-1.45q.3-2.367.57-4.738a167 167 0 0 0 1.203-19.281q.01-1.32.02-2.64c.02-2.86.024-5.72.027-8.579.001-.493.002-.986.003-1.494.042-21.36-1.138-42.586-2.598-63.888-1.02-14.917-1.88-29.912-1.842-44.868 0-.487 0-.975.001-1.477.15-46.219 5.09-93.693 30.596-143.062 5.291-9.008 11.478-17.076 18.59-24.711.138-.15.138-.15.84-.906 20.848-22.443 46.236-37.126 75.514-46.146C586.47 67.53 594.694 65.638 603 64c.575-.114 1.15-.228 1.742-.345 17.51-3.399 34.929-4.034 52.717-4.087"/>
  <path fill="#e0d9ce" d="M751 461c.99 0 1.98 0 3 0 .15.528.298 1.056.452 1.6 12.58 44.364 27.59 87.809 62.819 174.753q1.138 2.573 2.269 5.15c11.736 26.708 24.471 52.824 37.985 78.675 20.395 39.021 36.373 80.388 46.975 123.135.042.168.042.168.254 1.023 1.589 6.42 3.125 12.854 4.465 19.332.082.387.164.774.248 1.173.483 2.428.603 4.684.533 7.159.381-.016.762-.031 1.155-.048 9.77-.346 18.339.548 27.845 3.048a268 268 0 0 0 5.308-21.852c.316-1.583.645-3.163.973-4.744 6.384-31.37 1.534-63.776-8.43-93.874q-.425-1.266-.851-2.53c-.07-.209-.07-.209-.427-1.266-12.556-36.915-33.912-72.666-62.452-99.54-2.279-2.177-4.09-4.173-5.121-7.194-.22-1.427-.104-2.544 0-4 1.65.33 3.3.66 5 1 11.472 10.296 21.556 21.154 30.96 33.368a298 298 0 0 0 4.47 5.644c31.046 38.663 51.29 86.422 58.934 135.246 1.073 7.61.92 15.383.948 23.054.003.38.005.759.007 1.15.077 15.477-1.523 30.302-4.319 45.538.149.021.149.021.9.13 3.518.595 6.429 1.802 9.608 3.39.519.254 1.037.509 1.572.77a675 675 0 0 1 5.045 2.523c.576.288 1.152.577 1.746.875C997.859 901.233 1012.572 909.6 1025 921c.399.362.797.723 1.208 1.096 7.73 7.098 14.441 14.956 17.711 25.084 1.872 6.787 2.169 14.449.769 21.361-.692 2.629-1.622 4.926-2.688 7.459-3.3 0-6.6 0-10 0 .165-.908.33-1.815.5-2.75 1.023-7.7 1.504-15.025-1.437-22.375-2.762-6.315-7.073-11.203-12.063-15.875q-.414-.39-.84-.792c-5.06-4.728-10.385-8.518-16.347-12.02-.426-.253-.85-.506-1.288-.766-17.083-10.119-35.333-18.526-54.525-23.735-.294-.08-.294-.08-1.779-.483-11.926-3.062-27.266-4.39-39.371-1.806-3.602 1.015-6.714 2.586-9.85 4.602-.38.225-.76.45-1.151.68-4.96 2.966-8.597 6.803-11.537 11.773-3.899 7.198-5.67 15.246-6.917 23.27A26.3 26.3 0 0 1 874 941c-.295.135-.59.27-.895.408-11.45 5.29-22.751 11.608-30.555 21.773-.608.905-1.083 1.836-1.55 2.819-.66 0-1.32 0-2 0-.051.143-.051.143-.31.87a46.5 46.5 0 0 1-3.354 7.09c-4.407 7.619-7.765 15.346-10.649 23.665-.164.468-.329.937-.498 1.42-3.984 11.422-6.44 23.125-8.189 35.08-.042.282-.042.282-.253 1.711-1.437 9.86-2.47 19.74-3.31 29.664-.015.179-.015.179-.092 1.084-.76 8.99-1.395 17.986-1.936 26.992-2.346 38.993-2.346 38.993-7.409 56.424q-.375 1.311-.748 2.622a564 564 0 0 1-3.826 12.737c-1.386 4.433-2.623 8.899-3.801 13.391A1168 1168 0 0 0 793 1185c-5.756 5.414-11.616 10.038-18.375 14.125-.439.268-.878.536-1.33.813-18.78 11.447-38.305 21.237-59.032 28.611q-1.81.646-3.614 1.308c-16.15 5.88-32.977 10.303-49.961 12.956-.367.057-.734.114-1.111.173-2.52.387-5.045.714-7.577 1.014-.383.047-.765.094-1.16.142-9.166 1.093-18.372 1.105-27.59 1.108-.408 0-.816 0-1.237 0-13.86.003-27.382-.52-41.013-3.25-.498-.1-.996-.199-1.51-.301-30.443-6.163-60.672-17.662-85.49-36.699.2.305.4.61.607.924 7.711 11.839 14.137 24.237 18.33 37.764.102.328.204.656.31.994 2.27 7.42 2.991 14.357 3.003 22.068 0 .228 0 .228.003 1.384-.018 12.536-1.505 24.964-6.386 36.604-.666 1.599-1.038 3.072-1.308 4.782-.498 2.752-1.744 4.622-3.372 6.855a555 555 0 0 0-2.46 3.53c-.985 1.483-1.783 3.015-2.602 4.595-5.707 10.128-15.393 17.798-25.187 23.75-4.136 2.434-8.405 4.43-12.83 6.273a90 90 0 0 0-3.354 1.54c-4.81 2.284-9.402 3.732-14.629 4.715a85 85 0 0 0-3.375.75c-4.177.998-8.287 1.746-12.568 2.13-1.858.17-3.629.43-5.448.85-2.886.584-5.684.636-8.62.625-.544 0-1.087.002-1.646.003q-1.71 0-3.416-.006-2.618-.005-5.234.007-1.665 0-3.33-.004c-.52.002-1.041.004-1.578.006-.484-.003-.968-.006-1.467-.01-.425 0-.85-.001-1.287-.002-1.262-.139-2.045-.533-3.156-1.127-1.493-.174-1.493-.174-3.23-.246-.64-.033-1.278-.066-1.936-.1a677 677 0 0 0-3.984-.172c-3.957-.21-7.441-.817-11.222-1.998-2.764-.822-5.594-1.205-8.444-1.607-3.391-.549-6.24-1.72-9.367-3.12-2.66-1.108-5.395-1.81-8.177-2.546-16.5-4.446-32.23-11.416-47.499-18.992-35.722-17.698-73.814-22.637-112.942-27.119-54.147-6.204-54.147-6.204-73.199-17.1 0-.66 0-1.32 0-2-.581-.103-1.163-.206-1.762-.312-2.533-.642-4.141-1.954-6.05-3.688-.172-.156-.172-.156-1.04-.943-7.215-6.733-11.132-13.419-14.203-22.823A226 226 0 0 1 89 1258c-.113-.39-.225-.778-.342-1.18-3.53-14.466-.649-31.742 3.342-45.82a440 440 0 0 1 5.27-16.513c3.465-10.234 3.465-10.234 3.73-15.487.013-.215.013-.215.079-1.305.54-10.174-.93-19.962-2.429-29.993-7.495-50.199-7.495-50.199-.373-69.004 4.85-11.391 13.416-21.971 23.187-29.61 9.255-6.685 20.268-10.953 30.919-14.83.326-.119.652-.238.988-.36a735 735 0 0 1 9.906-3.535c9.755-3.397 20.091-7.108 27.723-14.363.402-.373.804-.747 1.218-1.131 6.963-6.709 12.545-14.773 18.204-22.572a7760 7760 0 0 1 2.68-3.686q.896-1.233 1.79-2.468c4.233-5.827 8.657-11.289 13.733-16.403 2.652-2.712 4.292-5.082 5.375-8.74.99 0 1.98 0 3 0 .487-.424.975-.848 1.477-1.285 7.347-6.165 17.172-12.475 26.784-14.35 12.653-1.784 27.702-1.28 39.694 3.366 3.783 1.542 7.444 3.34 11.045 5.269 0 .66 0 1.32 0 2 1.65.33 3.3.66 5 1 0 .66 0 1.32 0 2 .619.144 1.238.289 1.875.438 1.487.369 2.792.784 4.125 1.562 0 .66 0 1.32 0 2 .545.23 1.09.461 1.652.7 3.038 1.528 5.434 3.818 7.91 6.112.26.24.521.48.79.728 31.18 28.922 50.902 71.608 68.492 109.554 5.077 10.935 10.312 21.177 17.437 30.918q1.153 1.588 2.293 3.188c7.675 10.746 15.76 21.087 24.252 31.198 2.1 2.502 4.152 5.037 6.174 7.602 0 .66 0 1.32 0 2 23.249-1.89 23.249-1.89 32.393-8.168 3.386-2.495 6.442-5.194 8.607-8.832.213-.357.426-.713.645-1.08 2.74-4.76 4.602-9.286 4.8-14.824-.013-2.714-.178-5.395-.445-8.096-.04-.431-.08-.863-.122-1.307-1.615-14.797-10.231-30.64-18.895-42.535-4.965-6.674-10.424-12.945-16.065-19.053-1.576-1.71-3.04-3.468-4.48-5.293-2.083-2.53-4.385-4.61-6.875-6.722a167 167 0 0 1-6.735-6.074c-7.313-6.938-14.77-13.38-22.912-19.343a548 548 0 0 1-2.866-2.124c-9.02-6.714-18.236-13.062-27.675-19.174a31750636343 31750636343 0 0 0-4.43-2.87C377.897 981.054 365.507 972.485 354 962c-.2-.18-.2-.18-1.217-1.096-14.316-13.021-26.14-31.628-32.133-49.974a252 252 0 0 1-2.4-8.117c-.05-.18-.05-.18-.307-1.092q-.906-3.27-1.673-6.573-.268-1.14-.557-2.274c-2.273-9.074-2.02-18.33-1.974-27.617.012-2.296.005-4.591-.007-6.887-.038-8.946-.03-17.607 2.042-26.36.32-1.434.508-2.873.683-4.33 1.065-8.53 3.365-16.508 5.921-24.684a446 446 0 0 0 1.626-5.336A650 650 0 0 1 327 788q.33-1.05.66-2.098c3.008-9.537 6.321-18.63 10.723-27.624 1.032-2.137 1.944-4.319 2.864-6.506 3.008-7.075 6.256-14.019 9.69-20.897.236-.471.47-.942.713-1.427 5.706-11.386 11.96-22.436 18.35-33.448q.534-.921 1.067-1.842 3.733-6.44 7.488-12.868.848-1.455 1.697-2.91 1.34-2.3 2.689-4.594.73-1.248 1.46-2.499c1.709-2.901 3.5-5.652 5.599-8.287.66 0 1.32 0 2 0-.5 5.062-2.223 9.311-4.312 13.875-.171.379-.342.758-.518 1.148-6.37 14.113-13.44 27.92-20.74 41.57-17.611 32.985-32.607 71.383-33.401 109.227a382 382 0 0 1-.123 3.963c-.887 26.892 3.037 52.488 15.031 76.78.288.582.575 1.164.87 1.763 3.23 6.194 7.266 11.909 11.193 17.674q.024-.465.049-.944c1.293-24.55 3.474-49.034 8.951-73.056q.356-1.625.71-3.25c2.937-13.253 6.608-26.199 10.967-39.046q.649-1.92 1.29-3.844c3.907-11.683 8.041-23.203 12.846-34.548.227-.538.454-1.077.688-1.632 4.853-11.475 10.121-22.75 15.46-34.005.078-.166.078-.166.476-1.006a1691 1691 0 0 1 2.217-4.661 217 217 0 0 0 3.814-8.432c1.497-3.53 3.1-7.002 4.726-10.473q1.358-2.905 2.71-5.811c.19-.408.38-.817.576-1.237 6.844-14.7 13.531-29.453 19.895-44.367.156-.366.312-.731.473-1.107 3.482-8.155 6.917-16.325 10.152-24.581.184-.467.367-.933.556-1.414 5.279-13.423 10.4-26.861 14.804-40.599 3.07-9.557 3.07-9.557 4.816-14.12 3.863-10.099 6.467-20.487 9.092-30.963.69-2.748 1.402-5.49 2.119-8.232 3.307-12.717 5.932-25.34 7.39-38.406a786 786 0 0 0 1.133-10.622q.173-1.63.344-3.261c.023-.25.023-.25.139-1.513.232-2.15.444-3.88 1.654-5.706.314-.384.629-.768.953-1.164q4.864 3.154 9.705 6.342 1.64 1.076 3.287 2.143c7.2 4.67 13.74 9.62 19.967 15.532 11.67 11.018 25.918 23.624 41.79 27.651.927.246 1.844.531 2.753.836 7.137 2.17 14.544 1.894 21.936 1.871.178 0 .178 0 1.081-.001 10.846-.015 21.217-.306 31.526-4.029 1.002-.362 2.008-.711 3.014-1.06 13.835-4.868 25.973-12.512 38.313-20.296 8.659-5.458 17.146-10.041 26.69-13.773 19.426-7.6 37.162-17.06 50.938-33.216.63-1.143.63-1.143 1-2"/>
  <path fill="#f7cb6a" d="M312.193 952.018q1.914.97 3.807 1.982c0 .66 0 1.32 0 2 1.65.33 3.3.66 5 1 0 .66 0 1.32 0 2 .619.144 1.238.289 1.875.438 1.487.369 2.792.784 4.125 1.562 0 .66 0 1.32 0 2 .545.23 1.09.461 1.652.7 3.038 1.528 5.434 3.818 7.91 6.113q.388.358.79.727c31.18 28.922 50.902 71.608 68.492 109.554 5.077 10.935 10.312 21.177 17.437 30.918q1.153 1.588 2.293 3.188c6.753 9.455 13.79 18.608 21.24 27.522 4.645 5.563 9.065 11.27 13.435 17.05 2.533 3.349 5.083 6.675 7.74 9.927.121.15.121.15.738.905.243.298.487.596.738.903 19.597 23.997 40.085 52.287 46.148 83.34.637 4.273.63 8.592.637 12.903.001.457.002.914.003 1.384-.018 12.536-1.505 24.964-6.386 36.604-.666 1.599-1.038 3.072-1.308 4.782-.498 2.752-1.744 4.622-3.371 6.855q-.83 1.182-1.653 2.367c-.267.384-.533.768-.808 1.163-.985 1.483-1.783 3.015-2.602 4.595-5.707 10.128-15.393 17.798-25.187 23.75-4.136 2.434-8.405 4.43-12.83 6.273a90 90 0 0 0-3.354 1.54c-4.81 2.284-9.402 3.732-14.629 4.715a85 85 0 0 0-3.375.75c-4.177.998-8.287 1.746-12.568 2.13-1.858.17-3.629.43-5.448.85-2.886.584-5.684.636-8.62.625-.544 0-1.087.002-1.646.003q-1.71 0-3.416-.006-2.618-.005-5.234.007-1.665 0-3.33-.004c-.52.002-1.041.004-1.578.006-.484-.003-.968-.006-1.467-.01-.425 0-.85-.001-1.287-.002-1.262-.139-2.045-.533-3.156-1.127-1.493-.174-1.493-.174-3.23-.246-.64-.033-1.278-.066-1.936-.1a677 677 0 0 0-3.984-.172c-3.957-.21-7.441-.817-11.222-1.998-2.764-.822-5.594-1.205-8.444-1.607-3.391-.549-6.24-1.72-9.367-3.12-2.66-1.108-5.395-1.81-8.177-2.546-16.5-4.446-32.23-11.416-47.499-18.992-35.722-17.698-73.814-22.637-112.942-27.119-54.147-6.204-54.147-6.204-73.199-17.1 0-.66 0-1.32 0-2-.581-.103-1.163-.206-1.762-.312-2.533-.642-4.141-1.954-6.05-3.688-.172-.156-.172-.156-1.04-.943-7.215-6.733-11.132-13.419-14.203-22.823A226 226 0 0 1 89 1258c-.113-.39-.225-.778-.342-1.18-3.53-14.466-.649-31.742 3.342-45.82a440 440 0 0 1 5.27-16.513c3.465-10.234 3.465-10.234 3.73-15.487.026-.43.052-.861.079-1.305.54-10.174-.93-19.962-2.429-29.993-7.495-50.199-7.495-50.199-.373-69.004 4.85-11.391 13.416-21.971 23.187-29.61 9.255-6.685 20.268-10.953 30.919-14.83.326-.119.652-.238.988-.36a735 735 0 0 1 9.906-3.535c9.755-3.397 20.091-7.108 27.723-14.363.402-.373.804-.747 1.218-1.131 6.963-6.709 12.545-14.773 18.204-22.572a7760 7760 0 0 1 2.68-3.686q.896-1.233 1.79-2.468c4.233-5.827 8.657-11.289 13.733-16.403 2.652-2.712 4.292-5.082 5.375-8.74.99 0 1.98 0 3 0 .487-.424.975-.848 1.477-1.285 7.347-6.165 17.172-12.475 26.784-14.35 15.839-2.234 32.564-.397 46.932 6.653"/>
  <path fill="#616161" d="M637.688 73.75c.484 0 .969-.001 1.468-.002 27.449.06 55.83 5.724 79.864 19.463 16.377 9.607 30.785 22.023 40.27 38.64 8.01 14.562 12.198 29.718 12.017 46.382-.352 15.882-6.513 31.962-14.515 45.47-2.146 3.512-4.441 6.92-6.792 10.297-.66 0-1.32 0-2 0-.084.292-.168.584-.255.885-1.396 4.128-3.991 6.955-6.933 10.053q-.742.795-1.483 1.592c-3.541 3.774-7.242 7.29-11.329 10.47.582 3.398.582 3.398 1.626 4.903.81.91 1.648 1.786 2.499 2.66 7.843 8.591 12.843 18.517 16.545 29.465.318.937.647 1.87.976 2.803 5.199 15.344 5.577 35.32 2.624 51.231-.651 3.165-1.595 6.224-2.68 9.266-.611 1.732-1.135 3.476-1.653 5.238-2.272 7.382-5.566 13.576-9.903 19.905-.192.282-.385.563-.583.853-.525.761-1.058 1.517-1.59 2.272-.883 1.44-1.394 2.787-1.861 4.404.151.014.151.014.918.085 2.63.366 4.46 1.002 6.582 2.622a149 149 0 0 1 2.5 2.106c.413.343.825.687 1.25 1.04q1.253 1.043 2.493 2.1c1.265 1.054 2.565 2.048 3.874 3.047 2.283 1.822 3.931 3.74 5.508 6.188.252.385.505.77.764 1.166 2.496 3.98 3.927 8.127 5.111 12.646.131.449.263.897.398 1.36.31 1.22.474 2.387.602 3.64.038.293.038.293.23 1.773.668 7.697-2.34 15.21-5.23 22.227-.946 1.995-2.03 3.844-3.219 5.703-1.05 1.743-1.462 3.3-1.781 5.297-.99 0-1.98 0-3 0-.112.272-.112.272-.676 1.648-1.58 3.133-4.053 5.525-6.511 7.977-.131.13-.131.13-.792.79-12.349 12.206-28.258 20.408-44.494 26.245-.363.131-.727.262-1.101.397-.364.131-.727.262-1.1.397-10.864 3.922-20.137 9.693-29.816 15.936-11.042 7.106-22.007 13.467-34.51 17.61-.59.209-1.18.418-1.789.633-15.44 5.29-35.268 5.514-51.344 2.79-4.525-.898-8.722-2.406-12.867-4.423-.315-.153-.63-.305-.954-.463-11.288-5.567-20.669-13.57-29.808-22.107-9.876-9.215-20.718-16.666-32.185-23.77A137 137 0 0 1 499 482c-.66.66-1.32 1.32-2 2 0-1.65 0-3.3 0-5-.54-.218-1.08-.436-1.637-.66-3.224-1.623-5.661-4.243-8.175-6.777-.265-.266-.529-.53-.801-.804-5.02-5.075-9.108-10.385-12.387-16.759-.222-.415-.443-.83-.671-1.258-3.594-7.005-4.164-14.522-3.895-22.277.258-4.757 1.256-8.687 3.824-12.77A86 86 0 0 1 476 414c.29-.4.58-.801.877-1.214 6.786-9.249 16.785-15.385 26.123-21.786-1.04-2.163-2.057-4.238-3.516-6.156-6.412-8.653-10.992-17.655-14.234-27.906-.199-.625-.397-1.249-.602-1.892-2.745-9.123-3.971-18.057-3.854-27.58.019-1.531.02-3.062.02-4.593.03-8.383.175-16.949 2.748-24.998.166-.529.332-1.057.502-1.602 1.589-4.76 3.694-9.232 5.936-13.71.167-.335.335-.67.507-1.015 2.779-5.52 5.707-11.139 10.243-15.423.428-.41.856-.82 1.297-1.242.314-.292.629-.583.953-.883.66 0 1.32 0 2 0-.413-.461-.825-.923-1.25-1.398C497.4 255.45 491.039 248.155 486 240c0-.99 0-1.98 0-3-.222-.183-.222-.183-1.344-1.11-2.272-2.287-3.124-5.144-4.156-8.14-.107-.308-.107-.308-.647-1.87-5.018-14.857-6.542-29.6-3.465-44.98 2.33-11.056 5.984-21.105 11.612-30.9.324-.564.648-1.129.982-1.71C501.302 127.612 521.174 110.657 542 99c19.71-10.89 40.872-18.483 63.063-22.312.234-.041.234-.041 1.42-.247 10.355-1.765 20.7-2.678 31.205-2.691"/>
  <path fill="#e4e3e1" d="M735.049 682.548A172 172 0 0 1 746 689c0 .66 0 1.32 0 2 .587.115 1.174.23 1.779.35 2.303.58 3.895 1.623 5.76 3.056a342 342 0 0 1 4.086 3.094c.357.271.713.542 1.08.822 5.582 4.244 10.986 8.62 16.047 13.481a344 344 0 0 0 3.412 3.217c7.74 7.255 14.136 15.037 19.836 23.98.199.31.398.621.603.941 6.64 10.425 11.146 21.143 14.397 33.059.07.257.07.257.425 1.556.803 3.128 1.263 6.232 1.575 9.444.066.655.131 1.31.199 1.984 2.524 26.57-2.734 52.932-13.737 77.203-2.335 5.014-4.857 9.934-7.462 14.813-.66 0-1.32 0-2 0-.33 1.65-.66 3.3-1 5-.66 0-1.32 0-2 0-.106.579-.211 1.158-.32 1.754-.63 2.512-1.946 4.197-3.555 6.184-1.697 2.168-3.339 4.278-4.687 6.687-1.753 3.067-3.996 5.828-6.438 8.375-.66.33-1.32.66-2 1-1.32 2.31-2.64 4.62-4 7-.99 0-1.98 0-3 0-.66 1.65-1.32 3.3-2 5-.99.33-1.98.66-3 1 0 .66 0 1.32 0 2-1.32 1.32-2.64 2.64-4 4-.66 0-1.32 0-2 0 0 .66 0 1.32 0 2-.66 0-1.32 0-2 0 0 .66 0 1.32 0 2-1.32.33-2.64.66-4 1-.33.99-.66 1.98-1 3-.99 0-1.98 0-3 0-.66 1.32-1.32 2.64-2 4-1.65.66-3.3 1.32-5 2-.33.66-.66 1.32-1 2-.66 0-1.32 0-2 0 0 .66 0 1.32 0 2-.99.66-1.98 1.32-3 2-79.86 0-159.72 0-242 0 0-.66 0-1.32 0-2-.66 0-1.32 0-2 0 0-.66 0-1.32 0-2-.99 0-1.98 0-3 0 0-.66 0-1.32 0-2-.583-.266-1.165-.531-1.766-.805-2.287-1.143-4.09-2.62-5.984-4.32A378 378 0 0 1 473 932c0-.66 0-1.32 0-2-.433-.103-.866-.206-1.312-.312-2.149-.876-3.133-1.985-4.688-3.688 0-.99 0-1.98 0-3-1.32-.33-2.64-.66-4-1-1.32-1.65-2.64-3.3-4-5 0-.99 0-1.98 0-3-.276-.092-.276-.092-1.672-.555-3.494-1.765-5.46-5.409-7.578-8.57-.24-.352-.48-.704-.726-1.067-4.557-6.717-8.27-13.716-11.711-21.056a117 117 0 0 0-2.926-5.791C426.589 862.449 422.447 846.024 419 830c-.134-.623-.268-1.247-.407-1.89-3.918-19.46-3.579-42.26 2.696-61.133C425.881 753.555 432.18 741.143 441 730c.174-.225.174-.225 1.054-1.362C455.895 710.781 472.785 697.6 492 686q.463-.28.94-.569c28.69-17.25 63.952-26.322 97.06-29.431.536-.056 1.072-.113 1.624-.17 46.486-4.846 94.182 3.859 143.425 26.718"/>
  <path fill="#f7ce5b" d="M872 959c.99.33 1.98.66 3 1 .032.264.032.264.196 1.598 1.455 11.625 3.33 22.513 7.804 33.402.215.525.43 1.05.651 1.59 4.669 11.02 12.036 21.548 21.594 28.863 4.298 3.097 8.848 5.563 13.755 7.547.608.246 1.217.492 1.844.746 9.663 3.073 21.77 1.826 31.519-.272 23.93-5.712 45.716-18.814 63.586-35.501A279 279 0 0 0 1022 992c13.452-2.048 29.381-2.096 42.215 2.777A63.2 63.2 0 0 1 1077 1002c.196.142.196.142 1.187.858 7.408 5.53 11.89 12.461 15.57 20.871a201 201 0 0 1 2.169 5.529c.128.339.256.678.388 1.028 3.178 8.503 5.185 17.25 7.186 26.089 2.178 9.588 4.48 19.051 7.602 28.383.123.371.247.743.374 1.125 3.507 10.46 8.128 19.36 15.362 27.76a357 357 0 0 1 3.896 4.646A1814 1814 0 0 0 1138 1127c0 .66 0 1.32 0 2 .66 0 1.32 0 2 0 5.335 7.575 10.357 15.2 14.5 23.5.165.326.33.652.5.989 3.452 6.863 5.376 13.261 5.313 21.011-.001.327-.001.327-.004 1.985-.087 4.327-.594 7.708-2.653 11.511q-.323.494-.656 1.004c-.66 0-1.32 0-2 0-.33 1.32-.66 2.64-1 4a161 161 0 0 1-4.167 4.179 90 90 0 0 0-1.647 1.666c-4.812 4.969-10.197 8.57-16.15 11.995-.399.23-.797.46-1.207.698-7.876 4.538-15.966 8.64-24.106 12.677-.315.156-.63.312-.955.473a4468 4468 0 0 1-16.688 8.222c-4.562 2.238-9.12 4.482-13.67 6.742q-.47.234-.953.474c-20.529 10.21-39.74 22.004-57.255 36.855a435 435 0 0 1-3.413 2.855c-3.568 2.997-6.778 6.128-9.787 9.685-3.379 3.983-6.967 7.772-10.545 11.575-5.278 5.613-5.278 5.613-7.625 8.627-1.644 2.103-3.408 3.825-5.457 5.527q-1.07.907-2.137 1.816c-.369.315-.738.63-1.118.954a101 101 0 0 0-3.265 3.007c-18.25 17.313-41.56 30.64-65.668 37.785-.332.1-.665.2-1.008.302-10.558 3.113-20.867 4.301-31.866 4.261-.616-.001-1.23-.002-1.864-.004-15.833-.084-28.887-3.428-42.65-11.307-13.042-7.633-22.827-18.01-30.363-31.04-4.645-8.223-8.772-16.653-10.436-26.024a650 650 0 0 0-.28-1.568c-.68-4.244-.906-8.429-.905-12.717-.002-1.055-.02-2.11-.04-3.164-.116-13.6 2.446-27.062 5.636-40.221q.424-1.755.84-3.51c4.18-17.548 9.224-34.855 14.343-52.147 8.473-28.654 14.282-55.805 16.113-85.64.39-6.327.822-12.651 1.262-18.974.043-.62.086-1.24.13-1.877 1.967-28.094 4.526-57.116 15.901-83.182.228-.542.455-1.083.69-1.641 4.369-10.262 10.879-19.25 19.837-25.989 5.502-3.95 5.502-3.95 8.473-5.37"/>
  <path fill="#da9150" d="M911.98 893.797c.486-.007.97-.014 1.47-.021 1.58-.018 3.158-.024 4.737-.026.54-.001 1.08-.002 1.635-.003 9.406.012 18.061.842 27.178 3.253.286.075.286.075 1.735.454 7.652 2.063 15.01 4.803 22.223 8.074q1.12.507 2.24 1.01c17.715 7.967 35.015 16.47 48.802 30.462.332.32.664.64 1.005.97 5.125 4.963 8.488 10.61 10.608 17.444 1.339 5.491 1.044 11.375-.312 16.838-.382 1.266-.849 2.505-1.301 3.748 3.3 0 6.6 0 10 0 .33-.66.66-1.32 1-2 0 .66 0 1.32 0 2 .403-.035.807-.07 1.223-.105 5.65-.252 10.921.816 16.408 2.038 3.517.768 6.765 1.294 10.369 1.067 0 .99 0 1.98 0 3q.45.057.914.115c3.581.569 6.193 1.852 9.211 3.822.47.307.942.613 1.427.93 9.547 6.417 17.157 13.877 22.448 24.133.288.559.577 1.117.874 1.693 6.858 13.683 10.25 28.417 13.784 43.228 8.87 37.138 8.87 37.138 22.172 51.668 14.037 15.396 28.19 34.558 33.17 55.099 1.576 7.632 2.479 16.013.086 23.546-3.01 8.14-7.743 16.225-14.271 22.03-.995.899-1.96 1.828-2.928 2.756-8.532 8.058-17.903 14.308-28.49 19.345a568 568 0 0 0-9.64 4.754 2269 2269 0 0 1-17.7 8.792c-46.726 22.98-46.726 22.98-63.057 36.089-.46.366-.918.732-1.391 1.108A525 525 0 0 0 1028 1289c-.361.302-.723.604-1.095.916-4.655 3.899-8.924 7.934-12.905 12.522-23.718 27.313-23.718 27.313-35.999 35.834-1.572 1.143-3.054 2.39-4.552 3.627-5.525 4.548-11.311 8.431-17.449 12.101-.531.32-1.062.64-1.61.969-8.313 4.972-16.816 9.335-25.67 13.266a184 184 0 0 0-3.372 1.54c-4.912 2.24-9.916 3.563-15.16 4.787-.457.108-.913.216-1.383.327-18.432 4.306-37.749 6.057-56.438 2.371a74 74 0 0 0-3.676-.592c-6.577-1.024-12.304-4.208-18.112-7.305a152 152 0 0 0-5.466-2.77c-14.012-6.92-25.85-18.911-34.587-31.711A303 303 0 0 1 788 1331c-.296-.456-.593-.912-.898-1.382-4.928-7.67-8.774-15.775-11.102-24.618 0-.66 0-1.32 0-2-.344.009-.688.018-1.042.027-17.856.437-35.388.08-53.145-1.965-.4-.045-.799-.091-1.21-.138-6.462-.745-12.919-1.53-19.356-2.465-2.257-.326-4.5-.611-6.774-.775-.564-.042-1.128-.084-1.71-.127-.56-.04-1.122-.079-1.7-.12-.589-.043-1.177-.086-1.784-.13q-2.139-.157-4.279-.307c-.33-.33-.66-.66-1-1-14.196-1.835-28.236-3.31-42.562-3.25-.275 0-.275 0-1.665.003-5.638.023-11.244.214-16.863.7-.226.02-.226.02-1.369.116-2.334.225-4.313.674-6.541 1.431a62 62 0 0 1-3.687.281c-.344.019-.688.037-1.042.056-1.458.078-2.916.146-4.374.215q-1.605.08-3.21.167c-.635.03-1.27.06-1.925.092-1.73.186-3.13.607-4.762 1.189-1.103.19-1.103.19-2.121.281-.378.038-.757.075-1.147.114-.386.034-.772.07-1.17.105q-1.155.105-2.308.219c-.337.03-.674.06-1.021.092-1.41.216-2.768.58-4.149.934-1.816.427-3.652.68-5.498.939a13722 13722 0 0 0-3.866.56c-12.345 1.78-12.345 1.78-17.845 2.881-.382.075-.765.15-1.159.228-1.317.276-2.516.542-3.712 1.17-1.566.744-3.236.808-4.942.977-3.693.37-3.693.37-5.436.984-1.861.59-3.686.843-5.618 1.051-.383.043-.766.086-1.16.13q-1.86.205-3.723.398c-.21.022-.21.022-1.277.135-7.303.768-14.502 1.063-21.848.802q.684-2.564 1.375-5.125c.063-.237.063-.237.383-1.437.678-2.51 1.415-4.972 2.273-7.426 4.505-13.363 4.723-30.749 1.992-44.524-3.088-14.254-10.05-27.96-17.71-40.273-1.043-1.69-1.805-3.28-2.313-5.215 2.483 1.14 4.735 2.45 7.012 3.96 22.665 15.016 47.854 25.31 74.426 30.915.23.049.23.049 1.397.297 14.99 3.122 29.95 4.215 45.227 4.14q1.218-.003 2.435-.006c29.416-.107 57.733-5.604 85.503-15.306.343-.119.686-.238 1.04-.36 23.176-8.061 45.232-18.905 65.96-32.015.47-.295.939-.59 1.422-.893A182 182 0 0 0 787 1190c.53-.375 1.06-.75 1.607-1.138 2.128-1.784 3.353-3.587 4.342-6.16.991-2.863 1.772-5.776 2.551-8.702q.447-1.607.896-3.212a526 526 0 0 0 6.733-26.989c.478-2.158 1-4.288 1.607-6.414 3.03-11.06 3.383-22.488 4.145-33.875.201-2.975.417-5.948.633-8.92.043-.593.085-1.185.13-1.795q.129-1.787.259-3.575.192-2.658.381-5.318c4.219-59.038 4.219-59.038 11.716-80.902q.366-1.09.73-2.18c4.12-12.244 8.986-24.077 16.27-34.82.66 0 1.32 0 2 0 .063-.28.126-.56.191-.848 1.024-3.35 2.918-5.778 5.37-8.204 7.177-6.62 16.462-13.223 25.998-15.643.475-.1.95-.201 1.441-.305.04-.361.08-.723.12-1.095 1.249-10.922 3.02-21.695 9.468-30.886 4.552-6.061 9.685-9.427 16.592-12.46A124 124 0 0 1 904 895c.221-.09.221-.09 1.342-.549 2.229-.606 4.338-.632 6.638-.654M872 959c-11.804 7.52-19.91 15.309-26.747 27.75-4.818 9.258-7.72 19.16-10.253 29.25-.05.196-.05.196-.298 1.185-6.27 25.373-7.44 52.323-9.022 78.316-.979 16.04-1.947 31.817-5.68 47.499-.06.253-.06.253-.359 1.535-3.877 16.555-8.597 32.873-13.311 49.204-16.371 56.71-16.371 56.71-17.33 76.261-.018.356-.037.712-.056 1.079-.803 15.977 1.344 30.607 8.53 45.047 6.471 12.606 16.303 24.788 27.984 32.889 10.88 6.954 24.054 13.104 37.031 14.1 1.53.064 3.058.101 4.59.123.563.01 1.128.02 1.709.03 12.873.177 24.82-.182 37.168-3.955a148 148 0 0 1 3.202-.914c25.097-6.96 46.844-21.452 66.045-38.686a456 456 0 0 1 3.118-2.754c4.928-4.33 9.573-8.732 13.796-13.752 2.19-2.597 4.484-5.098 6.78-7.6q1.055-1.153 2.109-2.308c2.55-2.78 5.154-5.487 7.837-8.14a111 111 0 0 0 3.052-3.194c21.66-23.164 52.705-36.861 80.66-50.703q2.198-1.089 4.395-2.18c.487-.241.974-.483 1.476-.732q1.482-.735 2.964-1.472 3.641-1.808 7.291-3.597c37.103-18.168 37.103-18.168 45.832-30.553q.239-.358.487-.728c0-.99 0-1.98 0-3 .66 0 1.32 0 2 0 2.129-3.256 3.036-6.456 3.375-10.312.505-10.092-1.718-18.507-6.284-27.498-4.049-7.8-8.862-15.133-14.091-22.19-.66 0-1.32 0-2 0-.245-.556-.49-1.111-.742-1.684-1.395-2.783-3.377-5.018-5.383-7.379-16.57-19.945-23.46-40.61-29.177-65.65-2.032-8.894-4.234-17.736-7.448-26.287q-.188-.502-.383-1.019c-3.369-8.857-7.791-16.897-15.036-23.192-3.368-2.687-7.064-4.726-10.893-6.664-.566-.286-1.131-.573-1.714-.868-7.712-3.688-15.1-4.622-23.536-4.944-.46-.02-.92-.041-1.393-.062-6.844-.3-13.503-.285-20.295.749-.12.133-.12.133-.724.803-16.037 17.51-37.425 30.917-60.042 38.123-2.398.742-4.81 1.42-7.234 2.074-.522.143-1.044.285-1.582.432-9.632 2.504-21.553 2.981-31.23.505-6.037-1.78-11.162-5.241-16.188-8.937-.367-.263-.734-.525-1.113-.796-8.695-6.347-15.39-16.784-19.77-26.516Q883.55 996.347 883 995c-.211-.517-.422-1.034-.64-1.566-4.29-10.861-5.945-21.901-7.36-33.434-.99-.33-1.98-.66-3-1"/>
  <path fill="#f7d150" d="M595.18 347.934c22.112-1.028 41.904 6.724 61.188 16.667 3.657 1.92 7.187 4.032 10.695 6.212 10.376 6.435 21.37 10.369 32.833 14.409 33.572 11.834 33.572 11.834 42.197 19.932.925.863 1.883 1.674 2.852 2.487 3.62 3.153 6.258 6.601 7.968 11.113 1.97 6.222 2.092 12.833 1.087 19.246-2.217 9.456-7.645 17.116-14.156 24.102-11.059 11.597-25.135 19.222-39.981 24.808-13.99 5.277-26.635 12.265-39.261 20.227-10.876 6.851-21.903 12.998-34.227 16.8-.33.102-.66.204-1 .31-5.993 1.821-11.82 2.894-18.086 2.991-.525.01-1.05.02-1.592.03-14.96.222-27.97-.407-41.51-7.456-8.088-4.54-14.858-10.623-21.613-16.907-8.75-8.138-18.068-14.998-28.136-21.405-13.113-8.349-24.359-17.41-31.82-31.312-2.66-5.11-4.065-9.582-3.893-15.407.071-1.263.17-2.52.275-3.781.021-.383.043-.766.064-1.16.222-3.272.93-6.136 2.608-8.978 4.674-6.774 11.613-11.585 18.14-16.425.422-.313.844-.627 1.278-.95a359 359 0 0 1 3.68-2.678c.183-.135.183-.135 1.11-.817 2.34-1.654 4.299-2.465 7.12-2.992 0-.66 0-1.32 0-2 .188-.128.188-.128 1.142-.775 6.66-4.55 13.02-9.021 18.596-14.894 4.372-4.576 9.27-8.457 14.262-12.331.392-.312.785-.624 1.189-.945 10.787-8.504 24.277-14.72 37.811-17.055.364-.068.727-.135 1.102-.205 2.686-.487 5.358-.708 8.078-.861"/>
  <path fill="#e6e3df" d="M714 490c1.65.33 3.3.66 5 1 10.219 9.415 18.22 20.124 22.484 33.521 1.007 3.459 1.816 6.947 2.516 10.479.036.178.036.178.218 1.08.44 2.297.656 4.588.782 6.92.027.45.054.899.083 1.362 1.025 19.827-3.115 40.386-11.767 58.26-2.103 4.063-4.507 7.769-7.316 11.378-.66 0-1.32 0-2 0-.66 1.65-1.32 3.3-2 5-.99.33-1.98.66-3 1-.66 1.32-1.32 2.64-2 4-.66.33-.66.33-4 2 0 .66 0 1.32 0 2-13.035.165-13.035.165-79 1-.33.33-.66.66-1 1-11.55 0-23.1 0-35 0 0-.66 0-1.32 0-2-.283.071-.283.071-1.715.43-7.275 1.706-14.287 1.83-21.73 1.765q-1.896-.005-3.791-.008-4.436-.012-8.871-.043a2713 2713 0 0 0-10.121-.043Q541.386 630.068 531 630c-.165-.66-.165-.66-1-4-.66 0-1.32 0-2 0 0-.66 0-1.32 0-2-.99 0-1.98 0-3 0-.165-.66-.165-.66-1-4-.99-.33-1.98-.66-3-1-.99-1.32-1.98-2.64-3-4 0-.99 0-1.98 0-3-.66-.33-1.32-.66-2-1-7.73-14.34-12.867-28.152-15.375-44.312-.086-.542-.171-1.084-.26-1.642-1.603-10.366-2.261-20.706-.178-31.046.066-.333.131-.666.198-1.01 2.547-12.819 8.508-24.3 17.053-34.178A158 158 0 0 1 520 496c3.82 1.566 6.7 4.135 9.769 6.822q1.404 1.226 2.817 2.44c2.651 2.291 5.285 4.593 7.84 6.992C546.695 518.12 553.702 522.535 561 527c.456.288.912.576 1.382.872 2.571 1.602 5.038 2.794 7.93 3.69.34.113.68.226 1.03.342q1.142.368 2.295.7c.972.282 1.937.591 2.896.917 7.122 2.162 14.53 1.877 21.904 1.854.357 0 .714 0 1.082-.001 10.846-.015 21.217-.306 31.526-4.029 1.002-.362 2.008-.711 3.014-1.06 13.835-4.868 25.973-12.512 38.313-20.296 11.748-7.406 23.678-12.75 36.607-17.784.369-.144.737-.288 1.117-.436.32-.125.641-.25.972-.379.997-.417 1.964-.906 2.932-1.39M593 629c2 1 2 1 2 1Z"/>
  <path fill="#d99150" d="M312.193 952.018q1.914.97 3.807 1.982c0 .66 0 1.32 0 2 1.65.33 3.3.66 5 1 0 .66 0 1.32 0 2 .619.144 1.238.289 1.875.438 1.487.369 2.792.784 4.125 1.562 0 .66 0 1.32 0 2 .545.23 1.09.461 1.652.7 3.038 1.528 5.434 3.818 7.91 6.113q.388.358.79.727c31.18 28.922 50.902 71.608 68.492 109.554 5.077 10.935 10.312 21.177 17.437 30.918q1.153 1.588 2.293 3.188c6.753 9.455 13.79 18.608 21.24 27.522 4.645 5.563 9.065 11.27 13.435 17.05 2.533 3.349 5.083 6.675 7.74 9.927.121.15.121.15.738.905.243.298.487.596.738.903 19.597 23.997 40.085 52.287 46.148 83.34.637 4.273.63 8.592.637 12.903.001.457.002.914.003 1.384-.018 12.536-1.505 24.964-6.386 36.604-.666 1.599-1.038 3.072-1.308 4.782-.498 2.752-1.744 4.622-3.371 6.855q-.83 1.182-1.653 2.367c-.267.384-.533.768-.808 1.163-.985 1.483-1.783 3.015-2.602 4.595-5.707 10.128-15.393 17.798-25.187 23.75-4.136 2.434-8.405 4.43-12.83 6.273a90 90 0 0 0-3.354 1.54c-4.81 2.284-9.402 3.732-14.629 4.715a85 85 0 0 0-3.375.75c-4.177.998-8.287 1.746-12.568 2.13-1.858.17-3.629.43-5.448.85-2.886.584-5.684.636-8.62.625-.544 0-1.087.002-1.646.003q-1.71 0-3.416-.006-2.618-.005-5.234.007-1.665 0-3.33-.004c-.52.002-1.041.004-1.578.006-.484-.003-.968-.006-1.467-.01-.425 0-.85-.001-1.287-.002-1.262-.139-2.045-.533-3.156-1.127-1.493-.174-1.493-.174-3.23-.246-.64-.033-1.278-.066-1.936-.1a677 677 0 0 0-3.984-.172c-3.957-.21-7.441-.817-11.222-1.998-2.764-.822-5.594-1.205-8.444-1.607-3.391-.549-6.24-1.72-9.367-3.12-2.66-1.108-5.395-1.81-8.177-2.546-16.5-4.446-32.23-11.416-47.499-18.992-35.722-17.698-73.814-22.637-112.942-27.119-54.147-6.204-54.147-6.204-73.199-17.1 0-.66 0-1.32 0-2-.581-.103-1.163-.206-1.762-.312-2.533-.642-4.141-1.954-6.05-3.688-.172-.156-.172-.156-1.04-.943-7.215-6.733-11.132-13.419-14.203-22.823A226 226 0 0 1 89 1258c-.113-.39-.225-.778-.342-1.18-3.53-14.466-.649-31.742 3.342-45.82a440 440 0 0 1 5.27-16.513c3.465-10.234 3.465-10.234 3.73-15.487.026-.43.052-.861.079-1.305.54-10.174-.93-19.962-2.429-29.993-7.495-50.199-7.495-50.199-.373-69.004 4.85-11.391 13.416-21.971 23.187-29.61 9.255-6.685 20.268-10.953 30.919-14.83.326-.119.652-.238.988-.36a735 735 0 0 1 9.906-3.535c9.755-3.397 20.091-7.108 27.723-14.363.402-.373.804-.747 1.218-1.131 6.963-6.709 12.545-14.773 18.204-22.572a7760 7760 0 0 1 2.68-3.686q.896-1.233 1.79-2.468c4.233-5.827 8.657-11.289 13.733-16.403 2.652-2.712 4.292-5.082 5.375-8.74.99 0 1.98 0 3 0 .487-.424.975-.848 1.477-1.285 7.347-6.165 17.172-12.475 26.784-14.35 15.839-2.234 32.564-.397 46.932 6.653m-48.255 10.607c-.19.07-.19.07-1.15.425-8.097 3.488-14.854 9.441-20.975 15.638-.362.361-.723.723-1.095 1.095-7.298 7.345-13.353 15.391-19.304 23.838-2.722 3.85-5.607 7.562-8.539 11.254-.223.281-.445.563-.675.853a696 696 0 0 1-3.085 3.87q-1.08 1.356-2.12 2.74c-7.163 9.411-18.873 15.604-29.616 20.109-5.1 2.047-10.316 3.806-15.504 5.616-14.5 5.06-26.973 9.67-37.875 20.937-.168.166-.168.166-1.019 1.003-5.202 5.137-8.71 11.027-10.981 17.997-.871 3.91-1.15 7.743-1.133 11.738 0 .263 0 .263-.003 1.591q0 1.656.006 3.31.005 2.49-.007 4.976c-.003 4.871.06 9.707.582 14.553.02.182.02.182.118 1.102.221 1.788.598 3.15 1.437 4.73.19 1.142.19 1.142.281 2.39.019.23.019.23.112 1.392.035.484.07.969.107 1.468.28 3.444.62 6.828 1.233 10.23 1.33 7.58 1.486 15.082 1.507 22.764q.007 2.06.041 4.121c.132 8.15-.233 15.6-2.862 23.382-.557 1.667-1.053 3.35-1.55 5.036q-.549 1.846-1.114 3.686c-7.181 23.45-7.181 23.45-7.755 33.531-.027.378-.054.756-.083 1.146-.515 7.793.467 16.02 3.685 23.196 3.111 5.917 7.859 10.95 13.398 14.658 22.322 13.724 53.178 13.78 78.504 16.444 11.874 1.25 23.717 2.576 35.496 4.556.435.073.87.146 1.318.221 10.66 1.806 21.012 3.885 31.276 7.33 1.849.59 3.718 1.066 5.599 1.54 6.553 1.658 12.648 4.15 18.807 6.909.381.17.762.34 1.155.516 5.191 2.323 10.349 4.704 15.458 7.203 9.863 4.82 19.547 9.387 29.993 12.8 1.685.582 3.304 1.271 4.936 1.985 8.138 3.524 16.846 5.503 25.458 7.496.432.101.863.203 1.308.307 12.558 2.93 24.889 4.064 37.755 4.068.642.002 1.285.004 1.947.006 12.055-.004 24.056-1.046 35.615-4.631.353-.107.705-.214 1.068-.324 13.677-4.186 25.724-11.428 35.702-21.725 7.428-8.152 12.553-18.16 15.605-28.701.15-.496.3-.993.453-1.504 3.592-12.356 4.261-26.603 1.62-39.24-5.98-23.469-21.089-44.68-35.848-63.413-2.302-2.926-4.516-5.909-6.725-8.905-3.715-5.005-7.635-9.825-11.585-14.644-4.78-5.84-9.409-11.78-13.964-17.797a589 589 0 0 0-8.494-10.974c-14.548-18.317-25.734-37.502-35.77-58.585a55012 55012 0 0 1-2.109-4.431A7183 7183 0 0 0 381 1066c-.116-.243-.116-.243-.703-1.473-10.541-22.06-22.234-44.173-37.297-63.527-.35-.461-.7-.923-1.061-1.398-10.056-13.216-22.283-26.779-37.85-33.441A113 113 0 0 0 292 962c-.154-.044-.154-.044-.935-.268-2.335-.632-4.586-.916-7.006-.97-.365-.01-.729-.02-1.104-.03-13.144-.28-13.144-.28-19.017 1.893"/>
  <path fill="#010101" d="M789 1188c.66 0 1.32 0 2 0-1.353 7.007-2.888 13.863-5.001 20.681-7.164 23.175-11.147 46.17-11.187 70.381 0 .171 0 .171-.002 1.036-.024 14.895-.024 14.895 1.19 21.902-.33.33-.66.66-1 1-17.853.479-35.37.102-53.125-1.937-.4-.046-.8-.092-1.212-.14-6.483-.745-12.96-1.525-19.419-2.464-2.255-.326-4.497-.611-6.771-.775-.564-.042-1.128-.084-1.71-.127-.56-.04-1.122-.079-1.7-.12-.589-.043-1.177-.086-1.784-.13q-2.139-.157-4.279-.307c-.33-.33-.66-.66-1-1-14.196-1.835-28.236-3.31-42.562-3.25-.275 0-.275 0-1.665.003-5.638.023-11.244.214-16.863.7-.452.038-.903.077-1.369.116-2.334.225-4.313.674-6.541 1.431a62 62 0 0 1-3.687.281c-.344.019-.688.037-1.042.056-1.458.078-2.916.146-4.374.215q-1.605.08-3.21.167c-.635.03-1.27.06-1.925.092-1.73.186-3.13.607-4.762 1.189-1.103.19-1.103.19-2.121.281-.19.019-.19.019-1.147.114-.386.034-.772.07-1.17.105q-1.155.105-2.308.219c-.337.03-.674.06-1.021.092-1.41.216-2.768.58-4.149.934-1.816.427-3.652.68-5.498.939a13722 13722 0 0 0-3.866.56c-12.345 1.78-12.345 1.78-17.845 2.881-.191.038-.191.038-1.159.228-1.317.276-2.516.542-3.712 1.17-1.566.744-3.236.808-4.942.977-3.693.37-3.693.37-5.436.984-1.861.59-3.686.843-5.618 1.051-.192.022-.192.022-1.16.13q-1.86.205-3.723.398c-.421.044-.843.09-1.277.135-7.303.768-14.502 1.063-21.848.802q.684-2.564 1.375-5.125c.126-.474.253-.949.383-1.437.678-2.51 1.415-4.972 2.273-7.426 4.505-13.363 4.723-30.749 1.992-44.524-3.088-14.254-10.05-27.96-17.71-40.273-1.043-1.69-1.805-3.28-2.313-5.215 2.483 1.14 4.735 2.45 7.012 3.96 22.665 15.016 47.854 25.31 74.426 30.915.46.098.922.196 1.397.297 14.99 3.122 29.95 4.215 45.227 4.14q1.218-.003 2.435-.006c29.416-.107 57.733-5.604 85.503-15.306.343-.119.686-.238 1.04-.36 23.26-8.09 45.397-18.962 66.148-32.203.482-.307.964-.615 1.46-.931a782 782 0 0 0 4.082-2.635c.203-.13.203-.13 1.225-.79 1.867-1.226 3.546-2.403 5.045-4.081"/>
  <path fill="#020101" d="M911.98 893.797c.486-.007.97-.014 1.47-.021 1.58-.018 3.158-.024 4.737-.026.54-.001 1.08-.002 1.635-.003 9.406.012 18.061.842 27.178 3.253.573.15 1.145.3 1.735.454 7.652 2.063 15.01 4.803 22.223 8.074q1.12.507 2.24 1.01c17.715 7.967 35.015 16.47 48.802 30.462.332.32.664.64 1.005.97 5.143 4.98 8.479 10.62 10.595 17.479 1.343 5.21 1.29 10.345-.113 15.539-1.27 4.415-2.83 8.728-4.487 13.012-.66 0-1.32 0-2 0-.049.153-.049.153-.297.927-1.277 3.596-3.113 6.054-5.703 8.823-.399.431-.798.862-1.208 1.307-16.31 17.371-37.88 30.577-60.694 37.503-1.694.501-3.394.974-5.098 1.44-.525.144-1.05.288-1.59.437-9.628 2.5-21.55 2.976-31.222.5-6.036-1.787-11.183-5.208-16.188-8.937-.4-.295-.8-.59-1.21-.894-9.366-7.107-16.653-17.93-21.22-28.711-.189-.46-.376-.92-.57-1.395-.211-.517-.422-1.034-.64-1.566-5.887-14.905-8.416-31.45-7.36-47.434.023-.36.046-.72.07-1.091.797-12.218 1.943-24.237 8.742-34.784 3.907-5.575 8.299-9.358 14.455-12.267 2.223-1.005 4.456-1.98 6.733-2.858.443-.181.886-.362 1.342-.549 2.229-.606 4.338-.632 6.638-.654"/>
  <path fill="#d9904f" d="M689 293c6.533 3.458 11.868 7.799 16 14 5.423 9.606 7.339 19.884 7.31 30.79-.182 14-4.663 25.145-11.31 37.21 6.03 2.617 12.04 5.084 18.313 7.063 4.626 1.466 8.634 3.254 12.687 5.937.66-.33 1.32-.66 2-1 0 .99 0 1.98 0 3 .151.014.151.014.918.085 2.63.366 4.46 1.002 6.582 2.622a149 149 0 0 1 2.5 2.106c.413.343.825.687 1.25 1.04q1.253 1.043 2.493 2.1c1.265 1.054 2.565 2.048 3.874 3.047 2.283 1.822 3.931 3.74 5.508 6.188.252.385.505.77.764 1.166 2.496 3.98 3.927 8.127 5.111 12.646.131.449.263.897.398 1.36.31 1.22.474 2.387.602 3.64.076.585.152 1.17.23 1.773.668 7.697-2.34 15.21-5.23 22.227-.946 1.995-2.03 3.844-3.219 5.703-1.05 1.743-1.462 3.3-1.781 5.297-.99 0-1.98 0-3 0-.223.544-.446 1.088-.676 1.648-1.58 3.133-4.053 5.525-6.511 7.977-.262.261-.523.522-.792.79-12.349 12.206-28.258 20.408-44.494 26.245-.363.131-.727.262-1.101.397-.364.131-.727.262-1.1.397-10.864 3.922-20.137 9.693-29.816 15.936-11.042 7.106-22.007 13.467-34.51 17.61-.59.209-1.18.418-1.789.633-15.44 5.29-35.268 5.514-51.344 2.79-4.525-.898-8.722-2.406-12.867-4.423-.315-.153-.63-.305-.954-.463-11.288-5.567-20.669-13.57-29.808-22.107-9.876-9.215-20.718-16.666-32.185-23.77A137 137 0 0 1 499 482c-.33.33-.33.33-2 2 0-1.65 0-3.3 0-5-.54-.218-1.08-.436-1.637-.66-3.224-1.623-5.661-4.243-8.175-6.777-.265-.266-.529-.53-.801-.804-5.02-5.075-9.108-10.385-12.387-16.759-.222-.415-.443-.83-.671-1.258-3.594-7.005-4.164-14.522-3.895-22.277.258-4.757 1.256-8.687 3.824-12.77A86 86 0 0 1 476 414c.29-.4.58-.801.877-1.214 5.406-7.367 12.656-12.36 20.09-17.496.195-.136.195-.136 1.18-.82q1.109-.765 2.225-1.517c.332-.228.663-.456 1.005-.691.29-.197.58-.393.88-.595.884-.794 1.275-1.585 1.743-2.667.413-.22.825-.438 1.25-.664 4.923-2.703 9.324-5.887 13.75-9.336.165-.495.165-.495 1-3-1.32-.66-2.64-1.32-4-2-3.437-5.178-6.35-10.267-8.312-16.187-.16-.475-.318-.949-.482-1.437-3.005-9.597-3.659-21.133-1.522-31.024 1.76-6.756 4.546-12.255 9.316-17.352.246-.277.492-.554.746-.839 1.161-1.253 2.102-2.086 3.649-2.845 2.119-.417 4.139-.423 6.293-.378.415.004.83.009 1.26.013q1.525.02 3.052.049c7.374 5.805 11.74 11.566 15.25 20.25 1.82 4.59 2.878 8.8 3.066 13.734a1093 1093 0 0 1 .246 5.766q.066 1.49.131 2.98.16 3.635.307 7.27c.266-.17.531-.34.805-.516 12.537-8.015 25.98-13.936 41.006-14.632 21.438-.781 40.61 2.408 59.782 12.4.464.247.929.494 1.407.748q.009-.415.018-.844c.065-2.954.15-5.907.244-8.86q.05-1.644.084-3.288c.252-11.656 2.955-21.43 8.774-31.583 3.094-5.012 6.899-9.625 12.143-12.463 5.115-2.412 10.19-2.379 15.737-1.962m-124 63c-.282.145-.282.145-1.707.88-11.122 5.81-20.312 13.196-29.423 21.764a167 167 0 0 1-13.058 11.043c-.28.215-.56.43-.849.65-4.853 3.698-4.853 3.698-6.963 4.663 0 .66 0 1.32 0 2-.562.097-1.125.193-1.704.293-2.784.703-4.785 2.298-7.034 4.023-.444.335-.888.67-1.345 1.015q-1.407 1.065-2.806 2.14a421 421 0 0 1-4.226 3.187c-4.297 3.252-8.374 6.56-11.963 10.596-.28.312-.562.624-.85.946-2.163 2.564-3.12 5.177-3.758 8.445-.031.335-.063.67-.095 1.015-.038.384-.075.769-.114 1.165-.017.194-.017.194-.105 1.175-.048.39-.095.778-.145 1.18-.603 5.26.117 9.777 2.082 14.695 4.967 11.402 13.346 20.408 23.22 27.746 3.566 2.577 7.237 4.993 10.936 7.375 9.275 5.977 17.595 12.065 25.542 19.722C550.387 510.877 561.358 519.37 574 524c.22.083.22.083 1.334.5 12.614 4.452 29.338 4.225 42.377 1.809 3.863-.79 7.577-1.997 11.289-3.309.597-.198 1.194-.397 1.81-.601 13.09-4.407 24.843-11.683 36.428-19.086.336-.215.673-.43 1.02-.652.332-.212.664-.425 1.007-.644 9.992-6.382 20.172-11.37 31.298-15.517 11.515-4.3 21.823-9.837 31.437-17.5.363-.278.726-.556 1.1-.842 8.078-6.199 14.767-14.686 18.962-23.97 2.77-6.81 2.893-13.97 1.938-21.188-.742-4.33-2.306-7.831-5.01-11.292-8.28-9.728-18.694-14.923-30.428-19.458q-1.625-.642-3.25-1.285a558 558 0 0 0-17.312-6.48c-12.64-4.511-24.314-9.355-35.848-16.217-9.855-5.838-19.87-11.192-30.777-14.768-.36-.118-.72-.236-1.091-.358-8.233-2.66-16.641-4.565-25.284-5.142-.393-.029-.787-.057-1.192-.087-13.228-.835-27.06 2.023-38.808 8.087"/>
  <path fill="#d1cec8" d="M686.75 242.688c.343.002.686.004 1.04.006 9.44.094 17.865 2.035 26.128 6.696 11.874 7.148 21.432 16.982 28.241 29.024 2.659 5.016 4.696 10.247 6.511 15.614.318.937.647 1.87.976 2.803 5.199 15.344 5.577 35.32 2.624 51.231-.651 3.165-1.595 6.224-2.68 9.266-.611 1.732-1.135 3.476-1.653 5.238-2.82 9.159-7.477 16.662-12.937 24.434-.66 0-1.32 0-2 0-.33.66-.66 1.32-1 2-.368-.24-.737-.482-1.116-.73-5.57-3.426-11.508-5.362-17.697-7.395-1.574-.52-3.147-1.04-4.718-1.57q-1.455-.49-2.915-.961c-1.915-.644-3.312-1.138-4.865-2.457A537 537 0 0 1 700 375c.227-.411.453-.823.687-1.247 6.82-12.49 10.947-24.15 10.735-38.638-.278-9.444-2.385-19.468-7.172-27.678-3.258-5.142-7.868-9.624-13.2-12.601-3.017-1.41-6.128-1.278-9.394-1.14-4.334.38-8.086 1.826-11.656 4.304-5.011 3.924-7.976 9.42-10.812 15-.29.569-.58 1.138-.88 1.724-4.19 8.673-4.674 16.799-4.933 26.276q-.057 1.752-.117 3.504-.142 4.248-.258 8.496c-.13-.054-.13-.054-.788-.328q-4.11-1.71-8.227-3.407-1.53-.633-3.058-1.269c-5.57-2.318-11.054-4.566-16.927-5.996-1.144-2.755-1.176-5.3-1.203-8.234-.004-.255-.004-.255-.022-1.546-.216-20.251 2.802-38.553 12.842-56.416 6.148-10.35 14.536-19.657 25.055-25.63q1.471-.816 2.953-1.612c.308-.167.615-.335.932-.508 7.143-3.847 14.05-5.437 22.193-5.367"/>
  <path fill="#f7cf8a" d="M591.502 358.783c11.541-1.41 23.022 3.887 33.498 8.217 0 .66 0 1.32 0 2 .153.037.153.037.926.227 5.34 1.534 9.992 4.371 14.81 7.078 1.73.951 3.49 1.829 5.264 2.695 0 .66 0 1.32 0 2 .58.129 1.16.258 1.758.39 5.476 1.378 10.75 4.45 14.922 8.212 2.363 2.503 4.4 5.038 5.32 8.398.42 3.332.242 6.66 0 10-4.268 8.244-10.452 14.117-18.208 19.16-6.138 3.778-11.92 6.462-19.204 6.739-3.034.07-6.06.028-9.093-.055-2.056-.047-4.11-.048-6.167-.055a705 705 0 0 1-10.326-.13c-4.818-.095-9.635-.139-14.453-.171-28.27-.203-28.27-.203-39.549-1.488a991 991 0 0 1-4.852-3.57q-1.22-.9-2.443-1.791c-5.929-4.401-12.036-9.741-15.31-16.513-.722-2.058-.643-4.093-.582-6.251 0-.442 0-.884.001-1.34.03-2.15.104-3.634 1.186-5.535.66 0 1.32 0 2 0 .33-1.32.66-2.64 1-4 6.863-6.493 13.897-12.44 21.574-17.968a288 288 0 0 0 4.02-2.973c10.434-7.725 21.098-11.427 33.908-13.276"/>
  <path fill="#d2cec8" d="M534.47 256.268c7.204 1.88 13.282 6.61 18.53 11.732 5.584 5.844 9.416 12.815 13 20 .115.226.115.226.696 1.368 3.51 6.963 5.836 13.971 7.304 21.632.098.488.196.976.297 1.479 1.03 5.946.813 11.945.765 17.959q-.008 1.686-.013 3.373-.017 4.095-.049 8.189c-.498.216-.996.432-1.51.655q-2.845 1.239-5.686 2.488-1.215.534-2.435 1.062c-5.995 2.601-11.708 5.528-17.369 8.795-.01-.604-.019-1.207-.028-1.83-.41-22.551-.41-22.551-4.972-32.17-.18-.41-.36-.82-.547-1.242-2.858-6.412-6.938-10.502-12.453-14.758-9 0-9 0-11.25 1.188-2.981 1.822-4.918 3.84-6.75 6.812-3.972 7.482-6.386 15.034-6.313 23.563.002.17.002.17.007 1.038.11 11.027 2.383 21.181 7.743 30.887 1.767 2.976 3.79 5.402 6.563 7.512-.165.66-.165.66-1 4-1.98 1.485-1.98 1.485-12 9-1.65-.33-3.3-.66-5-1-7.512-9.686-13.048-19.38-16.75-31.062-.1-.313-.1-.313-.602-1.892-2.744-9.123-3.971-18.057-3.854-27.58.019-1.531.02-3.062.02-4.593.03-8.383.175-16.949 2.748-24.998.166-.529.332-1.057.502-1.602 1.589-4.76 3.694-9.232 5.936-13.71.167-.335.335-.67.507-1.015 2.957-5.873 6.049-11.783 11.118-16.11.334-.29.668-.58 1.012-.878 9.145-7.56 20.14-10.424 31.833-8.292"/>
  <path fill="#6b6b6b" d="M945.538 913.51c2.21.913 4.358 1.932 6.495 3.005 1.12.562 2.244 1.116 3.368 1.671a729 729 0 0 1 8.287 4.189c.222.112.222.112 1.346.68 9.83 5 19.758 11.616 26.286 20.707 1.556 2.479 2.571 4.865 2.805 7.81.028 1.737.012 3.465-.027 5.201-.007.6-.014 1.201-.022 1.82q-.027 2.203-.076 4.407-16.992.036-33.983.052-7.893.007-15.785.023-6.89.015-13.783.02-3.638 0-7.275.01c-11.434.034-22.772-.198-34.174-1.105q-.496-1.417-.983-2.835c-.182-.527-.365-1.053-.553-1.595-.678-2.294-.77-4.458-.765-6.836-.004-.478-.008-.956-.013-1.449q-.008-1.507-.002-3.015a238 238 0 0 0-.045-4.508c-.047-7.19.88-14.13 4.27-20.58 2.408-4.102 6.02-7.718 10.091-10.182 13.394-6.615 31.183-2.485 44.538 2.51"/>
  <path fill="#020201" d="M689 293c6.533 3.458 11.868 7.799 16 14 5.423 9.606 7.339 19.884 7.31 30.79-.182 14-4.663 25.145-11.31 37.21-10.942-1.736-19.377-6.127-28.89-11.56-5.927-3.38-11.96-6.48-18.11-9.44-.847-1.483-1.131-2.57-1.161-4.271-.01-.449-.02-.897-.03-1.358-.003-.484-.008-.967-.012-1.465a620 620 0 0 1-.037-4.762c-.01-1.61-.04-3.22-.072-4.832-.11-10.508 2.647-19.174 7.585-28.41 2.996-5.225 6.712-10.124 11.887-13.343 5.428-2.938 10.803-3.013 16.84-2.559"/>
  <path fill="#bdbec0" d="M868 641c.825.165.825.165 5 1 11.472 10.296 21.556 21.154 30.96 33.368a298 298 0 0 0 4.47 5.644c31.049 38.666 51.282 86.42 58.934 135.243 1.077 7.631.92 15.428.948 23.12.003.38.005.76.007 1.152.075 15.14-1.476 29.582-4.319 44.473a1337 1337 0 0 1-20.8-6.37q-2.6-.813-5.2-1.63c.166-.517.332-1.034.503-1.566 10.234-32.05 11.972-63.173 4.962-96.1-1.955-8.936-4.541-17.67-7.465-26.334-.141-.418-.282-.835-.427-1.266-12.556-36.915-33.912-72.666-62.452-99.54-2.279-2.177-4.09-4.173-5.121-7.194-.22-1.427-.104-2.544 0-4"/>
  <path fill="#f8d29b" d="M591.502 358.783c11.541-1.41 23.022 3.887 33.498 8.217 0 .66 0 1.32 0 2 .153.037.153.037.926.227 5.34 1.534 9.992 4.371 14.81 7.078 1.73.951 3.49 1.829 5.264 2.695 0 .66 0 1.32 0 2 .579.128 1.158.255 1.754.387 2.209.555 4.158 1.397 6.184 2.425q.515.26 1.044.525c2.968 1.539 5.536 3.42 8.018 5.663-.33 1.32-.66 2.64-1 4-4.95 0-9.9 0-15 0 0-.66 0-1.32 0-2-.66.33-.66.33-4 2 0-.66 0-1.32 0-2-.66.33-.66.33-4 2 0-.66 0-1.32 0-2-33.99 0-67.98 0-103 0 4.145-5.527 6.939-9.237 12.25-13.062a832 832 0 0 0 1.714-1.27 344 344 0 0 1 3.432-2.506 271 271 0 0 0 4.284-3.178c10.367-7.708 21.088-11.363 33.822-13.2"/>
  <path fill="#454545" d="M888 961c.605.03 1.21.06 1.833.09 14.96.722 29.892 1.01 44.866 1.008.426 0 .851 0 1.29 0q7.848-.004 15.696-.026 6.78-.015 13.56-.022 13.878-.016 27.755-.05c0 1.98 0 3.96 0 6a328 328 0 0 1-3.375 5.438c-.298.496-.596.993-.902 1.505-3.834 5.976-7.999 8.905-13.723 14.057-25.08 0-50.16 0-76 0-6.92-11.533-6.92-11.533-8.875-18.5q-.319-1.063-.64-2.125C888 963.391 888 963.391 888 961"/>
  <path fill="#f7cd76" d="M530 412c43.89 0 87.78 0 133 0 .33.33.33.33 2 2-4.089 4.552-8.31 8.476-13.5 11.75-.426.269-.852.538-1.29.815q-1.306.795-2.643 1.535c-1.567.9-1.567.9-3.002 1.92-3.624 2.274-6.84 3.188-11.132 3.383-3.742.12-7.486.082-11.229.036-2.074-.022-4.148-.021-6.222-.023q-5.226-.011-10.452-.06c-4.438-.04-8.876-.057-13.314-.067q-5.783-.013-11.564-.045-1.227-.006-2.454-.01c-9.107-.04-18.139-.172-27.198-1.234a991 991 0 0 1-4.852-3.57q-1.22-.9-2.443-1.791c-4.502-3.342-8.585-7.001-12.018-11.452-.163-.209-.163-.209-.988-1.269-.115-.151-.115-.151-.699-.918 0-.33 0-.66 0-1"/>
  <path fill="#020202" d="M525.688 303.938c.415.004.83.009 1.26.013q1.525.02 3.052.049c7.374 5.805 11.74 11.566 15.25 20.25 1.874 4.729 2.905 8.86 2.848 13.953-.002.483-.003.965-.005 1.463a972 972 0 0 1-.03 4.584q-.009 1.563-.014 3.125-.017 3.813-.049 7.625c-.163.12-.163.12-.987.728C538.15 362.3 529.977 369.38 522 377c-1.65-.66-3.3-1.32-5-2-6.311-8.71-10.613-17.591-11.85-28.38-.931-10.086-.787-19.733 3.186-29.236 1.692-3.527 4.002-6.54 6.664-9.384.246-.277.492-.554.746-.839 1.161-1.253 2.102-2.086 3.649-2.845 2.119-.417 4.139-.423 6.293-.378"/>
  <path fill="#da924f" d="M723.75 425.875c.307.009.307.009 1.86.055.458.023.917.046 1.39.07 0 1.98 0 3.96 0 6-.611.15-1.222.3-1.852.453-15.178 4.19-28.92 13.522-42.273 21.61C655.958 470.36 628.881 484.55 597 487c-.214.017-.214.017-1.3.105-14.097.98-30.577-2.13-43.266-8.168-15.015-7.336-28.574-16.807-40.649-28.328-4.36-4.146-9.083-7.862-13.785-11.609q-1.409-1.126-2.816-2.254c-.721-.576-1.442-1.152-2.184-1.746 0-2.31 0-4.62 0-7 4.652 1.274 7.443 2.845 10.875 6.188q1.298 1.216 2.598 2.433c.424.402.848.804 1.285 1.218 2.099 1.962 4.282 3.825 6.466 5.69 1.787 1.544 3.461 3.156 5.112 4.846C532.88 462.01 549.834 471.169 568 477c.428.14.856.28 1.297.425 7.834 2.462 16.552 2.403 24.703 2.575.551.012 1.103.024 1.67.037 25.097.163 50.12-12.603 71.414-24.65 6.265-3.572 12.44-7.297 18.62-11.012q3.615-2.172 7.24-4.331a936 936 0 0 0 4.131-2.49c5.746-3.446 11.598-6.355 17.742-9.02 1.465-.661 2.885-1.395 4.3-2.156 1.531-.655 2.993-.566 4.633-.503"/>
  <path fill="#8c8b8b" d="M944.398 913.133c2.94 1.143 5.775 2.471 8.602 3.867q.93.453 1.859.906A650 650 0 0 1 967 924c0 .99 0 1.98 0 3q-2 2-4 4a10717 10717 0 0 0-19.299.34q-4.48.082-8.961.157-4.328.072-8.657.156-1.647.03-3.295.056-2.315.037-4.63.086c-.225.003-.225.003-1.363.017-2.641.06-5.09.378-7.666.974-1.866.353-3.67.231-5.555.093-.392-.024-.785-.047-1.189-.072-1.233-.075-2.465-.16-3.697-.245q-1.268-.08-2.534-.158-3.078-.193-6.154-.404c-.33-.33-.66-.66-1-1 0-6.058 0-6.058 1.42-8.54 2.763-4.668 5.83-8.689 10.58-11.46 13.225-6.453 30.15-2.565 43.398 2.133"/>
  <path fill="#595959" d="M992 948c.33.33.33.33 2 2 0 4.29 0 8.58 0 13q-16.992.035-33.983.052-7.893.007-15.785.023-6.89.015-13.783.02-3.638 0-7.275.01c-11.434.034-22.772-.198-34.174-1.105q-.502-1.408-.992-2.82c-.184-.524-.369-1.047-.558-1.587-.63-2.231-.633-4.297-.45-6.593 4.897-1.277 9.725-1.134 14.747-1.114q1.479 0 2.958 0 3.998.001 7.995.013c2.79.006 5.579.006 8.368.008q7.916.005 15.83.021 9.015.016 18.03.022 18.535.016 37.072.05c0-.66 0-1.32 0-2"/>
  <path fill="#f7ce85" d="M545.288 402.87q.497-.002 1.01-.005a507 507 0 0 1 3.401.002q1.252 0 2.505-.004 3.498-.003 6.998.008 2.228.006 4.457.007c34.781.03 69.564.63 104.341 1.122-.115.939-.243 1.876-.375 2.812-.07.523-.14 1.045-.21 1.583C667 410 667 410 665 413c-22.275-.165-22.275-.165-135-1-.66-.99-1.32-1.98-2-3 0-1.65 0-3.3 0-5 .353.005.706.01 1.07.016q2.403.029 4.805.046c.556.009 1.111.017 1.684.026.535.003 1.07.006 1.62.01.493.005.985.01 1.492.016C540 404 540 404 540.878 403.5c1.515-.677 2.75-.628 4.41-.63"/>
  <path fill="#f9dab5" d="M591.356 358.83c11.704-1.325 23.015 3.777 33.644 8.17 0 .66 0 1.32 0 2 .317.075.634.15.96.227 5.544 1.561 10.207 4.724 15.04 7.773 0 .33 0 .66 0 1q-17.5 0-35 0c-.537.01-1.075.02-1.628.031-1.613-.036-2.847-.523-4.372-1.031-1.716-.143-2.862-.046-4.5.5s-2.784.643-4.5.5c-.454-.186-.908-.371-1.375-.562-1.683-.454-2.238-.386-3.875 0-5.293 1.216-10.567.556-15.855-.317-1.799-.115-3.034.144-4.746.637-2.426.511-4.931.343-7.399.305A611 611 0 0 1 552 378c2.6-3.61 5.21-6.18 9-8.501.476-.295.951-.59 1.441-.893 9.196-5.53 18.344-8.456 28.915-9.776"/>
  <path fill="#f6cc6b" d="M541 420c2 1 2 1 2 1Zm114 0c.99.33 1.98.66 3 1a397 397 0 0 1-4.375 3.188c-.393.291-.786.583-1.191.884a71 71 0 0 1-3.523 2.347q-.923.59-1.827 1.204c-4.03 2.683-7.977 4.411-12.84 4.823-4.077.225-8.162.16-12.242.094-2.07-.028-4.138-.028-6.207-.03q-5.208-.016-10.416-.078c-4.86-.057-9.719-.08-14.578-.095-3.818-.014-7.636-.039-11.453-.064-.401-.002-.802-.004-1.215-.007-9.096-.057-18.08-.276-27.133-1.266-3.96-2.97-7.92-5.94-12-9 0-.66 0-1.32 0-2 .586 0 1.171.002 1.775.003a50294 50294 0 0 0 47.853.053q8.271.007 16.544.021 8.484.014 16.97.017 4.767 0 9.534.012 4.485.01 8.968.007 1.649 0 3.297.006 2.246.007 4.49.001c.438.003.876.006 1.327.01.401-.003.802-.005 1.216-.007.345 0 .69 0 1.047.001 1.155-.146 1.97-.555 2.979-1.124"/>
  <path fill="#7e7e7e" d="M967 925c3.692 1.3 6.809 2.994 10 5.25.434.304.869.609 1.316.922 3.546 2.565 6.118 5.308 8.684 8.828-8.435 1.35-16.947 1.13-25.461 1.101-2.134-.006-4.268-.006-6.402-.008q-6.04-.005-12.08-.021-6.885-.016-13.77-.022-14.144-.016-28.287-.05c0-.99 0-1.98 0-3-4.29 0-8.58 0-13 0 0-2.97 0-5.94 0-9 .66.66 1.32 1.32 2 2 7.26.33 14.52.66 22 1 .33-.33.66-.66 1-1 16.5-.33 33-.66 50-1 .33-.99.66-1.98 1-3 .99 0 1.98 0 3 0 0-.66 0-1.32 0-2"/>
  <path fill="#232323" d="M893 978c30.69 0 61.38 0 93 0-6 7-6 7-11 11-25.08 0-50.16 0-76 0-1.98-3.3-3.96-6.6-6-10 0-.33 0-.66 0-1"/>
  <path fill="#363636" d="M890 969c.159.015.159.015.961.09 10.685.966 21.306 1.045 32.026 1.011 2.401-.006 4.802-.006 7.203-.008q6.783-.005 13.567-.021 7.737-.016 15.475-.022 15.885-.016 31.768-.05-.966 1.72-1.937 3.438c-.183.325-.365.65-.553.986-.753 1.328-1.425 2.491-2.51 3.576-11.534.76-23.008 1.145-34.566 1.101-1.998-.006-3.996-.006-5.993-.008q-5.625-.005-11.25-.021a8649 8649 0 0 0-12.85-.022q-13.17-.015-26.341-.05-.732-.688-1.454-1.386-.403-.384-.818-.78c-1.82-2.087-2.085-5.21-2.728-7.834"/>
  <path fill="#565656" d="M680.906 300.61c2.237.379 4.044.948 5.934 2.242 2.56 2.533 4.73 5.84 6.16 9.148 1 4 1 4 1 14-11.22 0-22.44 0-34 0 0-9.296 0-9.296 1.688-12.625.179-.373.358-.747.543-1.131 1.758-3.5 3.82-6.622 6.769-9.244 4.29-2.677 7.044-3.094 11.906-2.39"/>
  <path fill="#f7d195" d="M663 391c.66.825.66.825 4 5 0 .66 0 1.32 0 2q-12.804.035-25.609.052-5.946.007-11.891.023-5.184.015-10.367.02-2.744 0-5.487.01c-2.045.009-4.089.009-6.133.009-.302.001-.302.001-1.827.01-3.103-.007-5.703-.297-8.686-1.124-1.653-.114-1.653-.114-3.299-.098-.627.004-1.255.007-1.902.01a439 439 0 0 1-4.214.038q-2.31.012-4.62.032c-4.055.032-8.11.044-12.164.05-.41 0-.82 0-1.242 0-8.443.007-16.872-.21-25.309-.532-.63-.024-1.26-.048-1.91-.073q-5.17-.2-10.34-.427c.99-1.32 1.98-2.64 3-4q20.21-.035 40.42-.052 9.385-.007 18.77-.023 8.18-.015 16.36-.02 4.33 0 8.661-.01 4.079-.011 8.158-.008 1.494 0 2.988-.006c9.13-.034 9.13-.034 12.723.898 1.626.39 3.263.27 4.92.221a760 760 0 0 1 3.453 0c.619 0 1.238 0 1.875 0q4.335 0 8.672 0c.33-.66.66-1.32 1-2"/>
  <path fill="#f8d5a9" d="M577.007 376.593c3.772.321 7.307.612 11.024-.344 1.364-.35 2.571-.376 3.969-.249q1.5.5 3 1c1.716.143 2.862.046 4.5-.5 1.624-.541 2.8-.648 4.5-.5.144.083.144.083.873.503 1.571.693 2.881.601 4.595.579.345-.003.69-.006 1.046-.01a396 396 0 0 0 2.242-.027q1.779-.025 3.558-.036 5.057-.037 10.113-.105 3.096-.04 6.193-.055 1.175-.009 2.351-.03c6.896-.121 6.896-.121 9.541 1.191.491.327.982.653 1.488.99 0 .66 0 1.32 0 2 1.32.33 2.64.66 4 1 .33.33.33.33 2 2-34.98 0-69.96 0-106 0 1.65-2.31 3.3-4.62 5-7 .892.012 1.784.023 2.703.035q1.774.015 3.547.027c.587.009 1.173.017 1.777.026 2.803.016 5.125-.095 7.824-.899 3.282-.54 6.848.116 10.156.404"/>
  <path fill="#f7cd71" d="M534 416q32.5 0 65 0c.522-.01 1.045-.02 1.583-.031 1.636.036 2.87.516 4.417 1.031 2.024.09 3.83-.123 5.813-.5 5.998-.922 12.136-.582 18.187-.5.165.165.165.165 1 1 4.95.165 4.95.165 30 1-.33.66-.66 1.32-1 2-5.574 2.61-11.219 2.27-17.238 2.227q-1.701 0-3.401 0c-3.064.002-6.128-.01-9.191-.024-3.207-.013-6.414-.014-9.621-.016q-8.068-.009-16.135-.036-8.305-.029-16.61-.041c-.342 0-.684-.001-1.036-.002q-2.574-.003-5.147-.007-21.31-.033-42.621-.101c-1.32-1.32-2.64-2.64-4-4 0-.66 0-1.32 0-2"/>
  <path fill="#f7cd5b" d="M553 432c26.4 0 52.8 0 80 0 .99.66 1.98 1.32 3 2-5.79 3.829-11.836 5.986-18.755 6.472-7.556.382-15.123.277-22.685.173-2.341-.023-4.682-.02-7.024-.01-2.93.012-5.86 0-8.79-.022q-1.847-.011-3.692-.007c-10.487.005-10.487.005-14.233-1.884-3.135-1.826-5.196-4.097-7.821-6.722"/>
  <path fill="#4d4d4d" d="M994 957c0 1.98 0 3.96 0 6q-16.992.036-33.983.052-7.893.007-15.785.023-6.89.015-13.783.02-3.638 0-7.275.01c-11.434.034-22.772-.198-34.174-1.105-.33-1.32-.66-2.64-1-4 1.98 0 3.96 0 6 0 .33-.33.66-.66 1-1 71.24-1.618 71.24-1.618 99 0"/>
  <path fill="#f7ce7e" d="M668 406c-.66 1.98-1.32 3.96-2 6-3.375 1.125-3.375 1.125-5.446 1.107-.235 0-.235 0-1.422-.004-.509-.007-1.018-.014-1.542-.02-.273-.002-.273-.002-1.654-.01q-2.742-.021-5.486-.051-1.965-.015-3.932-.03-4.233-.03-8.466-.071-6.12-.058-12.241-.105-9.93-.078-19.861-.168-9.645-.087-19.291-.166c-.198-.001-.198-.001-1.202-.01q-2.983-.024-5.967-.048A67039 67039 0 0 1 530 412c-.66-1.65-1.32-3.3-2-5 .7 0 1.398.002 2.118.003a71658 71658 0 0 0 55.878.052c.406 0 .812 0 1.23 0q9.873.008 19.745.022 10.126.014 20.252.017 6.252.002 12.502.014 4.284.007 8.567.006 2.473-.002 4.947.005 2.678.007 5.357.001c.524.003 1.047.006 1.586.01.478-.003.956-.005 1.448-.007.412 0 .825 0 1.25.001 1.974-.219 3.017-1.124 5.12-1.124"/>
  <path fill="#141414" d="M902 988c23.43 0 46.86 0 71 0-2 4-2 4-8 8-20.13 0-40.26 0-61 0-1.65-1.98-3.3-3.96-5-6 .99-.66 1.98-1.32 3-2"/>
  <path fill="#373737" d="M659 322c.33 1.32.66 2.64 1 4 11.22 0 22.44 0 34 0-1 10-1 10-5 16-8.91 0-17.82 0-27 0-2.775-6.937-3.147-12.665-3-20"/>
  <path fill="#f8d3a1" d="M547 380c.66.33 1.32.66 2 1-.66.66-1.32 1.32-2 2 34.98 0 69.96 0 106 0 1.65.99 3.3 1.98 5 3-.33.99-.66 1.98-1 3-24.327.082-48.645-.124-72.97-.445q-7.067-.093-14.135-.182-14.447-.182-28.895-.373c1.98-2.64 3.96-5.28 6-8"/>
  <path fill="#fadebe" d="M591.167 358.874c8.994-.943 16.59 1.605 24.927 4.618.335.121.67.242 1.015.367 2.387.89 4.627 1.973 6.891 3.141-.33.99-.66 1.98-1 3-17.82.33-35.64.66-54 1-.33-1.32-.66-2.64-1-4 1.72-2.062 3.143-3.19 5.672-4.133q1.533-.512 3.078-.992c.27-.086.27-.086 1.639-.52 4.307-1.332 8.316-1.998 12.778-2.481"/>
  <path fill="#646464" d="M990 944c.33.165.33.165 2 1 0 1.65 0 3.3 0 5a164 164 0 0 1-19.856 1.114q-1.406 0-2.812 0-3.765-.001-7.53-.013c-2.635-.006-5.27-.006-7.907-.008q-7.462-.005-14.927-.021-8.506-.016-17.013-.022-17.478-.016-34.955-.05c0-1.65 0-3.3 0-5 33.99 0 67.98 0 103 0 0-.66 0-1.32 0-2"/>
  <path fill="#6c6c6c" d="M525.688 308.438c.622.101 1.245.203 1.886.308 1.426.254 1.426.254 2.38.996 3.855 3.368 5.631 7.043 7.331 11.809.903 2.833 1.147 5.498.715 8.449-8.38.154-16.65-.31-25-1-.555-10.667-.555-10.667 1.313-14.5 1.327-2.163 2.696-3.924 4.687-5.5 2.415-1.066 4.107-1 6.688-.562"/>
  <path fill="#f7cf8f" d="M537 388c.66.33 1.32.66 2 1-1.98 1.98-3.96 3.96-6 6q8.28.261 16.563.5c.412.012.825.024 1.25.036 12.335.352 24.66.558 37 .526.339 0 .678-.001 1.027-.002A2684 2684 0 0 0 601 396c0 .66 0 1.32 0 2 21.78 0 43.56 0 66 0 0 .66 0 1.32 0 2a36203 36203 0 0 1-16.956.573 10831 10831 0 0 1-8.13.275c-.6.02-1.2.04-1.82.06-.526.018-1.052.036-1.594.054-2.936.074-5.873.029-8.809 0-.427-.004-.855-.008-1.295-.012q-2.142-.021-4.283-.042a128844 128844 0 0 0-11.418-.11q-4.36-.042-8.72-.084a454851 454851 0 0 1-35.309-.34Q549.333 400.185 530 400c.33-1.98.66-3.96 1-6 1.98-1.98 3.96-3.96 6-6"/>
  <path fill="#a1a1a1" d="M932 909.875c.423.087.846.174 1.282.263q1.83.383 3.655.792c.366.077.73.154 1.107.234 2.37.548 4.006 1.376 5.956 2.836-.66 1.32-1.32 2.64-2 4-2.269 1.134-3.987 1.134-6.45 1.114-.449 0-.898 0-1.36 0-1.483 0-2.965-.009-4.448-.016q-1.543-.003-3.085-.005a3031 3031 0 0 1-8.118-.024q-4.142-.014-8.285-.02-8.127-.016-16.254-.049.468-.965.941-1.927c.175-.358.35-.716.53-1.085.965-1.803 2.24-2.837 3.865-4.039 10.407-5.936 21.49-4.39 32.664-2.074"/>
  <path fill="#3e3e3e" d="M889 965c.273.036.273.036 1.653.215 9.715 1.13 19.479.914 29.242.886 2.577-.006 5.154-.006 7.731-.008q7.293-.005 14.587-.021 8.314-.016 16.629-.022 17.079-.016 34.158-.05c-.66 1.32-1.32 2.64-2 4a137 137 0 0 1-17.713 1.145q-1.242.005-2.483.01-3.324.014-6.65.012-2.085.002-4.17.006-7.298.014-14.594.012-6.77.001-13.54.026-5.844.019-11.69.018-3.476-.002-6.953.013-3.268.014-6.536.003-1.19-.003-2.38.007c-5.086.036-9.475-.578-14.291-2.252-.33-1.32-.66-2.64-1-4"/>
  <path fill="#f7cc61" d="M548 427q9.03-.047 18.063-.062c.463-.001.927-.002 1.404-.003 17.911-.03 35.813.22 53.72.565A12990 12990 0 0 1 646 428c-5.234 4.176-5.234 4.176-8 5-2.418.276-4.826.264-7.256.243q-1.097.001-2.195.006c-1.98.005-3.96-.003-5.939-.013-2.085-.01-4.17-.007-6.255-.007q-5.26-.002-10.523-.023-6.041-.023-12.082-.02-6.475-.001-12.95-.016-1.842-.003-3.684-.003c-8.75-.006-17.414-.132-26.116-1.167-1.32-1.32-2.64-2.64-4-4 .33-.33.66-.66 1-1"/>
  <path fill="#989898" d="M944 914c5.783 1.73 10.894 3.766 16 7 0 .66 0 1.32 0 2-9.24 0-18.48 0-28 0-.33.66-.66 1.32-1 2-13.2 0-26.4 0-40 0 .99-1.65 1.98-3.3 3-5 0-.33 0-.66 0-1 7.59-.165 7.59-.165 46-1 1.32-1.32 2.64-2.64 4-4"/>
  <path fill="#767676" d="M981 934c1.98 1.65 3.96 3.3 6 5-1.92 1.26-3.38 1.932-5.679 2.184-2.103.062-4.199.064-6.302.043q-1.213 0-2.426 0c-2.186.002-4.371-.01-6.557-.024-2.287-.013-4.575-.014-6.862-.016q-6.492-.011-12.983-.043c-4.93-.022-9.858-.033-14.786-.043Q916.203 941.069 901 941c0-.99 0-1.98 0-3-4.29 0-8.58 0-13 0 0-.33 0-.66 0-1q11.766-.2 23.531-.391 5.469-.09 10.938-.182c19.512-.333 39.015-.502 58.531-.427 0-.66 0-1.32 0-2"/>
  <path fill="#191919" d="M512 322c.33 0 .66 0 1 0 0 2.31 0 4.62 0 7 .883-.012 1.766-.023 2.676-.035 7.51-.067 14.862.182 22.324 1.035.03 1.77.047 3.542.063 5.313.008.499.016.999.025 1.513.017 2.594-.037 4.749-1.088 7.174-.742.494-.742.494-2 1a55 55 0 0 1-4.133.098c-.397-.002-.793-.003-1.202-.005a670 670 0 0 1-3.79-.03q-1.287-.009-2.574-.014-3.15-.017-6.301-.049c-2.126-3.199-3.53-6.025-4.187-9.812-.08-.427-.161-.854-.244-1.293-.695-3.984-.772-7.86-.569-11.895"/>
  <path fill="#2e2e2e" d="M960.25 973.938c.343 0 .686 0 1.04 0q13.355.018 26.71.062c-.66 1.32-1.32 2.64-2 4-11.534.76-23.008 1.145-34.566 1.101-1.998-.006-3.996-.006-5.993-.008q-5.625-.005-11.25-.021a8649 8649 0 0 0-12.85-.022q-13.17-.015-26.341-.05c-.99-.99-1.98-1.98-3-3 0-.33 0-.66 0-1 4.75-.187 9.5-.35 14.25-.5.376-.012.752-.024 1.14-.036 17.618-.548 35.236-.549 52.86-.527"/>
  <path fill="#7d7d7d" d="M680.902 300.602c2.275.384 4.08 1.065 6 2.367 2.151 2.02 3.628 4.493 5.098 7.031 0 1.32 0 2.64 0 4-9.57 0-19.14 0-29 0 .89-4.453 1.16-5.752 3.839-8.887 4.058-4.466 8.393-5.316 14.063-4.511"/>
  <path fill="#545454" d="M993 950c.33 0 .66 0 1 0 0 2.31 0 4.62 0 7-.518-.002-1.035-.004-1.568-.007-24.734-.102-49.46-.08-74.19.413q-2.424.046-4.848.091-3.814.071-7.627.156-1.395.03-2.792.056-1.908.037-3.816.086c-.366.005-.731.011-1.107.017-2.478.07-4.664.52-7.052 1.188-.99-.33-1.98-.66-3-1-.33-1.65-.66-3.3-1-5 .231.007.231.007 1.4.045 6.18.194 12.358.363 18.538.518.509.012 1.018.025 1.543.038 18.996.466 37.96.341 56.957-.038.32-.007.32-.007 1.943-.04q11.81-.237 23.619-.523c.66-.99 1.32-1.98 2-3"/>
  <path fill="#f6cd7a" d="M530 412c43.89 0 87.78 0 133 0 .33.33.33.33 2 2-.33.33-.66.66-1 1q-15.25.047-30.5.063c-.383 0-.765 0-1.16 0a4077 4077 0 0 1-73.653-.563c-.176-.003-.176-.003-1.07-.018Q544.309 414.258 531 414c-.33-.66-.66-1.32-1-2"/>
  <path fill="#f9d7b0" d="M556 373c.743.013 1.487.025 2.253.038q10.61.179 21.221.353 5.452.09 10.905.182 4.765.08 9.53.158 2.51.04 5.023.084a1344 1344 0 0 0 26.589.188Q633.76 374 636 374c1.65 1.32 3.3 2.64 5 4q-17.5 0-35 0c-.537.01-1.075.02-1.628.031-1.613-.036-2.847-.523-4.372-1.031-1.716-.143-2.862-.046-4.5.5s-2.784.643-4.5.5c-.227-.093-.227-.093-1.375-.562-1.683-.454-2.238-.386-3.875 0-5.293 1.216-10.567.556-15.855-.317-1.799-.115-3.034.144-4.746.637-2.426.511-4.931.343-7.399.305A736 736 0 0 1 552 378c1.32-1.651 2.64-3.301 4-5.001"/>
  <path fill="#f7cc67" d="M541 424q7.302-.035 14.605-.052 3.391-.007 6.782-.023 3.278-.016 6.556-.02 1.245-.003 2.49-.01c7.33-.047 7.33-.047 9.986.607 3.666.87 7.49.606 11.233.573q2.227-.019 4.453-.024c3.698-.013 7.396-.037 11.094-.061a2974 2974 0 0 1 10.84-.053c.505-.001 1.01-.003 1.53-.004 9.834-.02 19.62.403 29.431 1.067-.66.66-1.32 1.32-2 2-33.99 0-67.98 0-103 0-1.32-1.32-2.64-2.64-4-4"/>
  <path fill="#1b1b1b" d="M896 984c27.72 0 55.44 0 84 0-1.65 1.65-3.3 3.3-5 5-25.08 0-50.16 0-76 0-.99-1.65-1.98-3.3-3-5"/>
  <path fill="#1c2814" d="M0 1445c.33 0 .66 0 1 0 .034.614.069 1.228.104 1.86 1.288 21.813 1.288 21.813 5.486 28.242q.697.954 1.41 1.898c.227.325.454.649.688.983 3.552 5.026 7.97 8.075 13.312 11.017 0 .33 0 .66 0 1-7.26 0-14.52 0-22 0 0-14.85 0-29.7 0-45"/>
  <path fill="#7a7a7a" d="M977 931c1.32.66 2.64 1.32 4 2 0 .99 0 1.98 0 3q-8.625.27-17.25.5c-.442.012-.885.024-1.34.036-16.992.451-33.976.551-50.972.527-.587-.001-1.174-.002-1.778-.003q-10.83-.016-21.66-.06c0-.66 0-1.32 0-2q6.756-.198 13.512-.391 3.138-.09 6.277-.182c9.072-.267 18.134-.518 27.211-.427.33-.33.66-.66 1-1 13.53 0 27.06 0 41 0 0-.66 0-1.32 0-2"/>
  <path fill="#868686" d="M889 925c.33.66.66 1.32 1 2 11.88 0 23.76 0 36 0 0 .33 0 .66 0 1 12.21 0 24.42 0 37 0 0 .99 0 1.98 0 3a10717 10717 0 0 0-19.299.34q-4.48.082-8.961.157-4.328.072-8.657.156-1.647.03-3.295.056-2.315.037-4.63.086c-.45.005-.9.011-1.363.017-2.641.06-5.09.378-7.666.974-1.866.353-3.67.231-5.555.093-.392-.024-.785-.047-1.189-.072-1.233-.075-2.465-.16-3.697-.245q-1.268-.08-2.534-.158-3.078-.193-6.154-.404c-.33-.33-.66-.66-1-1 0-1.98 0-3.96 0-6"/>
  <path fill="#f9ddbb" d="M571 364c.287.162.574.324.87.49 1.183.534 1.931.643 3.217.661.412.009.825.017 1.25.026.223.002.223.002 1.356.012a765 765 0 0 0 4.532.07q2.445.034 4.892.078 5.19.088 10.383.163 6.015.089 12.031.192 2.412.038 4.823.068 1.476.024 2.953.05c.224.003.224.003 1.357.013.412.009.824.017 1.249.026.357.005.714.01 1.081.015 1.164.157 1.989.562 3.006 1.136-.33.99-.66 1.98-1 3-17.82.33-35.64.66-54 1-.33-1.32-.66-2.64-1-4 .99-.99 1.98-1.98 3-3"/>
  <path fill="#6e6e6e" d="M887 933c.33 0 .66 0 1 0 0 1.65 0 3.3 0 5 4.29 0 8.58 0 13 0 .66.66 1.32 1.32 2 2 26.4 0 52.8 0 80 0 0 .99 0 1.98 0 3q-14.79.036-29.577.052-6.87.007-13.74.023-6.002.015-12.005.02-3.165 0-6.33.01c-11.485.04-22.887-.352-34.348-1.105 0-2.97 0-5.94 0-9m97 7c2 1 2 1 2 1Z"/>
  <path fill="#0b0b0b" d="M901 992q11.11-.035 22.22-.052 5.16-.007 10.32-.023 4.99-.017 9.98-.02 1.893-.003 3.787-.01c6.97-.03 13.787.108 20.693 1.105-.99.99-1.98 1.98-3 3-20.13 0-40.26 0-61 0-.99-1.32-1.98-2.64-3-4"/>
  <path fill="#282828" d="M692 334c0 .99 0 1.98 0 3-.99 1.65-1.98 3.3-3 5-8.91 0-17.82 0-27 0-.66-2.31-1.32-4.62-2-7 10.56-.33 21.12-.66 32-1"/>
  <path fill="#494949" d="M923.493 959.899c2.454.006 4.908.006 7.362.008q6.933.005 13.864.021 7.91.016 15.817.022 16.233.016 32.464.05c0 .99 0 1.98 0 3q-16.796.036-33.592.052-7.802.007-15.603.023-6.812.015-13.625.02-3.596 0-7.191.01C911.616 963.14 900.34 962.9 889 962c0-.33 0-.66 0-1 11.508-.994 22.948-1.137 34.493-1.101"/>
  <path fill="#828282" d="M529 309c1.65 1.65 3.3 3.3 5 5 .33 1.98.66 3.96 1 6-6.93 0-13.86 0-21 0 .33-2.31.66-4.62 1-7 3.542-3.786 3.542-3.786 5.406-4.656 2.921-.63 5.678.16 8.594.656"/>
  <path fill="#1f1f1f" d="M895 982c28.71 0 57.42 0 87 0-.33.66-.66 1.32-1 2q-6.405.277-12.812.5c-.337.012-.673.024-1.02.036-15.22.53-30.44.549-45.668.527A9320 9320 0 0 1 898 985c-.99-.991-1.98-1.981-3-3.001"/>
  <path fill="#5c5c5c" d="M888 950c32.67 0 65.34 0 99 0 .165.33.165.33 1 2q-15.687.303-31.375.563c-.384.006-.768.012-1.163.019-37.982.63-37.982.63-55.65-.02-.349-.012-.698-.025-1.058-.038A741 741 0 0 1 887 952c.33-.66.66-1.32 1-2"/>
  <path fill="#929292" d="M956 919c1.32.66 2.64 1.32 4 2 0 .66 0 1.32 0 2-9.24 0-18.48 0-28 0-.33.66-.66 1.32-1 2-13.2 0-26.4 0-40 0 .33-.66.66-1.32 1-2 6.364-.744 12.593-1.14 19-1 .33-.33.66-.66 1-1 14.52 0 29.04 0 44 0 0-.66 0-1.32 0-2"/>
  <path fill="#727272" d="M962.05 937.877q1.596-.004 3.192-.01c7.316-.024 14.511.059 21.758 1.133-1.92 1.26-3.38 1.932-5.679 2.184-2.103.062-4.199.064-6.302.043q-1.213 0-2.426 0c-2.186.002-4.371-.01-6.557-.024-2.287-.013-4.575-.014-6.862-.016-4.328-.006-8.656-.023-12.983-.043-4.93-.022-9.858-.033-14.786-.043Q916.203 941.068 901 941c0-.66 0-1.32 0-2 40.8-1.103 40.8-1.103 61.05-1.123"/>
  <path fill="#505050" d="M994 957c0 .33 0 .66 0 1-4.124.191-8.249.354-12.375.5-.335.012-.67.024-1.017.036-18.217.633-36.445.547-54.67.527-.38 0-.761-.001-1.153-.002Q909.893 959.045 895 959c0-.66 0-1.32 0-2 71.24-1.618 71.24-1.618 99 0"/>
  <path fill="#414141" d="M993 965c0 .33 0 .66 0 1-23.405.621-46.806 1.107-70.22 1.123q-2.28.004-4.56.01-3.615.008-7.23.001-1.315 0-2.629.002c-6.177.013-12.225-.425-18.361-1.136 0-.33 0-.66 0-1 34.387-.928 68.617-1.226 103 0"/>
  <path fill="#676767" d="M988 941c.33.165.33.165 2 1 0 1.32 0 2.64 0 4q-11.406.31-22.812.563c-.287.006-.287.006-1.74.038-18.745.41-37.453.387-56.198-.038-.283-.007-.283-.007-1.713-.04Q897.267 946.29 887 946c0-.33 0-.66 0-1 33.33-.66 66.66-1.32 101-2 0-.66 0-1.32 0-2"/>
  <path fill="#3e3e3e" d="M512 322c.33 0 .66 0 1 0 0 2.31 0 4.62 0 7 .883-.012 1.766-.023 2.676-.035 7.51-.067 14.862.182 22.324 1.035 0 1.98 0 3.96 0 6q-4.858.037-9.717.055-1.653.008-3.305.02a976 976 0 0 1-4.751.023c-.493.005-.986.01-1.494.015-.46 0-.92 0-1.395 0-.202.002-.202.002-1.224.007-1.233-.133-2.047-.504-3.114-1.12-1.167-4.335-1.1-8.552-1-13"/>
  <path fill="#272727" d="M893 978c29.04 0 58.08 0 88 0-.33.66-.66 1.32-1 2q-12.61.234-25.223.443-5.859.096-11.718.205c-33.635.628-33.635.628-49.059-.648-.33-.66-.66-1.32-1-2"/>
  <path fill="#f6ce55" d="M560 436q3.5 0 7 0c.54-.01 1.08-.02 1.637-.031 1.608.037 2.842.524 4.363 1.031 1.716.143 2.862.046 4.5-.5 1.663-.554 2.743-.531 4.5-.5q1.35.001 2.7 0 4.15 0 8.3 0c.165.165.165.165 1 1 4.95.165 4.95.165 30 1-.66.66-1.32 1.32-2 2q-11.24.07-22.48.104-5.219.014-10.438.047-5.038.032-10.076.039-1.92.004-3.842.021c-1.795.015-3.59.017-5.386.016-.264.004-.264.004-1.6.022-2.446-.014-4.327-.165-6.54-1.263-.54-.326-1.08-.65-1.638-.986 0-.66 0-1.32 0-2"/>
  <path fill="#606060" d="M888 948c34.32 0 68.64 0 104 0 0 .66 0 1.32 0 2a164 164 0 0 1-19.856 1.114q-1.406 0-2.812 0-3.765-.001-7.53-.013c-2.635-.006-5.27-.006-7.907-.008q-7.462-.005-14.927-.021-8.506-.016-17.013-.022-17.478-.016-34.955-.05c.33-.99.66-1.98 1-3"/>
  <path fill="#323232" d="M891 972q13.25-.045 26.5-.062c.655-.001 1.31-.002 1.984-.003 17.72-.02 35.427.07 53.141.565.429.012.857.024 1.299.036q7.539.212 15.076.464c0 .33 0 .66 0 1q-12.437.26-24.875.5c-.617.012-1.235.024-1.87.036-17.565.336-35.124.56-52.692.527-.456-.001-.91-.002-1.38-.003q-8.091-.016-16.183-.06c-.33-.99-.66-1.98-1-3"/>
  <path fill="#6f6f6f" d="M662 312c.33.66.66 1.32 1 2 9.57 0 19.14 0 29 0 .33-.66.66-1.32 1-2 0 1.98 0 3.96 0 6-.33.33-.66.66-1 1-10.23 0-20.46 0-31 0 .33-2.31.66-4.62 1-7"/>
  <path fill="#101010" d="M899 989c.385.036.385.036 2.332.219 7.788.688 15.487.877 23.302.8a1257 1257 0 0 1 10.061-.05c.171 0 .171 0 1.035-.002 11.764-.01 23.519.51 35.27 1.033-.66.66-1.32 1.32-2 2-21.78 0-43.56 0-66 0-1.32-1.32-2.64-2.64-4-4"/>
  <path fill="#f6c65b" d="M946 1152c1.65 0 3.3 0 5 0-.33.165-.33.165-2 1 0 .66 0 1.32 0 2-.66 0-1.32 0-2 0 0 .66 0 1.32 0 2-.66 0-1.32 0-2 0 0 .66 0 1.32 0 2-.66 0-1.32 0-2 0 0 .66 0 1.32 0 2-.66 0-1.32 0-2 0 0 .66 0 1.32 0 2-1.238.763-2.038 1.002-3.508 1.098-.533-.012-1.067-.024-1.617-.035-.539-.01-1.078-.019-1.633-.028-.41-.011-.82-.023-1.242-.035-.66-.66-1.32-1.32-2-2-3.63 0-7.26 0-11 0 2.027-4.054 2.576-4.717 6-7 1.65 0 3.3 0 5 0 .33-.66.66-1.32 1-2 .66 0 1.32 0 2 0 .33 1.32.66 2.64 1 4-.66 0-1.32 0-2 0 0 .66 0 1.32 0 2 .364-.121.727-.242 1.102-.367q5.448-1.816 10.898-3.633c.33-.99.66-1.98 1-3"/>
  <path fill="#2b2b2b" d="M892 975c.579.163 1.158.325 1.754.492 2.068.515 4.056.646 6.182.628.375.001.75.002 1.136.003q1.867 0 3.736-.01 1.346 0 2.691.001 3.641-.001 7.282-.013c2.54-.006 5.08-.006 7.62-.008q7.208-.005 14.417-.021 8.209-.016 16.418-.022 16.883-.016 33.764-.05c-.33.66-.66 1.32-1 2-11.534.76-23.008 1.145-34.566 1.101-1.998-.006-3.996-.006-5.993-.008q-5.625-.005-11.25-.021a8649 8649 0 0 0-12.85-.022q-13.17-.015-26.341-.05c-.99-.99-1.98-1.98-3-3 0-.33 0-.66 0-1"/>
  <path fill="#9c9c9c" d="M895 916c15.18 0 30.36 0 46 0 .165.33.165.33 1 2-.722.493-.722.493-2 1-1.5.09-2.951.126-4.45.114-.449 0-.898 0-1.36 0-1.483 0-2.965-.009-4.448-.016q-1.543-.003-3.085-.005a3031 3031 0 0 1-8.118-.024q-4.142-.014-8.285-.02-8.127-.016-16.254-.049c.33-.99.66-1.98 1-3"/>
  <path fill="#8f8f8f" d="M675 300c8.295.703 8.295.703 12.188 3.379.268.205.536.41.812.621.33 1.32.66 2.64 1 4-7.59 0-15.18 0-23 0 .66-1.32 1.32-2.64 2-4 2.31-1.32 4.62-2.64 7-4"/>
  <path fill="#393939" d="M991 968c0 .66 0 1.32 0 2-6.689.905-13.256 1.149-20 1.133q-1.567 0-3.135.003-3.273.002-6.545-.006-4.113-.006-8.225.004c-12.401.022-24.728-.18-37.095-1.134 0-.33 0-.66 0-1q9.574-.2 19.148-.391 4.45-.09 8.9-.182c15.653-.327 31.296-.501 46.952-.427"/>
  <path fill="#484848" d="M660 326c11.22 0 22.44 0 34 0 0 1.32 0 2.64 0 4-11.22 0-22.44 0-34 0 0-1.32 0-2.64 0-4"/>
  <path fill="#181818" d="M898 986c25.41 0 50.82 0 77 0 0 .99 0 1.98 0 3-25.08 0-50.16 0-76 0-.33-.99-.66-1.98-1-3"/>
  <path fill="#060606" d="M905 996c19.14 0 38.28 0 58 0-.66.66-1.32 1.32-2 2q-9.622.267-19.247.495-4.47.104-8.938.229-4.319.119-8.637.214-1.642.038-3.284.088c-11.014.332-11.014.332-15.894-2.026 0-.33 0-.66 0-1"/>
  <path fill="#828282" d="M967 925q1.188.467 2.375.938c.44.174.882.348 1.336.527A42 42 0 0 1 974 928c0 .99 0 1.98 0 3-1.55.9-2.695 1.132-4.48 1.158-.5.01-.999.02-1.513.03-.545.006-1.09.011-1.65.017-.576.01-1.152.02-1.745.03q-2.856.047-5.714.081-1.98.032-3.96.063-4.68.074-9.36.138-5.329.076-10.657.16-10.96.17-21.921.323c0-.66 0-1.32 0-2 16.5-.33 33-.66 50-1 .33-.99.66-1.98 1-3 .99 0 1.98 0 3 0 0-.66 0-1.32 0-2"/>
  <path fill="#626262" d="M693 316c.33 0 .66 0 1 0 0 1.98 0 3.96 0 6-11.22 0-22.44 0-34 0 .33-1.32.66-2.64 1-4 10.23 0 20.46 0 31 0 .33-.66.66-1.32 1-2"/>
  <path fill="#0f0f0f" d="M662 342c8.91 0 17.82 0 27 0-.66 1.32-1.32 2.64-2 4-7.59 0-15.18 0-23 0-.66-1.32-1.32-2.64-2-4"/>
  <path fill="#3b3b3b" d="M894 968c24.42 0 48.84 0 74 0 0 .33 0 .66 0 1-.315.005-.315.005-1.907.031q-8.957.148-17.915.308-4.604.083-9.207.158-4.455.073-8.909.156-1.687.03-3.375.056c-5.81.09-11.562.267-17.338.94-5.74.667-11.74.93-17.349-.649.66-.66 1.32-1.32 2-2"/>
  <path fill="#525252" d="M887 953c.33.66.66 1.32 1 2 .318-.002.636-.004.964-.007q6.206-.04 12.411-.056c.167 0 .167 0 1.012-.002 13.89-.031 27.739.398 41.613 1.065 0 .33 0 .66 0 1-.302.005-.302.005-1.833.031q-8.564.147-17.126.308-4.403.083-8.804.158-4.25.072-8.5.156-1.62.03-3.24.056-2.272.037-4.545.086c-.444.005-.887.011-1.345.017-2.683.063-5.025.444-7.607 1.188-.99-.33-1.98-.66-3-1-.33-1.65-.66-3.3-1-5"/>
  <path fill="#888" d="M965 924c.66 0 1.32 0 2 0 0 .99 0 1.98 0 3-.99 0-1.98 0-3 0-.33.66-.66 1.32-1 2-22.11 0-44.22 0-67 0 0-.33 0-.66 0-1 17.16-.33 34.32-.66 52-1 .33-.33.66-.66 1-1 5.28 0 10.56 0 16 0 0-.66 0-1.32 0-2"/>
  <path fill="#2c2c2c" d="M513 335c8.25.33 16.5.66 25 1-.33 1.32-.66 2.64-1 4a2067 2067 0 0 1-8.862.055q-1.507.008-3.015.02c-1.445.013-2.89.018-4.334.023-.449.005-.898.01-1.36.015-.42 0-.841 0-1.274 0-.185.002-.185.002-1.117.007-1.19-.138-2.003-.53-3.038-1.12-.33-1.32-.66-2.64-1-4"/>
  <path fill="#939393" d="M522 308c2.31.33 4.62.66 7 1 1.32 1.32 2.64 2.64 4 4 0 .66 0 1.32 0 2-5.61 0-11.22 0-17 0 .33-1.32.66-2.64 1-4 1.65-.99 3.3-1.98 5-3"/>
  <path fill="#8d8d8d" d="M960 921c.99.33 1.98.66 3 1 0 .99 0 1.98 0 3-6.27 0-12.54 0-19 0-.33.66-.66 1.32-1 2-4.62 0-9.24 0-14 0-.33-.66-.66-1.32-1-2 1.834-1.137 3.29-1.912 5.444-2.179a105 105 0 0 1 5.072-.016c.308.001.308.001 1.866.008 1.956.011 3.912.037 5.868.062q1.995.016 3.992.027 4.879.034 9.758.098c0-.66 0-1.32 0-2"/>
  <path fill="#838383" d="M892 930c21.12 0 42.24 0 64 0 0 .33 0 .66 0 1a8022 8022 0 0 0-16.56.34q-3.846.082-7.691.157-3.716.072-7.43.156-1.414.03-2.827.056c-8.577.158-8.577.158-12.452 1.086-1.83.36-3.616.22-5.466.084-.392-.024-.785-.047-1.189-.072-1.233-.075-2.465-.16-3.697-.245q-1.268-.08-2.534-.158-3.078-.193-6.154-.404c.66-.66 1.32-1.32 2-2"/>
  <path fill="#585858" d="M537 324c.33 0 .66 0 1 0 0 1.98 0 3.96 0 6-8.38.154-16.65-.31-25-1 0-.99 0-1.98 0-3 7.92 0 15.84 0 24 0 0-.66 0-1.32 0-2"/>
  <path fill="#1c1c1c" d="M661 339c9.57 0 19.14 0 29 0-.33.99-.66 1.98-1 3-8.91 0-17.82 0-27 0-.33-.99-.66-1.98-1-3"/>
  <path fill="#878787" d="M689 306c.66.66 1.32 1.32 2 2 0 .99 0 1.98 0 3-8.58 0-17.16 0-26 0 .33-1.32.66-2.64 1-4 7.59.33 15.18.66 23 1 0-.66 0-1.32 0-2"/>
  <path fill="#f3b559" d="M835 1148c3.96 0 7.92 0 12 0-.33.165-.33.165-2 1 0 .66 0 1.32 0 2 .66.66 1.32 1.32 2 2-2.31.33-4.62.66-7 1-.99.99-1.98 1.98-3 3-.66 0-1.32 0-2 0-.33.99-.66 1.98-1 3-.33-.99-.66-1.98-1-3 .66-2.97 1.32-5.94 2-9"/>
  <path fill="#4a4a4a" d="M512 322c.33 0 .66 0 1 0 0 2.31 0 4.62 0 7 .883-.012 1.766-.023 2.676-.035 7.51-.067 14.862.182 22.324 1.035 0 .66 0 1.32 0 2-8.25 0-16.5 0-25 0-1.093-2.186-1.117-3.76-1.062-6.125.004-.373.009-.745.013-1.129q.02-1.372.049-2.746"/>
  <path fill="#909090" d="M913 922c6.427-.116 12.643-.02 19 1-.33.66-.66 1.32-1 2-13.2 0-26.4 0-40 0 0-.33 0-.66 0-1 3.465-.165 3.465-.165 21-1 .33-.33.66-.66 1-1"/>
  <path fill="#999" d="M678.938 300.313c.175.023.175.023 1.066.14 2.69.4 4.704 1.115 6.996 2.547 0 .66 0 1.32 0 2-5.61 0-11.22 0-17 0 .66-1.32 1.32-2.64 2-4 2.424-1.004 4.385-1.05 6.938-.687"/>
  <path fill="#3f443d" d="M0 1445c.33 0 .66 0 1 0 .055.656.11 1.312.168 1.988q.31 3.651.632 7.302.137 1.58.27 3.16.192 2.271.395 4.542c.038.471.077.942.117 1.427.04.44.08.88.12 1.334.034.387.067.773.102 1.171.214 1.173.652 2.022 1.196 3.076.133 1.438.133 1.438.125 3 .003.516.005 1.031.008 1.563-.13 1.41-.407 2.238-1.133 3.437-.99-.33-1.98-.66-3-1 0-10.23 0-20.46 0-31"/>
  <path fill="#f5bf5b" d="M896 1152c3.63 0 7.26 0 11 0-.33.165-.33.165-2 1-.33.66-.66 1.32-1 2-.99 0-1.98 0-3 0-.33.66-.66 1.32-1 2-.99 0-1.98 0-3 0 0 .66 0 1.32 0 2-1.98.33-3.96.66-6 1 1.334-3.797 1.962-4.962 5-8"/>
  <path fill="#192116" d="M11 1483c4.11 1.382 7.473 3.503 11 6 0 .33 0 .66 0 1-3.96 0-7.92 0-12 0 0-.66 0-1.32 0-2-.99 0-1.98 0-3 0 .66-1.32 1.32-2.64 2-4 .66-.33 1.32-.66 2-1"/>
  <path fill="#f6cc5a" d="M347 1235c.33.66.66 1.32 1 2-.33.66-.66 1.32-1 2 5.61 0 11.22 0 17 0-.33.99-.66 1.98-1 3-4.62 0-9.24 0-14 0-.33.66-.66 1.32-1 2-1.65-.33-3.3-.66-5-1-.66-.66-1.32-1.32-2-2 1.98-1.98 3.96-3.96 6-6"/>
  <path fill="#949494" d="M952 917c1.32.66 2.64 1.32 4 2 0 .66 0 1.32 0 2-15.84 0-31.68 0-48 0 0-.33 0-.66 0-1 14.52-.33 29.04-.66 44-1 0-.66 0-1.32 0-2"/>
  <path fill="#626262" d="M990 944c.66.33 1.32.66 2 1 0 .99 0 1.98 0 3-4.125.165-4.125.165-25 1 0-.99 0-1.98 0-3 7.59 0 15.18 0 23 0 0-.66 0-1.32 0-2"/>
  <path fill="#f6c45a" d="M411 1233c.33.99.66 1.98 1 3 .307-.036.307-.036 1.863-.219q1.225-.14 2.45-.281c.202-.024.202-.024 1.224-.145 2.168-.246 4.277-.412 6.463-.355 0 .66 0 1.32 0 2-1.485.165-1.485.165-9 1-.33.66-.66 1.32-1 2-2.97 0-5.94 0-9 0 1.98-2.31 3.96-4.62 6-7"/>
  <path fill="#263021" d="M4 1471c.66 1.32 1.32 2.64 2 4-.33.99-.66 1.98-1 3-.66 0-1.32 0-2 0 .33 1.98.66 3.96 1 6-.66 1.32-1.32 2.64-2 4-.66 0-1.32 0-2 0 0-3.96 0-7.92 0-12 .99.33 1.98.66 3 1 .33-1.98.66-3.96 1-6"/>
  <path fill="#f5c55b" d="M402 1232c.66.33 1.32.66 2 1-.33.66-.66 1.32-1 2 .254-.144.508-.289.77-.437 1.747-.943 2.97-1.544 4.98-1.688.206.02.206.02 1.25.125-.33.66-.66 1.32-1 2-.66 0-1.32 0-2 0-.33.99-.66 1.98-1 3-.99-.33-1.98-.66-3-1-.33.66-.66 1.32-1 2 0-.66 0-1.32 0-2-.99 0-1.98 0-3 0-.33.66-.66 1.32-1 2 0-.66 0-1.32 0-2-.66-.33-1.32-.66-2-1q.935-.722 1.875-1.437c.348-.267.696-.534 1.055-.81.994-.7 1.97-1.242 3.07-1.753"/>
  <path fill="#6c6c6c" d="M887 933c.33 0 .66 0 1 0 0 1.65 0 3.3 0 5 4.29 0 8.58 0 13 0-.33.99-.66 1.98-1 3-4.29-.33-8.58-.66-13-1 0-2.31 0-4.62 0-7"/>
  <path fill="#f4bd5a" d="M880 1152c.66.33 1.32.66 2 1-.33.66-.66 1.32-1 2q.379-.199.77-.402c2.041-1.048 4.024-1.936 6.23-2.598.33.99.66 1.98 1 3-.66 0-1.32 0-2 0 0 .66 0 1.32 0 2-5.743 1.244-5.743 1.244-8.375.563-.536-.186-1.072-.372-1.625-.563q.465-.97.938-1.937c.174-.36.348-.72.527-1.09C879 1153 879 1153 880 1152"/>
  <path fill="#3c3c3c" d="M977 966c5.28 0 10.56 0 16 0-.33.99-.66 1.98-1 3-4.95 0-9.9 0-15 0 0-.99 0-1.98 0-3"/>
  <path fill="#242d1f" d="M6 1475c2.697 2.462 4.557 4.632 6 8-1.98.99-3.96 1.98-6 3-1.286-7.429-1.286-7.429 0-11"/>
  <path fill="#f5bd6b" d="M898 1118c2.31 0 4.62 0 7 0-1.32 1.65-2.64 3.3-4 5-5.893 1.205-5.893 1.205-8.375.563-.536-.186-1.072-.372-1.625-.563 1.98-.66 3.96-1.32 6-2 .33-.99.66-1.98 1-3"/>
  <path fill="#7f7f7f" d="M967 925c4.586 1.646 4.586 1.646 6.313 3.125.226.289.453.577.687.875-.33.33-.66.66-1 1-2.97 0-5.94 0-9 0 0-.99 0-1.98 0-3 .99 0 1.98 0 3 0 0-.66 0-1.32 0-2"/>
  <path fill="#f4b66e" d="M842 1070c.66 1.32 1.32 2.64 2 4-.33 2.64-.66 5.28-1 8 .99.33 1.98.66 3 1-.99 2.31-1.98 4.62-3 7-.33 0-.66 0-1 0 0-6.6 0-13.2 0-20"/>
  <path fill="#f7cc6e" d="M1006 1120c.33.66.66 1.32 1 2-1.32 1.32-2.64 2.64-4 4-1.98 0-3.96 0-6 0 .99-1.32 1.98-2.64 3-4 1.98-.66 3.96-1.32 6-2"/>
  <path fill="#f5bc57" d="M449 1222c.33 0 .66 0 1 0 0 4.62 0 9.24 0 14-.33.165-.33.165-2 1-.99-.66-1.98-1.32-3-2 .99-1.32 1.98-2.64 3-4 .33-2.97.66-5.94 1-9"/>
  <path fill="#192413" d="M11 1483c.66.33 1.32.66 2 1-.33 1.65-.66 3.3-1 5 .66.33 1.32.66 2 1-1.32 0-2.64 0-4 0 0-.66 0-1.32 0-2-.99 0-1.98 0-3 0 .66-1.32 1.32-2.64 2-4 .66-.33 1.32-.66 2-1"/>
  <path fill="#8d8d8d" d="M944 914c2.31.66 4.62 1.32 7 2-.33.66-.66 1.32-1 2-2.64 0-5.28 0-8 0 .66-1.32 1.32-2.64 2-4"/>
  <path fill="#2c3722" d="M0 1480c.66.33.66.33 4 2-.66 1.98-1.32 3.96-2 6-.66 0-1.32 0-2 0 0-2.64 0-5.28 0-8"/>
  <path fill="#f4b65c" d="M847 1149c-.66 0-1.32 0-2 0 0 .66 0 1.32 0 2-1.238.763-2.038 1.002-3.508 1.098-.533-.012-1.067-.024-1.617-.035-.539-.01-1.078-.019-1.633-.028-.41-.011-.82-.023-1.242-.035 2.585-2.83 2.585-2.83 4.688-3.687C843 1148 843 1148 847 1149"/>
  <path fill="#f4b66a" d="M859 1118c-.33.165-.33.165-2 1 0 .66 0 1.32 0 2-1.238.763-2.038 1.002-3.508 1.098-.533-.012-1.067-.024-1.617-.035-.539-.01-1.078-.019-1.633-.028-.41-.011-.82-.023-1.242-.035.33-.66.66-1.32 1-2 3.135-1.858 5.377-2.267 9-2"/>
  <path fill="#1a1a1a" d="M970 984c3.3 0 6.6 0 10 0-.495.495-.495.495-3 3-2.31-.33-4.62-.66-7-1 0-.66 0-1.32 0-2"/>
  <path fill="#9d9d9d" d="M524.625 307.938c.446.009.892.018 1.352.027.168.006.168.006 1.023.035.33.99.66 1.98 1 3-2.64 0-5.28 0-8 0 0-.66 0-1.32 0-2 1.606-.953 2.77-1.111 4.625-1.062"/>
  <path fill="#f6c65b" d="M392 1232c1.65 0 3.3 0 5 0-.33.165-.33.165-2 1-.33.66-.66 1.32-1 2-.99 0-1.98 0-3 0 0 .66 0 1.32 0 2-1.32.33-2.64.66-4 1 1.65-1.98 3.3-3.96 5-6"/>
  <path fill="#f6c75c" d="M384 1232c1.65 0 3.3 0 5 0-.33.165-.33.165-2 1 0 .66 0 1.32 0 2-.66 0-1.32 0-2 0-.33.66-.66 1.32-1 2-.99-.33-1.98-.66-3-1 .99-1.32 1.98-2.64 3-4"/>
  <path fill="#f6c66b" d="M954 1122c1.65 0 3.3 0 5 0-.33.165-.33.165-2 1 0 .66 0 1.32 0 2-1.98.33-3.96.66-6 1 .99-1.32 1.98-2.64 3-4"/>
  <path fill="#f4bb5a" d="M866 1152c1.32.33 2.64.66 4 1-.33.495-.33.495-2 3-1.65 0-3.3 0-5 0 .99-1.32 1.98-2.64 3-4"/>
  <path fill="#f4be5b" d="M892 1152c.99.33 1.98.66 3 1-.66 0-1.32 0-2 0 0 .66 0 1.32 0 2-.66 0-1.32 0-2 0-.33.99-.66 1.98-1 3-.66-.66-1.32-1.32-2-2 1.32-1.32 2.64-2.64 4-4"/>
  <path fill="gray" d="M893 918c.66.99 1.32 1.98 2 3-1.65 1.32-3.3 2.64-5 4 1.875-5.875 1.875-5.875 3-7"/>
  <path fill="#192317" d="M3 1471c.33 1.32.66 2.64 1 4-.33.66-.66 1.32-1 2-.99-.33-1.98-.66-3-1 0-.66 0-1.32 0-2 .99-.99 1.98-1.98 3-3"/>
  <path fill="#f5bc6a" d="M417 1199c.99.165.99.165 6 1-.33.66-.66 1.32-1 2-1.65 0-3.3 0-5 0 0-.99 0-1.98 0-3"/>
  <path fill="#7a7a7a" d="M967 925c1.32.33 2.64.66 4 1 0 .66 0 1.32 0 2-2.31 0-4.62 0-7 0 .99-.33 1.98-.66 3-1 0-.66 0-1.32 0-2"/>
  <path fill="#1f2a1b" d="M2 1485c.66.66 1.32 1.32 2 2 0 .99 0 1.98 0 3-1.32 0-2.64 0-4 0 0-.66 0-1.32 0-2 .66 0 1.32 0 2 0 0-.99 0-1.98 0-3"/>
  <path fill="#f5c05a" d="M448 1232c.33 0 .66 0 1 0 0 1.65 0 3.3 0 5-1.32-.66-2.64-1.32-4-2 .99-.99 1.98-1.98 3-3"/>
  <path fill="#f7cd6f" d="M264 1196c1.98 0 3.96 0 6 0-.33.99-.66 1.98-1 3-.825-.33-.825-.33-5-2 0-.33 0-.66 0-1"/>
  <path fill="#222" d="M981 978c1.65 0 3.3 0 5 0-.495.495-.495.495-3 3-.99-.66-1.98-1.32-3-2 .33-.33.66-.66 1-1"/>
  <path fill="#272b26" d="M17 1487c.825.33.825.33 5 2-1.32.33-2.64.66-4 1-.33-.99-.66-1.98-1-3"/>
  <path fill="#202b1a" d="M0 1470c.66 0 1.32 0 2 0 .33.99.66 1.98 1 3-.99.33-1.98.66-3 1 0-1.32 0-2.64 0-4"/>
  <path fill="#f6cd55" d="M355 1245c.66.66 1.32 1.32 2 2-.99.33-1.98.66-3 1-.66-.66-1.32-1.32-2-2 .99-.33 1.98-.66 3-1"/>
  <path fill="#dbd7d1" d="M772 906c.66 0 1.32 0 2 0-.66 1.32-1.32 2.64-2 4-.33-.99-.66-1.98-1-3 .33-.33.66-.66 1-1"/>
  <path fill="#f4c05b" d="M444 1232c.99.33 1.98.66 3 1-.99.66-1.98 1.32-3 2 0-.99 0-1.98 0-3"/>
  <path fill="#dcd7d0" d="M748 930c.66.66 1.32 1.32 2 2-.99.66-1.98 1.32-3 2 .33-1.32.66-2.64 1-4"/>
  <path fill="#564534" d="M494 1205c.99.33 1.98.66 3 1-.66.66-1.32 1.32-2 2-.33-.99-.66-1.98-1-3"/>
</svg>
