<svg xmlns="http://www.w3.org/2000/svg" viewBox="0 0 200 200">
  <defs>
    <linearGradient id="g" x1="0" y1="0" x2="1" y2="1">
      <stop offset="0" stop-color="#1a2a3a"/>
      <stop offset="1" stop-color="#c9a14a"/>
    </linearGradient>
  </defs>
  <circle cx="100" cy="100" r="92" fill="#0f1722"/>
  <circle cx="100" cy="100" r="86" fill="none" stroke="#c9a14a" stroke-width="1.5"/>
  <circle cx="100" cy="100" r="80" fill="none" stroke="#c9a14a" stroke-width="0.5"/>
  <path d="M70,160 C68,140 62,128 58,118 C52,104 54,90 62,80 C58,78 54,72 56,66 C60,70 66,72 70,72 C74,62 84,52 96,48 C92,44 92,38 96,34 C98,40 104,42 110,42 C124,42 138,52 142,68 C146,72 150,80 148,88 C146,84 142,82 138,84 C140,94 138,106 132,116 C128,124 124,134 124,144 C124,150 126,156 130,160 L118,160 C116,154 114,148 114,142 C110,148 104,152 98,154 C96,156 96,160 98,160 Z" fill="url(#g)" stroke="#c9a14a" stroke-width="1"/>
  <circle cx="120" cy="68" r="2" fill="#0f1722"/>
  <path d="M132,58 L138,50 L140,60 Z" fill="#c9a14a"/>
  <path d="M118,56 L122,48 L126,58 Z" fill="#c9a14a"/>
  <path d="M62,80 Q70,86 78,84" fill="none" stroke="#c9a14a" stroke-width="0.8"/>
  <path d="M96,48 Q100,60 108,68" fill="none" stroke="#c9a14a" stroke-width="0.6" opacity="0.6"/>
  <text x="100" y="185" text-anchor="middle" fill="#c9a14a" font-family="Georgia,serif" font-size="9" letter-spacing="3">EQUUS</text>
</svg>