<svg viewBox="0 0 600 200" xmlns="http://www.w3.org/2000/svg">
  <defs>
    <style>
      .logo-text { fill: #0A192F; }
    </style>
  </defs>
  
  <rect width="600" height="200" fill="#FFFFFF"/>
  
  <!-- Calidora wordmark in flowing script -->
  <g class="logo-text">
    <!-- Capital C - oversized with tall loop and sweeping underline -->
    <path d="M 50 40 Q 45 60 50 80 Q 60 95 80 105 Q 100 115 120 120 L 120 120 Q 100 115 80 110 Q 60 105 55 90 Q 52 75 55 60 Q 58 45 70 35 Q 82 25 95 25 Q 108 25 115 30 L 115 30 Q 110 20 100 15 Q 90 10 80 10 Q 65 10 55 20 Q 45 30 45 45 Z" />
    <path d="M 120 125 Q 125 145 135 155 Q 145 165 160 170 Q 175 175 190 175 L 195 175 Q 185 175 175 173 Q 165 171 155 168 Q 145 165 138 160 Q 130 155 125 148 Q 120 140 120 135 Z" stroke-width="0"/>
    
    <!-- alidora letters - smooth connected script -->
    <path d="M 140 130 Q 145 130 148 135 Q 150 140 148 145 Q 145 150 140 150 Q 135 150 132 145 Q 130 140 132 135 Q 135 130 140 130" />
    
    <path d="M 155 125 Q 165 125 170 130 Q 175 135 175 145 Q 175 155 170 160 Q 165 165 158 165 Q 155 165 153 162 Q 152 160 153 158 Q 155 160 158 160 Q 160 160 162 158 Q 164 155 164 150 Q 164 145 162 142 Q 160 139 156 139 Q 154 139 152 140" />
    
    <path d="M 185 125 Q 195 125 200 130 Q 205 135 205 145 Q 205 155 200 160 Q 195 165 188 165 Q 185 165 183 162 Q 182 160 183 158 Q 185 160 188 160 Q 190 160 192 158 Q 194 155 194 150 Q 194 145 192 142 Q 190 139 186 139 Q 184 139 182 140" />
    
    <path d="M 215 125 Q 225 125 230 130 Q 235 135 235 145 Q 235 155 230 160 Q 225 165 218 165 Q 215 165 213 162 Q 212 160 213 158 Q 215 160 218 160 Q 220 160 222 158 Q 224 155 224 150 Q 224 145 222 142 Q 220 139 216 139 Q 214 139 212 140" />
    
    <path d="M 245 125 Q 255 125 260 130 Q 265 135 265 145 Q 265 155 260 160 Q 255 165 248 165 Q 245 165 243 162 Q 242 160 243 158 Q 245 160 248 160 Q 250 160 252 158 Q 254 155 254 150 Q 254 145 252 142 Q 250 139 246 139 Q 244 139 242 140" />
    
    <path d="M 275 125 Q 285 125 290 130 Q 295 135 295 145 Q 295 155 290 160 Q 285 165 278 165 Q 275 165 273 162 Q 272 160 273 158 Q 275 160 278 160 Q 280 160 282 158 Q 284 155 284 150 Q 284 145 282 142 Q 280 139 276 139 Q 274 139 272 140" />
    
    <path d="M 305 125 Q 315 125 320 130 Q 325 135 325 145 Q 325 155 320 160 Q 315 165 308 165 Q 305 165 303 162 Q 302 160 303 158 Q 305 160 308 160 Q 310 160 312 158 Q 314 155 314 150 Q 314 145 312 142 Q 310 139 306 139 Q 304 139 302 140" />
    
    <path d="M 335 125 Q 345 125 350 130 Q 355 135 355 145 Q 355 155 350 160 Q 345 165 338 165 Q 335 165 333 162 Q 332 160 333 158 Q 335 160 338 160 Q 340 160 342 158 Q 344 155 344 150 Q 344 145 342 142 Q 340 139 336 139 Q 334 139 332 140" />
    
    <path d="M 365 125 Q 375 125 380 130 Q 385 135 385 145 Q 385 155 380 160 Q 375 165 368 165 Q 365 165 363 162 Q 362 160 363 158 Q 365 160 368 160 Q 370 160 372 158 Q 374 155 374 150 Q 374 145 372 142 Q 370 139 366 139 Q 364 139 362 140" />
  </g>
</svg>