<svg xmlns="http://www.w3.org/2000/svg" viewBox="0 0 100 100">
  <defs>
    <!-- Gradients for Metallic Gold -->
    <linearGradient id="goldGradient" x1="0%" y1="0%" x2="100%" y2="100%">
      <stop offset="0%" stop-color="#FFF8DC" />
      <stop offset="25%" stop-color="#D4AF37" />
      <stop offset="50%" stop-color="#B8860B" />
      <stop offset="75%" stop-color="#D4AF37" />
      <stop offset="100%" stop-color="#FFF8DC" />
    </linearGradient>

    <!-- Gradient for Deep Crimson Velvet -->
    <radialGradient id="velvetGradient" cx="50%" cy="50%" r="70%">
      <stop offset="0%" stop-color="#9e0f1f" />
      <stop offset="100%" stop-color="#5c0000" />
    </radialGradient>

    <!-- Filter for Noise/Texture -->
    <filter id="textureNoise" x="0%" y="0%" width="100%" height="100%">
      <feTurbulence type="fractalNoise" baseFrequency="0.04" numOctaves="3" result="noise" />
      <feColorMatrix type="matrix" values="0 0 0 0 0  0 0 0 0 0  0 0 0 0 0  0 0 0 0.05 0" in="noise" result="coloredNoise" />
      <feBlend in="SourceGraphic" in2="coloredNoise" mode="multiply" />
    </filter>
    
    <!-- Filter for Inner Shadow/Depth -->
    <filter id="innerShadow" x="-20%" y="-20%" width="140%" height="140%">
      <feOffset dx="0" dy="2" result="offsetBlur"/>
      <feGaussianBlur stdDeviation="1" in="offsetBlur" result="blur"/>
      <feColorMatrix type="matrix" values="0 0 0 0 0 0 0 0 0 0 0 0 0 0 0 0 0 0 0.2 0" in="blur" result="shadow"/>
      <feComposite in="SourceGraphic" in2="shadow" operator="over"/>
    </filter>
  </defs>

  <!-- Floor Background (Dark Polished Concrete) -->
  <rect x="0" y="0" width="100" height="100" fill="#1a1a1a" />
  
  <!-- Shadow cast by rug -->
  <ellipse cx="50" cy="52" rx="46" ry="32" fill="#000000" opacity="0.4" filter="url(#innerShadow)" />

  <!-- Main Rug Body -->
  <path d="M15,12 C10,12 8,14 8,19 L8,81 C8,86 10,88 15,88 L85,88 C90,88 92,86 92,81 L92,19 C92,14 90,12 85,12 L15,12 Z" 
        fill="url(#velvetGradient)" stroke="#3d0000" stroke-width="1" />
  
  <!-- Decorative Border (Gold) -->
  <g filter="url(#innerShadow)">
    <!-- Outer Gold Frame -->
    <rect x="16" y="16" width="68" height="68" rx="2" ry="2" 
          fill="none" stroke="url(#goldGradient)" stroke-width="2.5" />
    
    <!-- Inner Filigree Pattern -->
    <path d="M20,20 L80,20 L80,80 L20,80 Z" 
          fill="none" stroke="#b8860b" stroke-width="1" opacity="0.6"/>
          
    <!-- Corner accents -->
    <path d="M22,22 L26,22 L26,26 Z M78,22 L74,22 L74,26 Z M22,78 L26,78 L26,74 Z M78,78 L74,78 L74,74 Z" 
          fill="#b8860b" />
  </g>

  <!-- Central Medallion (Complex Geometric Persian Style) -->
  <g transform="translate(50, 50)">
    <!-- Outer Ring -->
    <circle r="22" fill="none" stroke="#b8860b" stroke-width="1.5" opacity="0.8" />
    <circle r="21" fill="none" stroke="#1a1a1a" stroke-width="0.5" />
    
    <!-- Inner Star/Flower Shape -->
    <path d="M0,-15 L4,-5 L14,-5 L6,2 L8,12 L0,6 L-8,12 L-6,2 L-14,-5 L-4,-5 Z" 
          fill="url(#goldGradient)" opacity="0.9">
      <animate attributeName="opacity" values="0.9;1;0.9" dur="3s" repeatCount="indefinite" />
    </path>
    
    <!-- Central Gem -->
    <circle r="4" fill="#000000" stroke="#d4af37" stroke-width="1" />
    <circle r="2.5" fill="#ff0000" opacity="0.6" />
    
    <!-- Ornamental Corners connecting to border -->
    <path d="M20,0 L24,0 M-20,0 L-24,0 M0,20 L0,24 M0,-20 L0,-24" stroke="#8a0303" stroke-width="2" />
  </g>

  <!-- Abstract Corporate/Angular Pattern Overlay (Dark Red/Black) -->
  <path d="M35,15 L65,15 L65,85 L35,85 Z" fill="none" opacity="0.1" stroke="#000000" stroke-width="1" />
  <circle cx="50" cy="50" r="30" fill="none" opacity="0.15" stroke="#000000" stroke-width="1" />
  
  <!-- Texture Noise Overlay -->
  <rect x="15" y="15" width="70" height="70" fill="url(#velvetGradient)" opacity="0.1" filter="url(#textureNoise)" pointer-events="none" />
  
</svg>