<svg xmlns="http://www.w3.org/2000/svg" viewBox="0 0 24 24" width="24" height="24" fill="none" stroke="currentColor" stroke-width="2" stroke-linecap="round" stroke-linejoin="round">
  <!-- Shield (representing DLP/Protection) -->
  <path d="M12 22s8-4 8-10V5l-8-3-8 3v7c0 6 8 10 8 10z" />
  
  <!-- Document/File (representing Data) -->
  <path d="M14 2H6a2 2 0 0 0-2 2v16a2 2 0 0 0 2 2h12a2 2 0 0 0 2-2V8z" class="fill-white" stroke="currentColor" />
  <path d="M14 2v6h6" class="fill-none" />
  
  <!-- Lock (representing Security) -->
  <rect x="9" y="9" width="6" height="6" rx="1" />
  <path d="M7 9V7a5 5 0 0 1 10 0v2" fill="none" />

  <!-- Arrows (representing SFTP/Transfer) -->
  <path d="M3 12h18" stroke="currentColor" stroke-dasharray="2 2" />
  <path d="M7 8l-4 4 4 4" fill="none" />
  <path d="M17 8l4 4-4 4" fill="none" />
</svg>