<svg width="200" height="200" viewBox="0 0 200 200" xmlns="http://www.w3.org/2000/svg">
  <defs>
    <style>
      .seal-shape {
        fill: none;
        stroke: #FFB69E;
        stroke-width: 12;
        stroke-linejoin: round;
        stroke-linecap: round;
      }
    </style>
  </defs>
  <g id="seal-graffic" transform="translate(100, 100)">
    <path class="seal-shape" d="
      M 60 0 
      L 50 8.7
      L 60 17.3
      L 50 25.9
      L 60 34.6
      L 50 43.3
      L 60 51.9
      L 50 60
      L 60 68.7
      L 50 77.3
      L 60 85.9
      L 50 94.5
      L 60 103.2
      L 50 111.9
      L 60 120
      L 50 128.7
      L 60 137.3
      L 50 145.9
      L 60 154.5
      L 50 163.2
      L 60 171.8
      L 50 180
      L 60 188.7
      L 50 197.3
      L 40 197.3
      L 40 188.7
      L 40 180
      L 40 171.8
      L 40 163.2
      L 40 154.5
      L 40 145.9
      L 40 137.3
      L 40 128.7
      L 40 120
      L 40 111.9
      L 40 103.2
      L 40 94.5
      L 40 85.9
      L 40 77.3
      L 40 68.7
      L 40 60
      L 40 51.9
      L 40 43.3
      L 40 34.6
      L 40 25.9
      L 40 17.3
      L 40 8.7
      L 40 0
      Z
    " />
  </g>
</svg>