<svg viewBox="0 0 400 120" xmlns="http://www.w3.org/2000/svg">
  <!-- White background -->
  <rect width="400" height="120" fill="#ffffff"/>
  
  <!-- Main logo group -->
  <g id="calidora-logo" fill="#1a2342">
    <!-- Capital C - large flowing script -->
    <path id="letter-c" d="M 45,25 
      Q 55,20 62,28
      Q 68,45 65,65
      Q 60,85 48,100
      Q 35,110 20,110
      Q 5,110 8,95
      Q 12,85 22,80
      Q 32,78 40,75
      Q 48,70 52,65
      Q 56,55 55,45
      Q 54,35 58,25
      Q 62,18 65,25
      Q 68,35 62,45
      Q 55,55 48,62
      Q 42,68 38,72
      Q 32,78 28,82
      Q 22,85 18,82" 
      fill="none" 
      stroke-width="4" 
      stroke-linecap="round" 
      stroke-linejoin="round"/>
    
    <!-- a -->
    <path id="letter-a" 
      d="M 62,28 
      Q 68,32 72,38
      Q 75,45 72,52
      Q 70,60 75,65
      Q 80,72 85,72
      Q 90,72 92,68
      Q 95,62 92,55
      Q 88,48 82,45
      Q 78,42 75,45
      Q 72,48 75,55
      Q 78,62 82,65
      Q 85,68 88,68
      Q 90,65 88,58
      Q 85,52 80,48
      Q 76,44 72,48" 
      fill="none" 
      stroke-width="3.5" 
      stroke-linecap="round" 
      stroke-linejoin="round"/>
    
    <!-- l -->
    <path id="letter-l" 
      d="M 95,25 
      Q 100,30 98,38
      Q 95,50 98,65
      Q 102,80 105,95
      Q 108,110 112,105
      Q 115,95 112,82
      Q 108,68 105,55
      Q 102,42 102,35
      Q 102,30 105,28
      Q 108,26 110,30
      Q 112,35 110,42
      Q 108,50 105,60
      Q 102,70 102,80
      Q 102,88 105,92
      Q 108,95 110,92" 
      fill="none" 
      stroke-width="3.5" 
      stroke-linecap="round" 
      stroke-linejoin="round"/>
    
    <!-- i -->
    <path id="letter-i" 
      d="M 122,30 
      Q 125,32 125,38
      Q 125,45 122,52
      Q 118,60 118,70
      Q 118,80 120,88
      Q 122,95 125,92
      Q 127,85 125,75
      Q 123,65 123,55
      Q 123,45 125,40
      Q 127,38 128,40
      Q 129,42 127,45
      Q 125,48 125,52
      Q 125,56 127,58
      Q 129,60 130,58" 
      fill="none" 
      stroke-width="3" 
      stroke-linecap="round" 
      stroke-linejoin="round"/>
    
    <!-- dot -->
    <circle id="dot-i" cx="127" cy="28" r="2" fill="#1a2342"/>
    
    <!-- d -->
    <path id="letter-d" 
      d="M 142,25 
      Q 148,28 152,35
      Q 156,42 156,52
      Q 156,62 152,72
      Q 148,82 142,90
      Q 136,98 130,98
      Q 125,98 125,92
      Q 125,86 130,82
      Q 135,78 140,75
      Q 145,72 148,68
      Q 151,62 151,55
      Q 151,48 148,42
      Q 145,36 140,32
      Q 135,28 130,28
      Q 126,28 126,32
      Q 126,36 130,38
      Q 135,40 140,45
      Q 145,50 145,55
      Q 145,60 142,62
      Q 138,65 135,68
      Q 132,70 130,72
      Q 128,75 128,78
      Q 128,82 130,84
      Q 132,86 135,86
      Q 138,86 142,84
      Q 146,82 148,78
      Q 150,74 150,68
      Q 150,62 147,58
      Q 143,52 138,48
      Q 133,44 128,44
      Q 125,44 125,48
      Q 125,52 128,55
      Q 132,58 138,62
      Q 142,64 145,66
      Q 148,68 150,70
      Q 152,72 152,74
      Q 152,76 150,78
      Q 148,80 145,80
      Q 142,80 138,82
      Q 135,82 132,82
      Q 128,82 126,80
      Q 124,78 124,75
      Q 124,72 126,70
      Q 128,68 132,66
      Q 135,64 138,64
      Q 142,64 145,66
      Q 148,68 150,70
      Q 152,72 152,74" 
      fill="none" 
      stroke-width="3.5" 
      stroke-linecap="round" 
      stroke-linejoin="round"/>
    
    <!-- o -->
    <path id="letter-o" 
      d="M 162,32 
      Q 168,30 174,32
      Q 180,34 184,40
      Q 188,46 188,55
      Q 188,64 184,70
      Q 180,76 174,78
      Q 168,80 162,78
      Q 156,76 152,70
      Q 148,64 148,55
      Q 148,46 152,40
      Q 156,34 162,32
      Q 168,30 174,32" 
      fill="none" 
      stroke-width="3.5" 
      stroke-linecap="round" 
      stroke-linejoin="round"/>
    
    <!-- r -->
    <path id="letter-r" 
      d="M 186,30 
      Q 192,32 195,38
      Q 198,45 196,52
      Q 194,58 198,62
      Q 202,66 206,66
      Q 210,66 212,62
      Q 214,58 212,52
      Q 210,46 206,42
      Q 202,38 198,38
      Q 195,38 193,42
      Q 191,46 193,50
      Q 195,54 198,56
      Q 200,58 202,58
      Q 204,58 205,56
      Q 206,54 205,50
      Q 204,46 202,42
      Q 200,38 196,38
      Q 192,38 190,42
      Q 188,46 188,52
      Q 188,58 190,62
      Q 192,66 195,68
      Q 198,70 200,70
      Q 202,70 204,68
      Q 206,66 206,64
      Q 206,62 204,60
      Q 202,58 198,58
      Q 194,58 192,62
      Q 190,66 190,72
      Q 190,78 192,82
      Q 194,86 198,88
      Q 202,90 205,88
      Q 207,84 205,78
      Q 203,72 200,68
      Q 198,64 198,62
      Q 198,60 200,58
      Q 202,56 205,56
      Q 208,56 210,58
      Q 212,60 212,62
      Q 212,64 210,66
      Q 208,68 205,68
      Q 202,68 200,66
      Q 198,64 198,62" 
      fill="none" 
      stroke-width="3.5" 
      stroke-linecap="round" 
      stroke-linejoin="round"/>
    
    <!-- a -->
    <path id="letter-a-2" 
      d="M 218,28 
      Q 224,32 228,38
      Q 231,45 228,52
      Q 226,60 231,65
      Q 236,72 241,72
      Q 246,72 248,68
      Q 251,62 248,55
      Q 244,48 238,45
      Q 234,42 231,45
      Q 228,48 231,55
      Q 234,62 238,65
      Q 241,68 244,68
      Q 246,65 244,58
      Q 241,52 236,48
      Q 232,44 228,48" 
      fill="none" 
      stroke-width="3.5" 
      stroke-linecap="round" 
      stroke-linejoin="round"/>
    
    <!-- d underline continuation -->
    <path id="underline-flow" 
      d="M 255,85 
      Q 258,82 260,80
      Q 262,78 263,76
      Q 264,74 263,72
      Q 262,70 260,68
      Q 258,66 256,66
      Q 254,66 252,68
      Q 250,70 250,72
      Q 250,74 252,76
      Q 254,78 256,78
      Q 258,78 259,76
      Q 260,74 259,72
      Q 258,70 256,68" 
      fill="none" 
      stroke-width="2" 
      stroke-linecap="round" 
      stroke-linejoin="round"
      opacity="0.6"/>
    
  </g>
</svg>