<svg width="300" height="300" viewBox="0 0 300 300" xmlns="http://www.w3.org/2000/svg">
  <!-- Starburst/Seal Shape with Serrated Edges -->
  <g id="starburst-seal" transform="translate(150, 150)">
    <path 
      id="jagged-circle"
      d="M 150 50 
         L 160 90 L 180 70 L 200 100 L 210 60 
         L 240 90 L 270 70 L 270 110 L 310 120 
         L 280 150 L 310 180 L 270 190 L 270 230 
         L 210 240 L 240 270 L 200 290 L 180 260 
         L 150 280 L 120 260 L 100 290 L 60 270 
         L 90 240 L 30 230 L 30 190 L -10 180 
         L 20 150 L -10 120 L 30 110 L 30 70 
         L -10 90 L 60 60 L 100 100 L 120 70 
         L 150 50 Z"
      fill="none" 
      stroke="#FF7F50" 
      stroke-width="3" 
      stroke-linecap="round" 
      stroke-linejoin="round"
    />
  </g>
</svg>