<svg width="400" height="400" viewBox="0 0 400 400" xmlns="http://www.w3.org/2000/svg">
  <defs>
    <style>
      .arc { stroke: #2563eb; stroke-width: 3; fill: none; stroke-linecap: round; }
    </style>
  </defs>
  
  <!-- Concentric fingerprint-like arcs -->
  <g id="arc-group">
    <path class="arc" d="M 80 80 C 120 80, 160 100, 200 120 C 240 140, 280 160, 320 180 C 360 200, 380 220, 380 240" />
    <path class="arc" d="M 80 100 C 130 100, 170 120, 210 140 C 250 160, 290 180, 330 200 C 370 220, 390 240, 390 260" />
    <path class="arc" d="M 80 120 C 140 120, 180 140, 220 160 C 260 180, 300 200, 340 220 C 380 240, 400 260, 400 280" />
    <path class="arc" d="M 80 140 C 150 140, 190 160, 230 180 C 270 200, 310 220, 350 240 C 390 260, 400 280, 400 300" />
    <path class="arc" d="M 80 160 C 160 160, 200 180, 240 200 C 280 220, 320 240, 360 260 C 400 280, 400 300, 400 320" />
    <path class="arc" d="M 80 180 C 170 180, 210 200, 250 220 C 290 240, 330 260, 370 280 C 400 300, 400 320, 400 340" />
    <path class="arc" d="M 80 200 C 180 200, 220 220, 260 240 C 300 260, 340 280, 380 300 C 400 320, 400 340, 400 360" />
    <path class="arc" d="M 80 220 C 190 220, 230 240, 270 260 C 310 280, 350 300, 390 320 C 400 340, 400 360, 400 380" />
  </g>
</svg>