<svg xmlns="http://www.w3.org/2000/svg" viewBox="0 0 150 158.6">
<!-- SVG created with Arrow, by QuiverAI (https://quiver.ai) -->
  <style type="text/css">.cls-0 {fill:#EDF1F4;}
.cls-1 {fill:#FFFFFF;}
.cls-2 {fill:#054526;}
.cls-3 {fill:#E31623;}
.cls-4 {fill:#B0051C;}
.cls-5 {fill:#004C2B;}
.cls-6 {fill:#00843D;}
.cls-7 {fill:#F8A592;}
.cls-8 {fill:#F0F1F4;}
.cls-9 {fill:#C40722;}
.cls-10 {fill:#F6917E;}
.cls-11 {fill:#100C11;}
.cls-12 {fill:#BD0926;}
.cls-13 {fill:#E8ECF0;}
.cls-14 {fill:#F79685;}
.cls-15 {fill:none;stroke:#F03B47;stroke-width:4;stroke-linecap:round;stroke-miterlimit:10;}
.cls-16 {fill:none;stroke:#FFFFFF;stroke-width:1.1992;stroke-linecap:round;stroke-linejoin:round;stroke-miterlimit:10;}</style>
  <path class="cls-1" d="m0 46.5v0.5h25.3c-1.6-0.2-9.3-0.3-13.3-0.3-4.8 0-6.1-1.7-8.8-1.1-1 0.2-1.9 0.8-3.2 0.9z"/>
  <path class="cls-1" d="m104.8 24.7c0.3 0.6 14.6 0.5 17.6 0.5h27.6v-0.6l-4.2-0.1c-2.1 0.1-3.4-1-4.3-0.9-1.4 0-2.8-1.1-4.4-1.1-2.9 0-4.1 1.1-4.8 1.4-1.6 0.6-3.2-0.5-5.3-0.5-1.2 0-3.5 1.1-9.6 1.1l-12.6 0.2z"/>
  <path class="cls-1" d="m150 68.2c-6-0.3-6.6-1.8-8.5-1.8-3.4-0.1-4.3 1.6-5.8 1.8-1.4 0.1-2.2-0.6-5.4-0.3-2.2 0.1-3.8 1.1-3.8 1.1h23.5v-0.8z"/>
  <path class="cls-1" d="m150.3 150.5c-6.6-2.4-25.9-6.6-35.6-7-26.2-1.2-74.1-9.1-114.7 0.4v13.6h150.3v-7z"/>
  <path class="cls-1" d="m38.8 23.9-22.5 0.9v0.3h22.2l0.3-1.2z"/>
  <path class="cls-1" d="m115.5 6.3"/>
  <path class="cls-3" d="m23.3 129.7c1 3.6 4.5 11.6 4.5 11.6h54.4s4.1-8.3 4.7-11.6c-14.7-0.8-63.6 0-63.6 0z"/>
  <path class="cls-4" d="m24.1 131.9c5.1 1.8 12.2 5.9 27.5 6.8l1.2-6.4-29.4-2.2 0.7 1.8z"/>
  <path class="cls-1" d="m28 141.3h23.2c0.7 0 0.9 4.3-1 6h-19.6s0.4 0.6 0.4 1.4c-3.9 0.7-6.5 3.8-5.5 8.2h58.7c1.1-4.4-1.1-7.4-5.1-8.2l0.3-1.4h0.6c1.2 0 2.2-0.9 2.4-2 0.3-1.3 0.7-4-0.4-4h-22.2l-1.4-8.8h-5.6l-1.6 8.8h-23.2z"/>
  <path class="cls-8" d="m44.1 147.3h5.3c2.3 0 2.2-3.8 1.8-5.8h-7.1c0.8 1.6 0.8 4-0.5 5.8h0.5z"/>
  <path class="cls-8" d="m75.7 147.3h3.9c3 0 3-3.7 2.8-5.6l-5.7-0.2c0.4 2.1 0 4.2-1 5.8z"/>
  <path class="cls-8" d="m52 138.3 7.3 0.2-0.7-6.2-5.6-0.2-1 6.2z"/>
  <path class="cls-2" d="m30.5 147.4 18.9-0.1v9.6l-23.9 0.1c-1-4.5 2-8 5.5-8.3l-0.5-1.3z"/>
  <path class="cls-2" d="m79.1 148.7 0.3-1.3-18.1-0.1v9.6h22.9c1.1-4.4-1.2-7.5-5.1-8.2z"/>
  <path class="cls-3" d="m86.1 74c7.8-3.5 24.3-9.3 41.9 0 7.7 4.9 20 15.9 20.2 37.6-0.2 18.1-11.6 44.5-44.7 45.3-6.5 0.1-17.4-1.4-21.3-5l0.7-10.6 4-10.8-28.5 2 1.4 8.8h22.4l0.2 4.2-2.8 1.8h-3.9l1.4-3.6-0.2-2.2-17.2-0.2-1.3-9-35.1-2.6c-4-11.1-7.8-30.8-10.6-34.6-3.6-4.8-7.8 1.2-8.7 0.8 2.8-14.4 12.8-24.4 18.2-29.5 3.3-2.9 16.9-1.2 16.9-1.2l47 8.8z"/>
  <path class="cls-4" d="m142.5 135c-3.8 1.1-31.6 7.1-36.9-29.9-0.9-9.4 2.1-10.6 0.5-18.6l-6.1-10.4-13.7 3.9 0.2 1.7-1.8-1.6-8.2 4.6c4.7 13-7.5 30.4-3.4 38.2l13.6 7.6c-1 3.6-4.5 10.8-4.5 10.8 0.6 0.2 0.2 4.2-1 5.4 1.7 5 11.3 10.6 26.1 10.2 16.4-0.4 29.2-9.5 35.2-21.9z"/>
  <path class="cls-2" d="m4.2 61.6 11.1 17.9 14-11.4-2.8-21.8-22.3 15.3z"/>
  <path class="cls-6" d="m14.9 55.3 5.8 10.4 3.4 3.6 0.8-8.5-7.7-8.7c-1.1-0.4-3.7 0.7-2.3 3.2z"/>
  <path class="cls-6" d="m14.9 53.5c-2.2-0.6-5.8-3-6.9-2.4-0.5 0.2-0.7 3-0.6 4.2 0.1 0.8 5.1-0.2 7.5 0v-1.8z"/>
  <path class="cls-6" d="m14.9 53.7 2.6 0.3 2.8-7.2c0.4-0.9-2.8-1.5-3.5-1.6-1.1-0.2-1.9 6.5-1.9 8.5z"/>
  <path class="cls-5" d="m17.5 52.3 0.5 0.4 9.1-6.3-0.4-0.1-9.2 6z"/>
  <path class="cls-6" d="m86.5 47.3 3.8 14.6 14.1 1.6 8.4-16.2-10.4-4-1.7 3.8-5.2 3-3.8-2-5.2-0.8z"/>
  <path class="cls-5" d="m99.1 51.1 7.2 3-2.2 7.2-10.4 2.8 3.6-12.6-3.4-2-4.8 14.4 0.2 2.2 13.5-3.4 3.2-8.4 6.7-7-10.3-4-1.6 3.4h-0.3l0.2 0.4-1.6 4z"/>
  <path class="cls-6" d="m95.5 49.3c0-0.6-1.6-5-2.3-5.2-0.5-0.2-2.9 1.4-2.8 1.5l3.7 4.5 1.4-0.8z"/>
  <path class="cls-6" d="m95.3 49.5 1 1.4 6.1-1.2c0.5-0.2-0.3-2.9-0.7-3-0.4-0.2-5 2.4-6.4 2.8z"/>
  <path class="cls-3" d="m106.7 61.3 5.8-14 3.6 0.4s5.6-3.2 6.6-3c0.8 0.2 1.2 2.4 1.2 3.2s-6.6 0.4-7 1.2l-4.5 10.8-5.7 1.4z"/>
  <path class="cls-5" d="m97.3 50.9-3.6-0.9-4.9 13.9 0.3 2.2 4.6-2 3.6-13.2z"/>
  <path class="cls-5" d="m116.9 48.9 10.4 4.8-3.2 8.2-11.7-2 4.5-11z"/>
  <path class="cls-3" d="m108.4 42.1"/>
  <path class="cls-3" d="m112.7 47.3h-0.2l-4.2-5.2c0.1-0.1 2.9-2 4-1.8 1 0.2 2.8 6.6 2.8 7.2l-2.4-0.2z"/>
  <path class="cls-4" d="m25.3 77.3c1.6 10.6 10.6 22.2 28.6 24.2 0.4-5.4 6.8-6 8.4-6.4l5-8.2-16 7.8-11.4-6-14.6-11.4z"/>
  <path class="cls-4" d="m76.9 84.7c3.6-4 16.6-12.8 22.7-10.4 1.2 0.4 2.8 1.8 3.1 2.4-3.4-2-10.3-0.8-16.4 2.3l1.8 2.9c1.6-0.2 3.4-1.4 4-2.8-0.2 3.8-6.2 6.8-10.6 7l-4.6-1.4z"/>
  <path class="cls-1" d="m12.3 119.1c-1.4 1-1.6 6.4 0 7.9 1.2 1.3 2.8 1.3 3.8 1.5 7.2 1.6 26 4 42.3 4 11.7 0 25.1-1 39.9-4 3-0.6 3.7-2.6 3.6-6.4 0-1.2-0.8-2.6-1.6-2.7-8.2 1.7-21.5 3.9-40.3 4.1-18.3 0.2-33.7-1.4-47.7-4.1v-0.3z"/>
  <path class="cls-8" d="m72.9 131.7c6.4-0.4 13.4-1.2 25.4-3.2 3.3-0.6 3.7-2.8 3.6-6.6 0-1.2-0.8-2.6-1.6-2.6-3.2 0.8-9.2 1.8-20 3.2 0.4 4-2 7.6-7.4 9.2z"/>
  <path class="cls-5" d="m2.4 104.7c-1.3 6-1.1 15.6 7.6 15.2 1.5 0 3.1-0.8 2.7-0.8h-0.4c-0.2-4.8 0-11.7 0.4-11.7l-10.3-2.7z"/>
  <path class="cls-1" d="m3.5 96c-0.4-0.1-1.8-0.1-2.4 1.4-0.4 0.9-0.8 3.9-0.7 5.1 0.3 1.2 1.2 2 2 2.2 2.7 1 10.1 2.7 10.3 2.7l0.6-9.1-9.8-2.3z"/>
  <path class="cls-13" d="m8.4 106.5 4.1 0.9 0.8-9.3-3.8-0.6c-0.4 2-1.2 5.8-1.1 9z"/>
  <path class="cls-5" d="m12.7 104.7c9.2 1.8 25 4.4 45.7 4.4 12.8 0 21.5-0.6 41.3-4.4 0.6 3 0.6 8.8 0.6 8.8-6.6 1.2-18.4 3.2-36.4 4.2-18 0.4-33.6-0.3-51.6-4.2 0-2.6 0-5.6 0.4-8.8z"/>
  <path class="cls-4" d="m72.8 117.3c0.7 2.4 0.3 5.6 0.3 5.6 8.4-0.4 17.6-1.4 27.2-3.5 1.2-0.5 1-5.1 0-5.9-4.2 1-14.4 2.8-27.5 3.8z"/>
  <path class="cls-3" d="m63.7 95.5c-3.2 0.6-9.4 0.2-10 7.6-0.2 2.6 2.6 5.2 2.8 6.4 1.4 3.2 5 1.2 7.5 2.6 2.3 1 3.5 3.4 6.3 3.2s2.1-2.6 2.1-2.8c0.1-5.6-1.7-11.8-2.9-15.4l-5.8-1.6z"/>
  <path class="cls-4" d="m66.9 100.5c-0.4 2.6-2.4 7.6-1.2 8 1.4 0.6 2.6-4.4 3.2-7l-2-1z"/>
  <path class="cls-5" d="m74.3 86.9c-4.2 0.2-8-0.8-10.8 1.6-3.8 2.8-4.8 10.8 5.6 13.2l4.6 1s2.2-6.6 1.8-8.8l-1.2-7z"/>
  <path class="cls-1" d="m74.1 102.9c-0.2 1 0.6 2 1.6 2.2l4.2 0.4c1.6 0.2 2-0.4 2.2-1 1.2-2.6 1.9-13 0.6-18.2-0.2-0.6-1-1.4-2-1.4-2.8-0.2-4-0.2-5 0.2-0.8 0.4-1.6 1.2-1.4 1.8 1 6.8 0.2 12.4-0.6 15.8l0.4 0.2z"/>
  <path class="cls-8" d="m74.1 100.1c-0.2 1-0.2 2-0.4 2.6l0.4 0.2c-0.2 1 0.6 2 1.6 2.2l4.2 0.4c1.6 0.2 2-0.4 2.2-1 0.4-0.8 0.6-2.2 0.8-4-2.6 0.8-6.2 0.8-8.8-0.4z"/>
  <path class="cls-4" d="m56.5 107.9-0.2 1.2s0.2 1.8 2.2 2.4l-0.4-2-1.6-1.6z"/>
  <path class="cls-4" d="m72.5 114.1c-0.6 0.8-1.8 1.2-2.8 1.2l3 1.8s0-1.6-0.2-3z"/>
  <path class="cls-3" d="m56.3 108.1c0 2.8 3.2 3.6 5.4 3.6 3.4-0.2 5.4 3.6 8.2 3.6l-1.4-6.6-4.8-9.6s-7.4 7-7.4 9z"/>
  <path class="cls-4" d="m9.7 97.3 3.6 0.6c1.8-11 11.4-27.6 11.2-27.9-5.4 3.9-12.8 16.9-14.8 27.3z"/>
  <path class="cls-1" d="m36.3 30-6.3 11.5c-1.3 4-1.7 4.8-3.1 6.2-2.8 3.4-8.2 11.2-3.4 21 0.6 0.8 1 1.3 1 1.3-1.2 8.1 3.6 14.5 10.6 16.7 1.4 4 7.6 9.2 14.6 11-1.2-5 5-7.8 12.4-9.4 8.4-2.2 17.8-5 24-14.3 2.8-5.1 3.8-11.7 2.6-17.9l-3-9.8c-1.6-4.4-2-10.4-2.4-14.4l-9.2-4.8-35-2-2.8 4.9z"/>
  <path class="cls-8" d="m86.1 26.5c-2.4-2-7.6-4.4-9.6-5.4 2.8 4.4 0 9.6-1.8 10.2 1.6 0.6 4.3 1.8 4.3 2 0.5 10.4 2.7 16 2.2 24.8-1.7 16.6-15.1 20.4-23.9 23.6-5.8 2-11 4.4-11.8 9.4-0.2 2.6 2 5.2 4.2 6.6-1-5.2 5.2-7.6 12.4-9.4 8.4-2 17.8-5 24-14.3 2.8-5.1 3.8-11.7 2.6-17.9l-3-9.8c-2-5.8-2.6-14.2-2.6-14.2l3-5.6z"/>
  <path class="cls-7" d="m38.9 28.7c-2 4.4-3.2 9-2.8 13.2 0.2 0.8 0.2 1.4 0.8 1.4 3.6 0.8 6.2-3 11.8-2.8l10.2 0.6c4-0.4 7.2 0.4 9.8 2.4 2 1.4 5.8 3.8 8.4 1.8 2.8-2.4 2.2-9.4 1.8-12.2-8.8-4.4-23.8-8.4-40-4.4z"/>
  <path class="cls-1" d="m39.1 19.1c3.4-1.2 8.8-2.2 16-2.2 8.6 0 16.2 1.6 21.4 4.2 2.8 4.4 0 9.6-1.8 10.2-10.2-4.4-25.4-5.8-35.8-2.6-0.8 1-1.4 2.6-2.6 1.3-1.6-2.5-1-9.9 2.8-10.9z"/>
  <path class="cls-3" d="m39.1 19.1c3.2-6 11.6-17.3 26-17.3 14.8-0.9 26.8 5.7 34.4 23.7l-4.6 4.5c-2.2-1.5-7.4-3.5-8.8-3.5-0.6-0.8-1.8-1.4-1.8-1.4-9.2-6-28.2-11.4-45.2-6z"/>
  <path class="cls-9" d="m79.6 12.1c2.9 0.8 5.5 3.4 6.9 7 3.2 1 6.4 2.6 10 7.8l-1.6 2.8c-1-0.6-6.2-3.2-8.8-3.2l-1.8-1.4c-0.2-5.6-2-10.2-4.7-13z"/>
  <path class="cls-1" d="m94.5 32.1c0 3.4 2.4 6.2 6.2 6.2 3.6 0.2 6.6-2.4 6.6-6.2 0-3-2.6-6-6.2-6.6-3.2-0.2-6.6 2.6-6.6 6.6z"/>
  <path class="cls-7" d="m83.7 36.3c2 0 5.2 1 5.2 5 0 3-1.4 4.8-2.6 5-1.2-2.2-2.8-10-2.6-10z"/>
  <path class="cls-1" d="m35.9 43.1c1.4 1 4.2 0 5.6-0.6 3-1.4 6.2-2.6 9.6-1.8l8.8 0.4c3.8-0.4 6.8 0.6 9.2 2.6 2.4 1.6 5.6 3.4 8 1.6l1.2-0.8-0.2 2.6-1.8 3.2-21 0.2-14.6 0.6-8-4.4-1.6-3.6v-1.6l4.8 1.6z"/>
  <path class="cls-8" d="m31.3 43.3c0.8 3.2 3.6 7 10.8 7.2 5.6 0 9.2-2.6 11.2-3.6 0.6-0.2 1.4-0.2 1.4 0-2.2 4-6.2 6.4-11.2 6.4-6 0-11.8-3.2-12.2-10z"/>
  <path class="cls-8" d="m78.3 47.3c-1.8 2.8-5.6 4.8-10.4 5-5.6 0-8.6-3-11.2-5-0.6-0.4-1.4-0.6-1.4-0.4 1 4 5.4 8 12.2 8 5 0 9.4-2.6 10.8-7.6z"/>
  <path class="cls-12" d="m51.3 50.5 1.8-1.6c1.2 1.2 3 1.2 3.8 0.4l1 1.6c-1.4 1.6-4.4 2.4-6.6-0.4z"/>
  <path class="cls-9" d="m54.7 50.9c0.2 0.8-0.4 1.4-0.6 1.4 1.4 0.4 2.8 0 3.8-0.8l-1-1.2c-0.4 0.4-1.2 0.6-2.2 0.6z"/>
  <path class="cls-1" d="m49.5 29.1c-2.8-0.4-5.4 1.2-6.2 3-0.4 2 1.6 1.2 3.6 1 1.8-0.2 4.8 0.4 4.8-1.8 0-1.2-1.2-2.2-2.2-2.2z"/>
  <path class="cls-1" d="m64.7 30.7c2.8-0.6 5.2 1 6 2.8 0.8 2-0.8 2-2.6 1.2-1.6-0.6-5.2-0.2-5.2-2.2 0-1 0.8-1.8 1.8-1.8z"/>
  <path class="cls-14" d="m45.7 40.5c-1.2-1.4-3.6-1.8-5.6-1.4-2.2 0.4-4.2 2-4 3 0 0.6 0.2 1.2 0.8 1.4 3 0.2 5.8-2 8.8-3z"/>
  <path class="cls-14" d="m67.3 42.7c1-1 3.6-1.8 5.6-1.4 2.2 0.4 4 2.2 4 4.2-2.4 1.4-5.6-0.2-7.8-1.8l-1.8-1z"/>
  <path class="cls-10" d="m51.1 40.9c0 1.8 2 3.2 4.4 3.2s4.4-1.4 4.4-3-2-2.6-4.4-2.8c-2.4 0-4.4 1-4.4 2.6z"/>
  <path class="cls-11" d="m45.7 38.1 1.4-0.4c1-0.2 2.6 0.8 2.6 0.6 0.6-1.8-0.2-3.8-1.8-3.8-2 0-2.2 2.4-2.2 3.6z"/>
  <path class="cls-11" d="m63.7 39.5 1.2-0.4c1-0.2 2.4 0.6 2.6 0.6 0.6-2-0.2-3.8-1.8-3.7s-2 2.3-2 3.5z"/>
  <path class="cls-1" d="m88.8 65.7c10.1-4.2 21.1-6.6 32.7-4.6 5.4 1.2 9.8 1.4 9.2 6.4-0.8 5.4-1.6 7.4-4.2 6.5-10-4.7-21.8-7.3-36.4-1.9l-4 1.9 2.7-8.3z"/>
  <path class="cls-15" d="m127.1 81.9c4.8 4 10.6 10.6 12.8 21.2"/>
  <path class="cls-16" d="m115.9 4.5"/>
  <path class="cls-1" d="m123.5 6.9 1.2 0.4 0.4-0.8-1.4-0.4 1.6 0.4v-0.8l-2.4 0.2-2.2-0.8 1.7-0.8 2.3 0.6 0.4-0.8-1.4-0.4 1.2-0.2-0.2-1-1.2 0.4 0.2-1.2-0.8-0.2-0.6 2-1.8 1v-2l1.6-1.2-0.4-0.6-1.2 1v-0.8h-0.8v1.2l-1-1-0.6 0.6 1.4 1.4 0.2 1.8-1.8-0.8-0.6-2h-0.8l0.2 1.2-0.8-0.8-0.6 1 1 0.4-1 0.2 0.2 0.8 2-0.2 2 1-2 0.8-1.8-0.2-0.2 0.8 1.2 0.2-1 0.4 0.4 1.4 0.8-0.2 0.6-1.8 2.2-0.8v2.2l-1.6 1.2 0.6 0.8 1-0.8v1h0.8l0.2-1 0.8 0.8 0.6-0.6-1.4-1.4v-2.2l2 1 0.4 2 0.8-0.2-0.2-1.2 0.8 0.4z"/>
  <path class="cls-1" d="m24.3 1.5 0.6 0.6 1.2-1.2 1.4 1.4 0.8-0.6-1.6-1.6 0.2-0.1h-2.2z"/>
  <path class="cls-1" d="m4.5 20.1v1.4l-1.6-0.8 0.4 1.2-0.8 0.2-0.6-2-1-1v2l1.2 1.8-0.6 0.4-0.6-1.2-0.2 1.6h-0.6v-1.6l0.8-0.6v-1.4l-0.4 0.4-0.4-0.4 0.8-1-0.8-0.8 0.4-0.6 0.4 0.2v-2.4l-0.8-0.6v-1l0.8 0.6-0.2-1.6h0.8l0.2 1.4 0.8-1 0.8 0.6-2.4 1.6v2.4l2-1 0.4-2.4 0.8 0.2-0.2 1.2 1-0.6 0.4 0.6-1.2 0.6 0.6 0.2 0.2 0.8-1.8-0.4-2.2 1 2.2 1 1.8-0.2v0.8l-1.6 0.2z"/>
  <path class="cls-1" d="m149.9 49.1v-1.4l-0.8 0.4 0.4-1.8-0.8-0.2-0.6 2-1.6 1v-2l1.6-1.4-0.6-0.6-1 1v-1.2l-0.6-0.2v1.2l-1-0.8-0.6 0.6 1.6 1.4v2l-2-1-0.4-2-0.8 0.2 0.4 1.4-1-0.8-0.4 0.6 1.2 0.8-1-0.4-0.2 0.8 2 0.2 1.8 0.8-1.8 1.2-1.8-0.4-0.2 0.8 1.2 0.2-1 0.6 0.4 0.8 1.2-0.4-0.4 1.2 0.8 0.2 0.6-1.8 1.4-1v2.2l-1.2 1.4 0.6 0.8 0.8-1v1.4h0.8v-1.4l0.8 0.8 0.6-0.6-1.4-1.4v-2.4l1.8 1 0.6 2.2 0.8-0.2-0.4-1.4 0.6 0.4v-1.4l-1.2-0.2-2.2-1.2 1.8-1 1.6 0.4v-0.6z"/>
</svg>