<svg xmlns="http://www.w3.org/2000/svg" viewBox="0 0 400 400">
  <!-- score-background-experiment: fall_leaves -->
  <defs>
    <linearGradient id="score-fall-bg" x1="0" x2="1" y1="0" y2="1">
      <stop offset="0%" stop-color="#fff3df"/>
      <stop offset="56%" stop-color="#f4d39d"/>
      <stop offset="100%" stop-color="#c95f32"/>
    </linearGradient>
  </defs>
  <rect x="0" y="0" width="100%" height="100%" fill="url(#score-fall-bg)"/>

<defs>
<symbol id="m" viewBox="-20 -25 40 50">
<path d="M0,-22 C-8,-18 -14,-10 -16,0 C-14,10 -8,18 0,22 C8,18 14,10 16,0 C14,-10 8,-18 0,-22 Z" fill="currentColor"/>
<path d="M0,-22 L0,22" stroke="#5a2a0a" stroke-width="1.2"/>
<path d="M0,-12 L-10,-6 M0,0 L-13,2 M0,10 L-9,14 M0,-12 L10,-6 M0,0 L13,2 M0,10 L9,14" stroke="#5a2a0a" stroke-width="0.8" fill="none"/>
</symbol>
<symbol id="o" viewBox="-20 -20 40 40">
<path d="M0,-18 C-6,-14 -10,-8 -10,0 C-10,8 -6,14 0,18 C6,14 10,8 10,0 C10,-8 6,-14 0,-18 Z M-10,0 L10,0 M-7,-10 L7,10 M7,-10 L-7,10" fill="currentColor" stroke="#5a2a0a" stroke-width="0.8"/>
</symbol>
<symbol id="s" viewBox="-22 -22 44 44">
<path d="M0,-20 L5,-7 L19,-6 L8,3 L13,17 L0,9 L-13,17 L-8,3 L-19,-6 L-5,-7 Z" fill="currentColor" stroke="#5a2a0a" stroke-width="0.8"/>
<path d="M0,-20 L0,20" stroke="#5a2a0a" stroke-width="0.6"/>
</symbol>
</defs>

<use href="#m" x="60" y="70" width="55" height="65" color="#d94924" transform="rotate(20 87 102)"/>
<use href="#s" x="160" y="40" width="60" height="60" color="#f2a83b" transform="rotate(-15 190 70)"/>
<use href="#o" x="290" y="80" width="50" height="50" color="#e8741c" transform="rotate(35 315 105)"/>
<use href="#m" x="320" y="180" width="48" height="56" color="#c43a18" transform="rotate(-25 344 208)"/>
<use href="#s" x="40" y="200" width="55" height="55" color="#e8a02b" transform="rotate(45 67 227)"/>
<use href="#o" x="180" y="160" width="58" height="58" color="#f5b339" transform="rotate(-40 209 189)"/>
<use href="#m" x="100" y="280" width="52" height="62" color="#d65a1e" transform="rotate(60 126 311)"/>
<use href="#s" x="240" y="290" width="50" height="50" color="#bf3a14" transform="rotate(10 265 315)"/>
<use href="#o" x="320" y="320" width="45" height="45" color="#f2a02b" transform="rotate(-20 342 342)"/>
<use href="#m" x="20" y="320" width="40" height="48" color="#e07028" transform="rotate(-50 40 344)"/>
</svg>