<svg xmlns="http://www.w3.org/2000/svg" viewBox="0 0 140 159">
<style type="text/css">.cls-0 {fill:#FFFFF8;}
.cls-1 {fill:#1778CA;}
.cls-2 {fill:#DC2528;}
.cls-3 {fill:#FBCD1B;}
.cls-4 {fill:#1778CA;}
.cls-5 {fill:#FDEAE6;}
.cls-6 {fill:none;stroke:#F4B69F;stroke-width:1.4173;stroke-linecap:round;stroke-linejoin:round;stroke-miterlimit:10;}
.cls-7 {fill:#FFFFFF;}
.cls-8 {fill:#F4B69F;}
.cls-9 {fill:none;stroke:#F4B69F;stroke-width:1.4173;stroke-linecap:round;stroke-linejoin:round;stroke-miterlimit:10;}
.cls-10 {fill:#231F20;}
.cls-11 {fill:#F8C3AD;}
.cls-12 {fill:#161514;}
.cls-13 {fill:none;stroke:#F4B69F;stroke-width:1.3606;stroke-linecap:round;stroke-linejoin:round;stroke-miterlimit:10;}</style>
<rect class="cls-0" width="140" height="159"/>
<g>
	<path class="cls-4" d="M 66.8,113.3 c -0.6,0 -1.8,0.8 -1.9,1.8 L 64.8,117 C 64.8,117.8 65.7,119.2 67,119.3 H 79 C 80.3,119.4 81.7,118.3 81.8,116.9 C 81.8,115.4 81.7,113.9 80,113.7 L 66.8,113.3 z"/>
	<path class="cls-4" d="M 110.9,103.9 C 99.1,104 84.5,113.7 84.5,131 C 84.5,144 94.2,157.7 111,157.9 C 128.4,157.9 138.1,145.5 138.4,132 C 138.7,118.8 127.5,103.6 110.9,103.9 z M 111.1,148.1 C 102.3,147.9 93.6,140.4 93.6,131 C 93.6,121.6 101.4,114.3 111.4,113.7 C 118.9,113.2 129.3,119.4 129.3,130.6 C 129.3,139.4 122.5,148.3 111.1,148.1 z"/>
	<path class="cls-3" d="M 100.5,99.9 C 93.6,102.4 88.8,106.6 85.5,111.2 C 84.4,113.1 88.4,116.2 90.6,114.7 C 94.6,110 98.6,107.1 102.6,105.7 L 101,99.9 H 100.5 z"/>
	<path class="cls-3" d="M 108.9,57.6 C 107.9,57.2 106.6,57.5 105.9,58.4 L 93,62.5 L 94.2,68.6 L 95,68.5 L 107.5,64.6 C 108.6,64.5 109.6,63.8 110,62.6 L 109.9,62.7 C 110.4,61 109.9,58.6 108.9,57.6 z"/>
	<path class="cls-3" d="M 108.6,126.2 C 107.2,127.3 105.5,130.2 106.1,132.4 C 106.6,134.5 108.6,136.5 111.2,136.5 C 114.4,136.7 116.9,134.5 116.9,130.9 C 116.6,127.2 113.1,124.5 108.6,126.2 z"/>
	<path class="cls-3" d="M 82.1,66.9 C 81,68.6 81.1,71.4 83.6,72.2 C 85.2,72.7 86.2,71.9 87.9,71.4 L 95.1,68.5 L 94.1,63.6 L 85.1,66 C 84.1,65.6 82.8,66 82.1,66.9 z"/>
	<path class="cls-3" d="M 108.6,98.4 L 109.9,103.9 C 114.5,103.4 120.4,104.5 124.2,106.6 C 126.6,107.9 127.5,109.9 130.5,109.4 C 132.1,108.9 133,107.9 132.8,105.9 C 127.6,101.6 119.4,97.5 108.6,98.2 V 98.4 z"/>
	<path class="cls-2" d="M 105.1,79.6 L 96.9,81.4 L 97.9,86 C 93.1,87 87.6,88.2 84.1,89.4 L 80,90.4 L 79.6,100 C 83.6,98.4 93.1,95.6 99.4,94.4 L 106.5,129.2 C 107.5,134.4 115.1,134.7 114.9,128.7 L 105.1,79.6 z"/>
	<path class="cls-2" d="M 63.4,98.6 L 58.8,101 L 57.5,98.4 L 48,98.6 L 51.5,105.7 C 48,108 41.6,112.6 37.2,116.7 L 43.2,123.2 C 49.2,118.6 59.5,111 65.6,107.4 L 66.5,106.9 L 65.8,98.4 L 63.4,98.6 z"/>
	<path class="cls-2" d="M 22.5,130.5 L 29.5,135.6 L 38,127.9 L 31.4,122.1 L 22.5,130.5 z"/>
	<path class="cls-4" d="M 24.6,112.6 C 12.5,112.5 2.2,122.1 2.1,134.7 C 2.4,147.1 11.5,157.5 24.6,157.6 C 37.9,157.6 47.5,147.9 47.5,135.2 C 47.5,124 38.5,112.9 24.6,112.6 z M 24.5,149.2 C 16,149.2 10.1,143.1 10,135.2 C 10,128.2 16,121.2 24.5,121.2 C 32,121.2 39,127 39.1,135.1 C 39,142.5 33.1,149.1 24.5,149.2 z"/>
	<path class="cls-3" d="M 24.5,129.7 C 21.6,129.7 19.4,131.7 19.4,135 C 19.4,137.5 21.4,140.2 24.5,140.1 C 27.2,140.2 29.6,138 30,135.5 C 30.1,132.1 27.6,129.7 24.5,129.7 z"/>
	<path class="cls-3" d="M 45.5,91.2 C 41.6,89.4 40,85.2 38.9,81.7 C 38,79.5 35.1,78.2 32.9,80.6 C 31.2,82.4 32.2,84.6 33,87.7 C 34.6,94.1 36,97.9 42.4,98.6 C 45.4,98.9 56.5,99.1 65.4,98.6 L 65.5,93.7 C 59.1,93.5 50.1,93.5 45.5,91.2 z"/>
	<path class="cls-2" d="M 95.4,77.2 L 96.1,81 C 96.1,81.5 96.6,81.6 97,81.6 L 105.1,79.9 C 105.5,79.9 105.6,79.5 105.5,79 L 104.9,75.5 C 104.9,75.1 104.5,75 104.1,75 L 96.1,76.5 C 95.6,76.5 95.4,76.9 95.4,77.2 z"/>
	<path class="cls-3" d="M 95.4,64.9 L 97.4,77.5 L 103.6,76.5 L 101.4,64.5 L 95.4,64.9 z"/>
	<path class="cls-3" d="M 95.4,77.2 L 96.1,81 C 96.1,81.5 96.6,81.6 97,81.6 L 105.1,79.9 C 105.5,79.9 105.6,79.5 105.5,79 L 105,75.6 C 105,75.1 104.6,75 104.1,75 L 96.1,76.5 C 95.6,76.5 95.4,76.9 95.4,77.2 z"/>
	<path class="cls-7" d="M 89.6,16.2 C 90.5,15.4 91.9,13.1 90.9,10.6 C 89.6,7.6 83.2,2.4 72.1,2.4 C 58.9,2 50.1,10.6 48,19.1 C 46.6,24.9 48.1,35.5 58.4,41.6 C 51.2,46.6 41.4,63.1 41,76.6 C 41,85.2 44.5,90.4 51.6,92.2 C 55.5,93.4 62.6,93.5 65.9,93.6 C 65.6,96.5 66.5,104.7 66.5,104.7 C 66.5,107 64.1,112.9 69.1,113.6 C 75.4,114.1 82.4,115.5 82.1,111.6 C 82,109.6 79,107.5 77.4,106 C 79,101.4 81.4,92.7 81.1,88.6 C 80.9,83.9 76.9,80.4 73.1,78.9 C 74.4,77.2 76.1,73 76.4,69.5 C 78.4,69.5 79.5,69.5 81.9,69.4 C 81.9,67.9 82.4,66.6 84.1,66.1 L 86.9,66.5 L 84.6,65.5 L 85.5,65.6 C 84.9,64.4 88,66.1 88.1,68.1 L 90,69.5 L 93.1,68 C 94.5,67 95.1,64.9 93.1,62.6 C 91.4,60.6 89.4,60.4 87.5,60.2 C 82.9,60.1 73.5,58.4 68,52.5 C 70.5,54.4 74.5,56.6 76.6,57.4 C 76.5,54.6 75.4,49.1 74.6,46 C 81,46.1 89.6,44.1 91,37.6 C 92,32.6 90.4,30.5 90.6,28 C 91.1,24 91.4,20.2 89.6,16.2 z"/>
	<path class="cls-5" d="M 75.1,75.6 L 73.2,78.7 C 76.1,80 79.7,82.4 81,85.9 C 81.9,88.9 81.4,91.4 81,94.1 L 84.6,90 C 85.5,87.6 86.4,80.4 75.1,75.6 z"/>
	<path class="cls-5" d="M 81.4,101.5 L 82.4,98.6 L 79.5,99.6 L 77.5,105.7 L 81.6,109.6 C 83.6,110 86,109.9 86.1,107.1 C 86.1,104.5 81.4,101.5 81.4,101.5 z"/>
	<path class="cls-6" d="M 75.5,46 C 79,49.9 85.5,55.9 97.5,56.5 C 99.9,56.5 102.4,55.9 104.1,57.1 C 107.9,59.1 106.5,63.1 103.5,62 C 102.4,61.4 100.6,59.5 98.6,60.5"/>
	<path class="cls-9" d="M 74.5,45.9 C 75.5,49 76.5,55.4 76.5,57.4"/>
	<path class="cls-6" d="M 89.5,16.2 C 91.6,15.1 91.6,12 91.1,10.7 C 89.6,7.5 83.1,2.2 72.1,2.4 C 58,1.9 48,10.9 47.5,22.5 C 47.1,33.2 53.4,39 58.4,41.6 C 52.2,45.6 40.9,62.5 41,78 C 41.4,91.5 51.4,93.2 66,93.6 C 65.6,97.5 66.5,104.1 66.5,105.6 C 65.4,110.6 66.4,113 69,113.6 C 75.1,114.2 82.9,115.6 82.1,111.2 C 81.9,109.5 79.1,107.6 77.4,106 C 78.4,102.5 81.4,93.6 81,88.1 C 80.5,81.2 72.1,77.9 66.1,76.9"/>
	<path class="cls-6" d="M 76.4,69.4 C 76.1,73.1 74.6,76.6 73.2,78.7"/>
	<path class="cls-6" d="M 58.4,61.7 C 63.6,66.6 69.6,69.4 81.4,69.1"/>
	<path class="cls-9" d="M 68,51.4 C 70.9,54.5 77.1,59.4 87.5,59.9 C 94.6,59.9 95.5,66 93.1,67.9 C 90.6,69.6 88.4,70.2 87.6,68.4 C 87.4,66.5 85.5,65.5 84.6,65.5"/>
	<path class="cls-8" d="M 89.6,32.1 C 87.4,33.6 88.4,37.2 90.4,37.9 L 91,32 C 90.6,31.9 90,31.9 89.6,32.1 z"/>
	<path class="cls-9" d="M 77.4,17.7 C 83.4,19.4 87.9,17.9 87.1,13.6"/>
	<path class="cls-9" d="M 62.4,28.6 C 60.6,26.5 56.1,26 55,30 C 54.2,32.4 56,36.9 61,35.9"/>
	<path class="cls-9" d="M 58,30.5 C 59.6,30.1 61.4,32.1 61,33.5"/>
	<path class="cls-6" d="M 76.4,75.9 C 81.6,77.5 86.5,81.5 84.9,88.9"/>
	<path class="cls-9" d="M 84.6,32.9 C 86.1,33 86.6,31.1 84,30.9"/>
	<path class="cls-9" d="M 80.6,36.4 C 81.6,37.9 84.1,38.7 86.1,37.1"/>
	<path class="cls-9" d="M 75,23.9 C 75.6,23.1 77,22.6 78.1,23.1"/>
	<path class="cls-9" d="M 87,23.4 C 87.5,22.9 88.9,22.9 89.5,23.4"/>
	<path class="cls-6" d="M 70,45.1 C 77.9,47 89.9,45.5 91.1,36.6 C 91.6,32.4 90.4,30.5 90.6,28 C 91.4,23.1 91,19.5 89.5,16.4"/>
	<path class="cls-9" d="M 68.1,51.4 C 70.9,54.4 76.9,59.4 87.6,59.9"/>
	<path class="cls-6" d="M 81.5,101.5 C 83.1,102.4 86.4,104.4 86.1,107 C 86,109.1 84.1,110 82.1,109.6"/>
	<path class="cls-6" d="M 70,45.1 C 78.6,47 89.5,45.4 91.1,36.6"/>
	<path class="cls-13" d="M 89.5,66.6 C 90.1,67.4 90.5,68.9 89.4,69.4"/>
	<path class="cls-13" d="M 92.1,65.4 C 92.6,66.5 92.6,68.1 90.9,68.9"/>
	<path class="cls-9" d="M 70,45.1 C 78.6,47 89.6,45.4 91.1,36.6"/>
	<path class="cls-11" d="M 73.9,31.7 C 72.1,32 70.9,33.6 70.9,35.1 C 71,37 72.5,38.4 74.4,38.2 C 76.1,38.1 77.2,36.6 77.2,35 C 77.1,33.1 75.6,31.7 73.9,31.7 z"/>
	<path class="cls-12" d="M 77.2,26.7 C 76.4,27.1 75.9,28.1 76.1,29.5 C 76.4,31.7 78.5,31.9 78.9,29.6 C 79.2,27.9 78.1,26.5 77.2,26.7 z"/>
	<path class="cls-12" d="M 87.9,26.9 C 86.9,27.4 86.9,29.4 87.4,30.4 C 88,31.2 89.6,31.4 89.6,29 C 89.6,27.9 89,26.7 87.9,26.9 z"/>
	<path class="cls-6" d="M 70,45.1 C 78.6,47 89.5,45.4 91.1,36.6"/>
	<path class="cls-8" d="M 89.9,31.9 C 86.9,32.6 87.9,37.4 90.1,37.9 C 90.6,36.1 90.5,33.5 90.4,31.9 H 89.9 z"/>
	<path class="cls-9" d="M 89.5,16.4 C 90.6,15.6 91.6,13.9 91.1,11.1"/>
</g>
</svg>