<svg xmlns="http://www.w3.org/2000/svg" viewBox="0 0 150 100">
<style type="text/css">.cls-0 {fill:#02070D;}
.cls-1 {fill:#FCD918;}</style>
<g>
	<path class="cls-0" d="M 8.7,93.1 C 9,92.7 9,92.4 9,91.9 C 9,91 8.5,91 7.6,91 C 8.3,90.6 8.5,90 8.5,89.3 C 8.5,88.1 7.6,87.2 5.8,87.2 H 2 V 95.3 H 5.8 C 7.6,95.3 8.7,94.7 8.7,93.1 z M 3.8,88.6 H 5.6 C 6.3,88.6 6.7,89 6.7,89.5 S 6.3,90.4 5.6,90.4 H 3.8 V 88.6 z M 3.8,93.6 V 91.8 H 5.8 C 6.7,91.8 7.2,92.2 7.2,92.7 S 6.7,93.6 5.8,93.6 H 3.8 z M 11.6,95.3 H 9.9 V 86.6 H 11.6 V 95.3 z M 13.1,93.4 C 13.1,94.3 13.8,95.3 15.3,95.3 C 16.2,95.3 16.9,95.1 17.3,94.5 V 95.3 H 18.9 V 91.7 C 18.9,89.9 17.8,89 16.2,89 C 15.3,89 14.3,89.2 13.3,89.6 L 13.8,90.8 C 14.3,90.6 14.9,90.4 15.6,90.4 C 16.5,90.4 16.9,90.8 16.9,91.5 H 15.6 C 13.8,91.5 13.1,92.2 13.1,93.4 z M 16.9,92.7 V 93.3 C 16.7,93.8 16.2,94.2 15.6,94.2 C 15.1,94.2 14.5,93.8 14.5,93.4 C 14.5,92.9 14.9,92.7 15.6,92.7 H 16.9 z M 23.5,95.3 C 24.8,95.3 25.9,94.7 26.3,93.8 L 24.9,93.1 C 24.6,93.6 24.1,93.8 23.5,93.8 C 22.8,93.8 22,93.1 22,92.2 S 22.6,90.4 23.5,90.4 C 24.1,90.4 24.6,90.6 24.9,91.2 L 26.4,90.5 C 25.9,89.5 25,89 23.7,89 C 21.7,89 20,90.1 20,92.2 C 20,94.2 21.5,95.3 23.5,95.3 z M 29.2,93.6 L 30.1,92.9 L 32,95.3 H 34.4 L 31.5,91.6 L 34,89 H 31.8 L 29.2,91.4 V 86.6 H 27.3 V 95.3 H 29.2 V 93.6 z M 41.3,93.8 C 40.4,93.8 39.5,93.4 38.6,93.1 L 37.9,94.4 C 38.6,95 39.9,95.3 41.3,95.3 C 43.5,95.3 44.7,94.4 44.7,92.9 C 44.7,90.1 40.1,91 40.1,89.5 C 40.1,89 40.6,88.6 41.5,88.6 C 42.2,88.6 43.1,88.8 43.8,89.2 L 44.4,87.8 C 43.7,87.4 42.6,87 41.7,87.1 C 39.5,87.1 38,88.2 38,89.5 C 38.1,92.7 42.8,91.4 42.8,93.1 C 42.6,93.6 42.2,93.8 41.3,93.8 z M 48.9,95.3 C 50.2,95.4 51.3,94.9 52,93.8 L 50.6,92.9 C 50.2,93.6 49.6,93.8 48.9,93.8 C 48.4,93.6 47.3,93.3 47.3,92.2 C 47.3,91 48,90.4 48.9,90.4 C 49.5,90.4 50,90.6 50.4,91.2 L 52,90.5 C 51.5,89.5 50.6,89 49.3,89 C 47.3,89 45.5,90 45.5,92.2 C 45.5,94.2 47.1,95.3 48.9,95.3 z M 55.9,89 C 54,89 52.6,90.4 52.6,92.1 C 52.6,93.9 54,95.3 55.9,95.3 S 59.3,94 59.3,92.2 C 59.3,90.4 57.9,89 55.9,89 z M 55.9,93.8 C 55.1,93.8 54.4,93.1 54.4,92.2 S 55,90.4 55.9,90.4 S 57.5,91 57.5,92.1 S 56.8,93.8 55.9,93.8 z M 62.4,92.1 C 62.4,91 63,90.5 64,90.5 H 64.4 V 88.8 C 63.5,88.8 62.8,89.2 62.4,89.7 V 89 H 60.6 V 95.3 H 62.4 V 92.1 z M 67.3,94.5 C 67.6,95.1 68.4,95.3 69.3,95.3 C 70.7,95.3 72.2,94.2 72.2,92.2 C 72.2,90.4 71.1,89 69.3,89 C 68.5,89 67.8,89.2 67.3,89.7 V 89 H 65.5 V 97.6 H 67.3 V 94.5 z M 68.7,90.4 C 69.6,90.4 70.4,91 70.4,92.1 S 69.6,93.8 68.7,93.8 S 67.3,93.3 67.3,92.2 S 67.8,90.4 68.7,90.4 z M 74.2,86.2 C 73.5,86.2 73.1,86.6 73.1,87.2 S 73.5,88.2 74.2,88.2 C 74.9,88.2 75.4,87.8 75.4,87.2 S 74.9,86.2 74.2,86.2 z M 73.5,89 H 75.3 V 95.3 H 73.5 V 89 z M 79.6,89 C 77.8,89 76.4,90.4 76.4,92.1 C 76.4,94 77.8,95.3 79.6,95.3 C 81.6,95.3 83.1,94.1 83.1,92.1 C 83.1,90.4 81.6,89 79.6,89 z M 79.6,93.8 C 78.9,93.8 78.2,93.1 78.2,92.2 C 78.2,91.2 78.9,90.4 79.6,90.4 C 80.5,90.4 81.3,91 81.3,91.9 C 81.3,93.1 80.5,93.8 79.6,93.8 z M 86.4,92.2 C 86.4,91 86.9,90.5 87.8,90.5 C 88.5,90.5 89.3,91 89.3,91.9 V 95.3 H 91 V 91.5 C 91,89.7 89.8,89 88.5,89 C 87.6,89 86.9,89.2 86.4,89.7 V 89 H 84.4 V 95.3 H 86.2 V 92.2 H 86.4 z M 101.8,93.6 H 97.9 V 87.1 H 96 V 95.3 H 101.8 V 93.6 z M 105.8,89 C 104,89 102.4,90.6 102.4,92.2 C 102.4,94.1 104,95.3 105.8,95.3 C 107.6,95.4 109.3,94.1 109.3,92.1 C 109.3,90.4 107.8,88.8 105.8,89 z M 105.8,93.8 C 104.9,93.8 104.2,93.1 104.2,92.2 S 104.7,90.4 105.6,90.4 C 106.7,90.4 107.3,91 107.3,91.9 C 107.3,93.1 106.7,93.8 105.8,93.8 z M 115.5,89.7 C 115.1,89.2 114.4,88.8 113.3,89 C 111.8,89 110.2,90.1 110.2,91.9 C 110.2,93.8 111.6,94.9 113.3,94.9 C 114.2,94.9 114.9,94.7 115.5,94.1 V 94.4 C 115.5,95.6 114.9,96.2 113.6,96.2 C 112.9,96.2 112,96 111.5,95.6 L 110.5,96.7 C 111.3,97.4 112.4,97.6 113.6,97.6 C 115.8,97.6 117.1,96.7 117.1,94.5 V 89 H 115.6 L 115.5,89.7 z M 113.8,93.4 C 112.9,93.4 112.2,92.9 112.2,91.9 S 112.9,90.4 113.8,90.4 S 115.5,91 115.5,91.9 S 114.7,93.4 113.8,93.4 z M 119.5,86.2 C 118.9,86.2 118.4,86.6 118.4,87.2 S 118.9,88.2 119.5,88.2 S 120.7,87.8 120.7,87.2 S 120.2,86.2 119.5,86.2 z M 118.6,89 H 120.5 V 95.3 H 118.6 V 89 z M 123.5,90.8 C 123.5,90.4 123.8,90.4 124.5,90.4 S 126,90.6 126.5,90.8 L 127.1,89.5 C 126.5,89.2 125.6,89 124.7,89 C 122.9,89 121.8,89.7 121.8,91 C 121.8,93.4 125.6,92.2 125.6,93.4 C 125.6,93.8 125.3,93.8 124.5,93.8 C 123.6,93.8 122.9,93.6 122.5,93.4 L 121.6,94.6 C 122.4,95.1 123.5,95.3 124.5,95.3 C 126.4,95.3 127.6,94.4 127.6,93.3 C 127.6,90.8 123.5,92.1 123.5,90.8 z M 131.5,93.6 C 130.9,93.8 130.7,93.4 130.7,92.9 V 90.5 H 132.4 V 89 H 130.9 V 87.6 H 129.1 V 89 H 127.9 V 90.5 H 129.1 V 93.3 C 129.1,94.7 130,95.4 131.3,95.3 C 131.8,95.3 132.5,95.3 132.9,94.9 L 132.5,93.6 C 132.4,93.6 132,93.8 131.5,93.6 z M 134.2,86.2 C 133.6,86.2 133.5,86.6 133.5,87.2 S 133.6,88.2 134.4,88.2 S 135.8,87.8 135.8,87.2 S 135.3,86.2 134.7,86.2 H 134.2 z M 133.8,89 H 135.6 V 95.3 H 133.8 V 89 z M 140,93.8 C 139.3,93.8 138.4,93.1 138.4,92.2 S 138.9,90.4 139.8,90.4 C 140.4,90.4 140.9,90.6 141.3,91.2 L 142.7,90.5 C 142.2,89.5 141.3,89 140,89 C 138.2,89 136.7,90.4 136.7,92.1 C 136.7,93.9 138.2,95.4 140,95.3 C 141.3,95.3 142.4,94.9 142.7,93.8 L 141.3,93.1 C 141.1,93.6 140.5,93.8 140,93.8 z M 144.9,90.8 C 144.9,90.4 145.3,90.4 146,90.4 S 147.5,90.6 147.6,90.6 L 147.8,90.6 L 147.8,90.6 L 148,89.5 C 147.5,89.2 146.5,89 145.8,89 C 144,89 143.1,89.7 143.1,91 C 143.1,93.4 146.7,92.2 146.7,93.4 C 146.7,93.8 146.4,93.8 145.5,93.9 C 144.7,94 144,93.6 143.6,93.4 L 143.1,94.6 C 143.6,95.1 144.7,95.3 145.8,95.3 C 147.6,95.3 148.2,94.4 148.2,93.3 C 148.2,90.8 144.9,92.1 144.9,90.8 z"/>
	<path class="cls-0" d="M 70.2,17.2 C 73.6,16 73.5,13.6 75.3,12.8 C 77.6,11.7 79.6,10.6 78.7,7.6 C 77.8,5.4 75.9,4.3 73.5,5.1 C 72.6,5.6 70.9,7 70.7,8.8 C 70.2,12.2 72.7,14.6 70.2,17.2 z"/>
	<path class="cls-1" d="M 76.9,3.8 C 79.6,5 78.9,8.4 82.4,8.4 C 84.7,8.6 86.9,8.1 88,6.4 C 88.4,10.1 92.6,11.9 94.9,12.2 L 95.1,11.2 C 93.5,10.8 90.2,9.4 89.3,7.2 C 88.7,6 88.5,4 88.5,2.7 C 86.4,2 79.8,2.2 76.9,3.8 z"/>
	<path class="cls-0" d="M 76.9,3.8 C 78.9,4.6 79.6,7 82.9,7 C 86.2,7 88.4,5.9 88.5,2.6 C 86.2,2 79.6,2.2 76.9,3.8 z M 88.9,2.7 C 88.7,7 89.8,9.5 95.1,11.2 C 95.6,10.1 97.1,9 97.9,9 C 97.8,8.1 93.8,3.8 88.9,2.7 z M 97.6,9.9 C 96.4,10.4 95.1,12.1 95.1,13.8 C 94.9,16.6 96.7,18.4 97.5,19.2 C 99.5,17.9 101.1,18.1 102.2,19 C 102.2,15.6 100.9,12.8 99.1,10.1 C 98.9,9.9 98.4,9.7 97.6,9.9 z M 95.3,26.9 C 98,26.9 99.8,27.8 100.2,30.1 C 101.3,28.9 102.7,23.9 102.2,20.8 C 101.5,17.6 94.7,18.6 95.3,26.9 z M 90,32.8 C 91.8,33.6 95.3,35.6 95.8,38.4 C 97.5,36.4 99.8,33.6 99.6,31.2 C 99.5,27.8 93.8,25.6 90,32.8 z M 83.5,35.6 C 87.5,37.6 89.8,39 91.1,43.2 C 92.4,42.6 94.9,39.7 95.1,39.5 C 94.7,36.1 89.5,32.8 87.5,33.4 L 83.5,35.6 z M 77.8,38.1 C 82.4,40.4 84.4,42.2 85.8,46.9 C 87.3,46.4 90,44.4 90,44 C 90,40.6 85.1,36.6 81.6,36.4 L 77.8,38.1 z M 72.4,40.6 C 76.4,42.4 78.9,44.4 79.6,49.6 C 80.5,49.6 84.4,47.9 84.4,47.4 C 84.9,46.4 83.1,40.8 76.4,38.8 C 75.6,38.8 72.6,40.1 72.4,40.6 z M 60.7,47.4 C 59.6,48.8 59.6,50.6 61.8,52.2 C 65.1,53.4 68.7,53.1 71.8,52.6 C 73.5,52.4 78.2,51.2 78.5,50.6 C 79.1,50.1 78.4,43.6 71.1,41.2 C 69.8,40.8 62.7,44.6 60.7,47.4 z M 73.3,53.6 C 74,54.9 83.1,56.2 84.4,56.1 C 85.1,56.1 85.6,55.4 85.8,55.4 C 85.1,56.1 86.2,61.4 87.6,61.6 C 86.4,60.8 84.4,66.6 84.4,67.2 C 84.7,68.4 86.4,71.2 86.5,71 C 86.7,70.8 86.2,67.4 86.2,67.2 C 86.5,66.9 89.3,62.2 89.3,61.4 C 89.3,59.6 87.8,55 87.1,54.2 C 85.8,52.9 82.2,52.9 76.9,52.6 L 73.3,53.6 z M 77.5,57.8 L 77.5,57.8 C 75.8,58.4 74.7,60.8 74.4,62.2 C 74.2,63.4 75.8,64 75.6,67 C 77.1,66.4 79.3,63.4 79.3,61 C 79.5,56.4 78,56.6 72.4,55.1 L 69.5,54.4 H 66.2 C 64.5,55.6 67.1,57.4 72.6,58.6 C 74.9,58.8 74.4,58.6 77.5,57.8 z M 50.6,67.4 C 53.8,66.9 56.4,67.8 59.3,68.2 C 61.3,68.6 60.6,70.4 58,71.2 C 55.1,72.2 53.5,72.1 50.9,71.6 L 50.7,71.7 C 52.6,73.6 54.9,74.4 59.5,74.4 C 63.1,74.2 69.6,73.1 72.9,70.6 C 74.5,69.6 75.1,67.4 74.2,64.9 C 72.9,62.2 68.7,60.4 64.4,62.4 C 62.7,63.2 61.1,65 60,65 C 56.9,65.1 54,65.1 50.6,67.4 z M 92,49.6 C 90.7,49.2 84.7,49.6 82.9,49.9 L 79.3,51.5 C 81.8,52.2 89.1,52.6 90.7,52.2 C 91.5,52.1 91.6,51 91.8,51 C 91.1,52.6 94.2,57 95.3,56.9 C 94,57.4 94.9,62.4 95.1,63.4 C 95.6,64.4 98.4,66.2 98.4,65.9 C 98.4,65.6 96.4,62.6 96.4,62.6 C 96.7,61.4 96.9,57.6 96.9,56.6 C 96.7,54.9 93.1,50.1 92,49.6 z M 88.9,46.4 L 85.3,48.6 C 88.5,48.8 93.8,48.4 95.6,47.6 C 96.4,47.1 96.2,46.4 96.4,46.2 C 96.2,47.6 99.8,50.8 101.5,50.8 C 100.4,51.4 102.6,56.4 103.1,57.2 C 103.5,57.9 107.3,58.6 107.1,58.6 C 107.3,58.6 104.2,56.2 104.2,56.2 C 104.2,55.1 103.3,50.4 102.7,49.6 C 101.5,48.1 97.8,44.9 96.4,44.7 C 95.1,44.6 88.9,46.4 88.9,46.4 z M 108.7,48.1"/>
	<path class="cls-0" d="M 108.7,48.1 L 108.7,48.1 L 108.7,48.1 z"/>
	<path class="cls-0" d="M 108.5,48.1"/>
	<path class="cls-0" d="M 98.5,39.7 C 96.2,39.7 95.3,41.1 91.8,44.4 C 94.2,43.9 98.4,43.1 98.4,41.4 C 98.7,42.1 102.6,44.6 104.4,44.1 V 45 C 104.7,46.1 107.6,49.4 108,49.6 C 108.5,49.9 112.4,49.9 112.4,49.6 C 112.4,49.6 108.9,48.1 108.7,48.2 C 108.5,47.4 106.4,43.4 105.3,42.6 C 103.8,41.6 99.3,39.7 98.5,39.7 z M 34.4,60.4 H 34.5 C 35.1,56.1 37.6,53.6 39.1,53.9 C 40.4,55.4 38.9,59.6 38.6,59.9 C 40.4,59.4 42.4,57.2 43.1,54.6 C 43.5,53.4 44.4,53.4 45.3,52.9 C 47.5,51.7 48.9,50.1 48.7,47.6 C 48.4,44.9 45.3,42.6 41.1,45.1 C 39.1,46.4 37.5,48.1 36.5,50.8 C 33.3,54 32.4,56.9 34.4,60.4 z M 46.4,43.8 C 47.6,44 49.1,45.4 49.8,46.2 C 50.4,46.6 53.1,46.4 53.8,45.4 L 55.3,43.1 C 53.6,46.6 57.1,49.6 58.2,50.6 L 58.9,50.1 C 58.4,49.2 59.1,47.6 59.5,47.2 C 59.1,46.1 57.5,43.4 55.8,42.6 C 53.6,41.7 48,42.7 46.4,43.8 z M 56.9,42.1 L 58,42.9 L 59.6,40.8 C 60.9,41 61.6,40.4 62.2,39.5 C 62,41.1 62.7,44 62.7,44.1 L 65.3,42.4 C 64.5,40.8 64.4,37.2 62.9,37.4 C 62.4,37.4 59.3,39 58.7,39.5 L 56.9,42.1 z M 65.3,38.9 L 65.5,38.4 L 67.1,37.4 L 66.9,41.6 L 69.5,40.6 L 69.1,35.9 C 68.5,33.9 67.5,35.1 65.1,37 C 64.5,37.6 65.1,38.6 65.3,38.9 z M 70.2,36.6 L 72,35.6 L 71.5,39.7 L 74.2,38.6 C 74.2,35.4 74.5,32.9 72.7,33.4 L 70.2,35.4 L 70.2,36.6 z M 75.5,35.6 L 76.7,34.9 L 76.4,37.6 L 79.1,36.4 C 79.1,35 79.6,32.6 78.2,32.6 C 77.3,32.9 75.3,34.4 75.5,35.1 V 35.6 z M 58.7,54.6 L 58.9,53.9 C 59.3,53.1 60,52.4 60.6,52.1 L 59.3,50.6 C 57.6,51.6 58,53.9 58.7,54.6 z M 60.2,55.6 C 62.4,56.1 64.5,55.4 65.1,54.2 L 62.4,53.4 C 62,54.2 61.5,55.1 60.2,55.6 z"/>
	<path class="cls-1" d="M 97.3,5.6 C 107.5,13.6 106.4,28.4 98.4,37.9 L 100.4,38.4 C 104.5,31.6 109.6,14.4 97.3,5.6 z"/>
</g>
</svg>