<svg xmlns="http://www.w3.org/2000/svg" viewBox="0 0 128 128">
<!-- SVG created with Arrow, by QuiverAI (https://quiver.ai) -->
  <style type="text/css">.cls-0 {fill:#FED10B;}
.cls-1 {fill:none;stroke:#232323;stroke-width:1.2;stroke-linecap:round;stroke-linejoin:round;stroke-miterlimit:10;}
.cls-2 {fill:#F14238;}
.cls-3 {fill:#3885F8;}
.cls-4 {fill:#FFC6B6;}
.cls-5 {fill:#FBB5A6;}
.cls-6 {fill:#FFFFFF;}
.cls-7 {fill:#232323;}
.cls-8 {fill:#F2564B;}
.cls-9 {fill:none;stroke:#232323;stroke-width:1.3;stroke-linecap:round;stroke-linejoin:round;stroke-miterlimit:10;}</style>
  <path class="cls-0" d="m40.3 32c1.9-3.4 3.3-6.9 4.4-12.1 1.9-8.2 9.4-17.9 21.4-17.9 13.8-0.7 22.4 8.5 24.8 17.4 2.5 11.4 5.9 14.6 7.5 18.6 2 4.8 0.2 9.4-3.8 11.6-3 1.7-6.5 1.5-10.1 1.7l-20.3-3.3-14.4-3.5-9.5-12.5z"/>
  <path class="cls-1" d="m40.3 32c1.9-3.4 3.3-6.9 4.4-12.1 1.9-8.2 9.2-18.1 21.2-17.9 12.8-0.9 21.8 6.6 24.9 16.5 2.4 10.3 4.6 13.5 7.1 18.2 2.7 5.2 1.2 9.5-2 12.1-3.1 2.4-6.8 2.3-11.4 2.5"/>
  <path class="cls-0" d="m36 42.5c0 3.1 3.1 7.1 7 7.7l-7-7.7z"/>
  <path class="cls-1" d="m36 42.5c0 3.1 2.8 6.8 6.6 7.7"/>
  <path class="cls-2" d="m49.8 44.5 2-1.6-14.2-14.2 0.8-5.1c0.2-1.8-1.9-2.9-3.4-1.6l-1.1 1.7c-0.9-1.2-2.5-3.1-5.3-3.1-3.6 0-6.6 3.3-5.6 7 0.3 1.3 1.1 2 2.1 3.2l18.5 20.8 6.2-7.1z"/>
  <path class="cls-1" d="m50.9 43.2-13.3-14.5 0.8-5.1c0.2-1.8-1.8-3.1-3.4-1.7l-1.1 1.8c-0.9-1.2-2.5-3.2-5.3-3.2-3.6 0-6.6 3.1-5.6 7 0.3 1.3 1.1 2 2.1 3.1l18.5 20.9"/>
  <path class="cls-2" d="m53.8 99-0.9 18.8c-2.9 0.5-6.5 3.2-5.5 6 0.9 2.1 2.8 2.3 7 2.3 4.3 0 9 0.2 9.6-4.2l1.5-22-11.7-0.9z"/>
  <path class="cls-2" d="m69.6 100.1 1.8 21.8c0.7 2.9 3.2 4.1 6.4 4.2 5.8 0.1 8.7 0.4 10.1-1.2 1.5-1.5 1.1-4.9-4.8-7.1l-1.4-18.8-12.1 1.1z"/>
  <path class="cls-1" d="m53.8 99-0.9 18.8c-2.9 0.5-6.5 3.2-5.5 6 0.9 2.1 2.8 2.3 7 2.3 4.3 0 9 0.2 9.6-4.2l1.5-21.8"/>
  <path class="cls-1" d="m69.7 100.1 1.7 21.8c0.7 2.9 2.9 4.2 6.4 4.2 5.8 0.2 8.7 0.4 10.1-1.2 1.5-1.5 1.5-4.8-5.1-7.1l-1.1-18.4"/>
  <path class="cls-2" d="m89.8 60.1-6 4.7 1.5 7.6 7.6 10.6c0.8 2.7 2.2 6.4 6.5 6.5 4.5 0.1 7.4-5.1 4.6-9.3l-14.2-20.3v0.2z"/>
  <path class="cls-1" d="m89.8 60.1 14.1 19.6c3.4 3.9 0.4 9.9-4.6 9.8-4.2-0.1-5.6-3.3-6.4-6.5l-7.6-10.6"/>
  <path class="cls-3" d="m85.8 52.6c-2.8-2.6-6.4-5-12.8-5.3l-10.9-0.3c-2.2 0.1-3.5 0.5-3.5 0.5l-6.8-5.9-9.4 11.8 10.5 8.5-8.6 35.7c6.5 1.3 13 2.3 22.9 2.3 8.6 0 14.7-0.5 24-2.3l-7.8-32.8 8-5.8-5.6-6.4z"/>
  <path class="cls-1" d="m52.9 61.9-10.5-8.5 9.4-11.8 6.8 5.9c1.2-0.2 2.5-0.4 4.2-0.4l10.2 0.2c6.4 0.2 10 2.3 12.8 4.9l5.6 6.8-8 5.8 7.8 32.8c-6.1 1.2-12.2 2.4-24 2.4-7.9 0-14.1-0.6-22.9-2.4l8.6-35.9"/>
  <path class="cls-4" d="m62.5 46.6c0 2.8 1.9 5.9 5.2 5.9 3.2 0 5.3-2.4 5.3-5.4"/>
  <path class="cls-1" d="m62.5 46.6c0 2.8 1.9 5.9 5.2 5.9 3.2 0 5.3-2.2 5.3-5.2"/>
  <path class="cls-4" d="m48.8 25.6c-2.2 0-4.7 1.8-4.7 4.7 0 2.8 2.3 4.7 4.7 4.7h1.6l-1.6-9.4z"/>
  <path class="cls-1" d="m49.5 25.6c-2.8-0.2-5.4 1.9-5.4 4.7s2.3 4.8 4.7 4.8l1.6-0.1"/>
  <path class="cls-4" d="m86.9 25.5c2.5-0.4 4.8 1.9 4.8 4.6 0 2.8-2.3 4.9-4.8 4.9l-1.4 0.1 1.4-9.6z"/>
  <path class="cls-1" d="m86.9 25.5c2.5-0.3 4.7 1.9 4.7 4.4 0 2.7-2.2 5.1-4.7 5.1l-1.4 0.1"/>
  <path class="cls-4" d="m49.7 22.5c9.6 0.9 17.1-1 22.2-7.3 2 4.9 6.7 8.7 14.6 8.9 0.4 1.4 0.5 2.9 0.5 4.3 0 9.2-7.4 18.5-19.3 18.5-9.8 0-17.7-7.5-18.8-16.4-0.3-3.4 0.8-8 0.8-8z"/>
  <path class="cls-5" d="m56.9 42.2c3.7 0.3 7.2 1.2 10.8 1.1 4.7-0.3 7.1-1.7 9.1-2.7 1.6-0.5 3.2 0.5 2.6 1.5-2.5 2.4-6.4 4.4-11.7 4.8-4.7 0.2-8.8-1.7-10.8-4v-0.7z"/>
  <path class="cls-1" d="m49.7 22.5c9.6 0.9 17.2-0.9 22.2-7.3 2 4.9 6.1 8.7 14.6 8.9 0.4 1.4 0.4 2.9 0.4 4.3 0 8.7-7 18.5-19.2 18.5-9.8 0-17.7-6.8-18.8-16.4-0.3-3.4 0.8-8 0.8-8z"/>
  <path class="cls-8" d="m46.5 29.5 1.9 2.6h0.4l-0.4-2.2s-2-1.8-1.9-0.4z"/>
  <path class="cls-8" d="m87 32.1 2.4-2.5c0-1.2-1.5-0.5-1.9 0.7l-0.5 1.8z"/>
  <path class="cls-9" d="m63.4 36c1 1.4 2.5 2 4.2 2 1.9 0 3.3-0.6 4.4-2"/>
  <path class="cls-8" d="m57.5 32.5c-1.4 0-2.8 0.6-2.8 1.6 0 0.9 1.2 1.5 2.8 1.5 1.4 0 2.7-0.6 2.7-1.5s-1.2-1.6-2.7-1.6z"/>
  <path class="cls-8" d="m78 32.4c-1.4 0-2.5 0.7-2.5 1.6 0 1 1.1 1.6 2.5 1.6s2.6-0.6 2.7-1.5c0-1-1.2-1.7-2.7-1.7z"/>
  <path class="cls-7" d="m60 25.6c-1.5 0-2.9 1.3-2.9 3 0 1.5 1.3 2.9 2.9 2.9 1.5 0 2.8-1.2 2.8-2.9 0-1.6-1.3-3-2.8-3z"/>
  <path class="cls-6" d="m60.8 26.9c-0.4 0-0.8 0.4-0.8 0.8s0.4 0.9 0.8 0.9c0.5 0 0.8-0.4 0.8-0.9 0-0.4-0.3-0.8-0.8-0.8z"/>
  <path class="cls-7" d="m75.7 25.6c-1.6 0-2.9 1.4-2.9 3 0 1.7 1.3 2.9 2.9 2.9s2.9-1.4 2.9-2.9c0-1.6-1.3-3-2.9-3z"/>
  <path class="cls-6" d="m76.6 26.9c-0.4 0-0.8 0.4-0.8 0.8s0.4 0.8 0.8 0.8 0.8-0.4 0.8-0.8-0.4-0.8-0.8-0.8z"/>
  <path class="cls-0" d="m56.4 4.5c3.8-2 7.5-2.9 12-2.6l-6.6 2-5.4 0.6z"/>
</svg>