<svg xmlns="http://www.w3.org/2000/svg" viewBox="0 0 100 100">
<!-- SVG created with Arrow, by QuiverAI (https://quiver.ai) -->
  <style type="text/css">.cls-0 {fill:#555555;}
.cls-1 {fill:#1C1D21;}
.cls-2 {fill:#E73A3C;}
.cls-3 {fill:#3D3D3F;}</style>
  <path class="cls-1" d="m49.9 1.3c-26.7 0-48.5 21.9-48.5 48.6s20.1 49.1 48.5 49.1 48.9-21.7 48.9-48.7c0-23.4-20-49-48.9-49zm0.2 95.6c-26.9 0-46.8-20.3-46.8-47.1 0-23.9 20.2-46.7 46.5-46.7 26.5 0 47 21.2 47 45.9 0.7 25.1-19.3 47.9-46.7 47.9z"/>
  <path class="cls-1" d="m50.8 15.1c-0.4-0.7-1.8-0.6-1.9 0.4l-5.5 34.3 5.5 34.6c0.3 1.2 1.9 1.1 1.9 0l5.6-34.5-5.6-34.8z"/>
  <polygon class="cls-2" points="46.1 45.6 49.9 22.6 53.5 45.5 53.5 45.5 53.5 45.5 53.5 45.5 53.5 45.5 53.5 45.5 53.5 45.5 53.5 45.5 53.5 45.5 53.5 45.6 53.5 45.6 53.4 45.5 53.4 45.5 53.4 45.5 53.4 45.5 53.3 45.4 53.3 45.4 53.3 45.4 53.3 45.4 51.7 44.5 49.9 44.3 48.4 44.5 46.9 45.1"/>
  <polygon class="cls-3" points="46.1 54.3 49.8 77.3 53.5 54.3 53.4 54.3 51.9 55.2 50 55.6 48.1 55.3"/>
  <path class="cls-0" d="m49.9 46.3c-1.9 0-3.6 1.6-3.6 3.6s1.6 3.7 3.5 3.7c2 0 3.7-1.5 3.7-3.5s-1.6-3.8-3.6-3.8z"/>
</svg>