<svg xmlns="http://www.w3.org/2000/svg" viewBox="0 0 140 210">
<!-- SVG created with Arrow, by QuiverAI (https://quiver.ai) -->
  <style type="text/css">.cls-0 {fill:#F0F0F0;}
.cls-1 {fill:#DE671C;}
.cls-2 {fill:#C1511B;}
.cls-3 {fill:#F4AF16;}
.cls-4 {fill:#D18328;}
.cls-5 {fill:#C61B23;}
.cls-6 {fill:#AD1015;}</style>
  <path class="cls-1" d="m69.9 32.9-4.1 0.2c-6 0.4 1.7-6.6 4.2-15.6-2.3 1.1-4.6 0.8-5.4-1.6-1.2-3.4-2.7-10.4-2.8-12.5 0 1.1-5.2 6.6-6.8 7.7-1.4 0.9-2.8 0.6-3.6-1.1-1.1 4-2.9 12.2-4.9 12.2-1.5 0.1-1.9-2.7-2.8-5.2-1.3-3.6-4.2-11.5-4.2-12.7-1.9 3-3.5 5.9-6.2 4.9-1.5-0.6-10.2-5.1-11-7.3v0.1l-0.1-0.1 0.1 0.2c-0.6 0.2-0.4 0.1-0.9 0.1 0.7 3.4 1.9 12.5 0.7 14.3-1.1 1.7-3.6 2.2-6.2 2.1 3.8 4.2 6.4 7.6 11.4 12.1 1.3 1.6 1.5 3-0.4 3.1-1.6 0-9.7-1.2-12.4-2.2 1 2.7-0.6 4.8-5.3 6.1-2.3 0.7-6.3 1.2-6.3 1.1 3.3 2.3 10.7 6.5 11.6 9 0.6 1.6-1 3.5-2.2 4.2 3.7 0.3 8.4 0.6 12.6 0.6 2.5 0 5.9 0 4.3 2.7-1.8 3-4.3 6.6-5.5 8.6 3.5-0.4 8.6-1.1 11.8-2.1 3.9-1.3 6.2-2.8 7.2 2.4 1.8-3.1 6.3-6.8 8.7-12.4 3.3 5.6 9.4 13.8 13.7 19.7l1.8-2.1c-1.7-1.7-7.8-5.9-14.7-18 5.1 0.5 12.5-0.7 14.7-1.2-1.8-1.2-2.9-3.2-1-5.1 1.2-1.2 3.3-2.8 4.6-4.4 1.8-2.1 5.3-7.9 5.3-8l-5.9 0.2z"/>
  <path class="cls-2" d="m52 51c3.7-5.8 9.9-10.1 16.3-13.9-6.4 2-13.1 6.3-16.6 12.4-0.9-4.2 0.9-11 2-16.1 3.2-2 6.4-6.3 8.5-10.4-2.6 3.8-5.3 6.4-8.1 8.7l4.6-17.4-5.4 17.8c-1.3-3.3-2.2-7-2.2-11.4-0.6 4.4 0.3 8.4 1.8 12.7-1.2 5.2-2.8 10.7-2.1 16.1l-11.6-19.2c-0.1-5.4 0-10.4-1.1-15.9l0.4 14-9.8-15.6h-0.1-0.1 0.1l-0.1-0.1-0.2-0.3-0.1-0.2 0.5 0.9 9 15.8c-4-1.3-8.2-3.7-12-6.2 3.8 3.3 8.6 5.7 13 7.9l11.4 19.2c-4-2.9-9.4-4.4-15.1-5.6-2.9-2.4-6.7-5.8-10.1-7.1l0.1 0.3c3.3 1.7 5.7 4 8.4 6.4-5.7-0.8-12.3-2-18.3-2.7l0.2 0.2c5.4 1 11.3 1.9 17.8 3.3-3.6 1.5-7.6 2.8-11.7 3.7v0.1c4-0.2 8.3-2 13.3-3.4 4.8 0.5 10.8 2 15.8 5.3-6.6 0.3-14 4.1-19.4 9.4 4.6-3.3 12.6-8 19.8-8.7l0.7 0.7 0.4-0.7z"/>
  <path class="cls-3" d="m116.5 44.4c-0.6 0.1-2.4 0.4-5 0.7 0.4 0 4.9 6 4.2 15.8 2.4-1.4 0.5 0.2 0.8 0 2.6 4.4 8.3 4.9 7.6 9-1.2 6.7 10.8 8.2 10.4 15.9-0.2 3.3-5.4 1.7-7.3 2.3-2.1 1.8 1.5 4.1 4.3 6.4 3.6 3 4.9 4.9 4.9 11.3 0 6.7-6.8 2.8-10.2 0.6-4.5-2.9-6.5-1.1-3.5 4.1 3.7 7.2 0.8 14.2-3.6 12-3.1-1.5-5.2-1.1-5.6 2.6-0.4 3.6-3.8 5-7.6 8.8-0.8 0.8-2-0.2-2.6-1.4-3.2-4.8-5-5.1-4.1-10.1 0.7-3.5-1.7-3.8-3.5-3.8-5.8 0.5-4.3-6.2-0.6-9.9 4.4-4.6 7-7.2 3.4-7.9-4 0.6-9.3 3.1-12.4 0.2-0.7-0.9-0.8-1.9-0.4-2.9 3-6.7 4.7-8.2 9.7-9.7 7-2.4 8-4.5 4.2-5.7-8.5-2.3-5.2-7.3 0.9-9 3.4-1 6.1-1.7 5.9-3.6 0-3.5 4-3.7 10.1-9.2v-16.5z"/>
  <path class="cls-4" d="m116.5 44.4c-0.6 0-0.5 0-1.4 0.4 3.3 6.1 0.8 0.3 0.3 0.3 2.7 5.3 3.7 11.5-0.3 16 1-0.6 0.8-0.5 0.6-0.4 2-1 0 0.8 0.7 0.2 0.8-0.4-0.5 0.6 0.1 0 0.6-3.4-1.1 1.3-0.3-0.5 1-0.7-0.3 1.1 0.2 0.5 1.5-1-0.5 0.5 0.1 0 1.2-6.2-0.8-10.8-5.1-15.8 0.3-0.2 0.8-0.2 1.1-0.2 2.4 4.2 3.4 9.6 3 16h1c0-5.5-1.3-11-3.3-15.8 0.7-0.2 0.9-0.7 0.3-0.2 0.4 0 0 0 0.6-0.4 2.4 4.6 2.5 10.6 2.4 16.4 0.9-5.5 0-10.8-1.4-16.4h-1 1l1.4-0.1z"/>
  <path class="cls-4" d="m116.5 67.1-0.8 2c-1.6 4-5.7 7.8-15.6 9 5.3 0.5 11.6-1.2 14.3-4.2h0.1-0.1 0.1c0.2-0.2 0.2-0.4 0.4-0.5l-1.7 8.2c-3.1 4.9-11 10.3-20.8 14.8 8.1-2.3 15-5 20.5-10.8l0.2-0.1 2-1.4-2.7 14.8c-2 4.2-7.3 8.6-11.3 13.5l-0.6 1c3.9-2.8 7.9-6.3 10.4-9.7l0.5-0.6c-0.9 6.6-2.3 13.5-5.5 22.3 3-7.3 4.2-14.3 5.2-22.3l1.1-0.6c1.5 4.6 4.4 10 5.7 14.6v-1c-2-6-5.5-12-6-17.6l2.2-14.1c2.4 7.1 8.4 13.1 16.8 19-6.4-6.3-13.7-12.8-16.4-22.3l1-8.2c1.7 4.1 7.2 8.6 12.6 10.5-5.9-3-10.9-7.5-11.6-13v-3.3z"/>
  <path class="cls-5" d="m63.8 136-1.5 2.1c4.3 3 9.6 7.3 16.8 19.6-6.2 0.2-11 1.9-16 3 3.8 2.2 3.8 4.2 1.3 6.4-3.7 3.3-6.3 6.9-9.7 12 2.9-0.1 5.8 0.3 9.7-0.5 5-1 5.3-0.5 3.2 5l-4.2 10.8c3.2-0.8 4.7-1.3 6.3 2.6 0.9 2.4 2.4 6.9 2.9 11.5 2.1-3.4 6-8.6 7.9-8.6 1.4-0.2 2.4 0.6 3.2 1.5 1.2-4.5 2.7-14 4.4-14 1.3-0.3 1.8 1.2 3.5 5.6l4.9 13.4c3.9-6.8 5.1-6.5 10-4.3 4 1.8 7.2 2.9 8.9 4.3h0.2v0.2l1.3 1.5c-1-3.5-2.5-13.6-3.3-15.7 0.3-2.7 3.3-3 6.5-3.3-3.2-3.2-8.2-8-13.2-11.7-2.4-2-1-3.5 0.6-3.5 3.6 0 7.9 0.1 12.4 1.7-2.8-5 6.7-7.2 12-7.7-2.8-1.3-7.3-4.5-11-7.5-2.4-2-1.5-4.7 0.2-6.3-4.2 0-10.4 0.6-16 0.4-2.5-0.1-3.2-0.9-1-4.1 1.8-3 3.1-7.5 3.4-9.9-3.9 0.9-7.9 1.6-12.6 3.9-3.2 1.6-5.8 4-7.4-2-2.4 4.7-5.1 8-7.4 14.6-3.9-6.1-13.2-17.6-16.3-21z"/>
  <path class="cls-6" d="m62.4 174.4c8.2-3.4 14.5-8 17.6-14.5 1.4 5.6 0.4 11.5-0.6 17-2.7 3.2-6.3 6.7-8.3 11.5 2.6-3.8 4.6-6.8 8-9.8l-4.4 19.1 5.4-19.1c1.6 3.3 2.8 6.4 3 10.5 0.6-5-0.7-7.7-2.7-12.1 1-5.4 2-11 0.7-17l13.6 19.4 2.2 16.3-1.4-15.2 12.4 16.5-11.5-16.6c4 1 9 3 13.2 5.3v-0.2c-3.5-2.6-8.1-5-14.1-6.9l-13.4-18.6c4.5 2.5 10.6 3.7 16.4 4.5 3.1 2.6 7 5.1 10.4 6l-0.2-0.4c-3-1.1-5.3-3.2-8.2-5.6l19.2 1.4-19.8-2.3c3.8-1.6 8-3.2 12.2-4.2h-0.4c-3.6 0.1-8 2-12.8 4.1-5.5-0.1-12.3-1.6-17.5-4.9 5.2-0.5 9.5-2.5 13.1-5.2 3-2.3 5.9-4.5 7.1-7-3.2 2.7-11.5 10.5-21.6 11.5-3.9 0.2 0.4 3-17.6 16.5z"/>
</svg>