<svg xmlns="http://www.w3.org/2000/svg" viewBox="0 0 117.3 93.1">
<!-- SVG created with Arrow, by QuiverAI (https://quiver.ai) -->
  <style type="text/css">.cls-0 {fill:#0FA454;stroke:#00574F;stroke-width:1.5;stroke-linecap:round;stroke-linejoin:round;stroke-miterlimit:10;}
.cls-1 {fill:#0A8E4F;}
.cls-2 {fill:#82CD43;stroke:#00574F;stroke-width:1.5;stroke-linecap:round;stroke-linejoin:round;stroke-miterlimit:10;}
.cls-3 {fill:#82CD43;stroke:#00574F;stroke-width:1.5;stroke-linecap:round;stroke-linejoin:round;stroke-miterlimit:10;}
.cls-4 {fill:#82D341;stroke:#00574F;stroke-width:1.5;stroke-linecap:round;stroke-linejoin:round;stroke-miterlimit:10;}
.cls-5 {fill:#87D940;stroke:#00574F;stroke-width:1.5;stroke-linecap:round;stroke-linejoin:round;stroke-miterlimit:10;}
.cls-6 {fill:#FFFFFF;}
.cls-7 {fill:#1C1A1A;}
.cls-8 {fill:none;stroke:#00574F;stroke-width:1.5;stroke-linecap:round;stroke-linejoin:round;stroke-miterlimit:10;}
.cls-9 {fill:none;stroke:#00574F;stroke-width:1.5;stroke-linecap:round;stroke-miterlimit:10;}
.cls-10 {fill:#B6FF5C;}
.cls-11 {fill:none;stroke:#00574F;stroke-width:1.5;stroke-miterlimit:10;}
.cls-12 {fill:none;stroke:#00574F;stroke-width:1.5;stroke-linecap:round;stroke-miterlimit:10;}
.cls-13 {fill:#FFFFFF;stroke:#FFFFFF;stroke-width:0.5;stroke-linecap:round;stroke-linejoin:round;stroke-miterlimit:10;}</style>
  <path class="cls-0" d="m2.6 67.9c4.6-3.3 13.9-7.4 26.2-8.9l59.2-0.1c11.9 1 27.4 6.5 27.4 15.3-0.5 7.7-15.2 14.4-41.4 16.5-22 1.6-53.5 0.9-68.2-8.4-1.4-0.9-2.9-2.1-3.8-3.8l20.6-5.5-20-2.5v-2.6z"/>
  <path class="cls-1" d="m4.9 78.2-2.9 0.3c6.4 6.4 24.9 12.5 56.7 12.4 22.2 0 55.8-3.5 56.2-16.9-2.6 7.7-23 13.5-54 14.3-19.1 0.2-40.8-1.9-56-10.1z"/>
  <path class="cls-11" d="m2 78.3 20.6-5.3"/>
  <path class="cls-2" d="m86.1 44.7c3.5-1.1 5.4-1.9 8.7-1.8 3.2 0 6.1 2.1 6 5.6-0.1 6.4-7.7 13-14.8 18.2"/>
  <path class="cls-3" d="m31.3 44.5c-2.8-0.9-5.5-1.7-8.7-1.6s-6 2.2-6.3 5c-0.6 6.6 7.3 13.9 13.3 18.1l1.2 0.7c-4.2 0-7.5-0.2-11.8-0.4-4-0.1-4.4 4.4-0.4 4.6l5.6-0.3c1.1 0.2-2.1 1.1-3.6 1.8-2.6 1.2-2 4.2 1.3 4.1 2.5 0 5.2-2.3 10.5-3l3.4-0.5"/>
  <path class="cls-4" d="m83.6 38.1"/>
  <path class="cls-5" d="m84.1 18.5c1.4-1.6 2.5-3.6 2.5-6.5 0-4.7-4-10.4-10.3-10.4-3.9 0-7.7 2.4-9.6 6.2-1.8-0.5-4.6-0.8-8.2-0.8-2.7 0-5.4 0.3-8.2 0.8-1.7-3.3-4.9-6.2-9.6-6.2-5.5 0-10.5 4.4-10.5 10.3 0 2.5 0.9 4.7 2.3 6.6-1.9 2.2-3.7 5.1-3.6 9.5 0.2 5.2 2.7 8.2 4.2 10.1-1.2 2.3-3 6.8-3 13.1 0.2 8.5 3.4 14.9 6.5 19.9 0.2 0.5-1.5 1.9-1.5 1.9l10.9 3 13-2.4h12.5l10.1-0.6-1.4-1.1c3.7-5.4 6.5-11.5 6.5-20.2 0-5.7-1.1-10.1-3.1-13.6 1.9-1.7 4.4-4.7 4.4-10.5-0.1-3.4-1.6-6.9-3.9-9.1z"/>
  <path class="cls-2" d="m85.9 73.5c4.6 0.4 7.6 2.7 9.2 2.9 3.4 0.2 3.8-2.5 1.8-3.7l-4.4-1.8 6 0.1c3.6-0.1 4-4.5-0.4-4.8-4.4 0.3-8 0.5-12.2 0.5 3-1.3 4.2-2.3 4.2-2.3"/>
  <path class="cls-4" d="m41.7 51.6c0.7 7.4 3.7 17.4 4.5 18.9 1.9 0.9 4.8 2.1 6.4 2.5 4.5 1.1 11.4 0.9 13.5 0.1 2-0.6 4.8-2.5 4.8-2.5 1.5-3.9 3.7-11.9 4.5-19"/>
  <path class="cls-6" d="m47.8 12.1c0.1 3.6-2.9 6.9-6.8 6.9s-7.1-2.9-7.7-6.5c-0.3-3.5 2.3-7 5.7-7.8 4.6-1 8.6 2.3 8.8 6.3v1.1z"/>
  <path class="cls-6" d="m83.6 15.1c-2 3.9-7 5.4-10.7 2.9-2.8-1.8-4.4-5.6-2.9-8.9 2-4.5 7.4-6 11-3.4 2.9 1.9 3.9 5.8 2.6 9.4z"/>
  <path class="cls-7" d="m46 12.1c0 2.5-2.1 5.1-5.1 5.1-2.9 0-5.3-2.5-5.3-5.3 0-2.5 2-5.5 5.3-5.4 2.7 0 5.1 2.4 5.1 5v0.6z"/>
  <path class="cls-7" d="m81.2 14.2c-1.3 2.9-4.7 3.9-7.3 2.4-2.3-1.2-3.8-4.6-2.3-7.2 1.6-2.9 4.6-3.8 7.1-2.5 2.4 1.2 3.8 4.3 2.5 7.3z"/>
  <path class="cls-13" d="m41.4 10.5c-0.7 1.1-2.3 1-2.8-0.1-0.4-0.9 0-2 1-2.2 1.1-0.2 2.3 0.9 1.9 2l-0.1 0.3z"/>
  <path class="cls-13" d="m78.5 10.9c-0.9 1-2.4 0.7-2.8-0.5-0.3-0.8 0.4-2 1.4-2 1.4-0.2 2.4 1.3 1.5 2.3l-0.1 0.2z"/>
  <path class="cls-9" d="m40.1 25.1c4.3 3.1 9.8 5.8 18.4 5.8 6.6 0 12.9-1.7 18.4-5.8"/>
  <path class="cls-8" d="m55.5 22.4v1"/>
  <path class="cls-8" d="m61.1 22.4v1"/>
  <path class="cls-10" d="m42.4 51.5c2-3 6.5-9.1 16-9.3 7.8 0 13 3.8 16.2 8.9l-3.6 18.9c-2 0.9-4 1.7-5.4 2.1-4 0.9-9.7 1.3-13.9 0.3-1.3-0.3-3.7-1.3-5.2-2-1.5-4.8-4.1-13.5-4.1-18.9z"/>
  <path class="cls-3" d="m41.7 51.6c0.5 6.1 2.7 13.6 4.3 18.3 1.6 0.8 3.5 2.1 7.1 3.1 4.3 1.1 3.3 4.9-0.5 4.6-2-0.1-4.7-2-6.1-1.2-1.6 0.7 0.5 2.7-0.5 4.2-0.5 1-1.9 1.4-3.4 1.3-4.2-0.5-1.5-5.3-4.6-5-1.9 0.5-3.4 2.1-5.4 2.1-3 0.2-4.2-2.4-1.9-3.6l5.8-3c0.7-0.5 0.1-0.5-0.1-0.9"/>
  <path class="cls-3" d="m75.4 51.5c-0.5 6.2-2.7 14-4.4 18.4-1.6 1-4.8 2.5-7.4 3.2-3.6 1-3.1 4.6 0.4 4.6 1.9 0 4.4-1.8 6.2-1.5 2.5 0.5-0.7 3.2 1.2 4.8 0.8 0.9 2.7 1.1 4.1 0.6 2.5-1 0.6-4 2.7-4.7 1.7-0.5 3.9 2 6.2 2.1 3.2 0.4 4.3-2.4 2-3.8l-5.7-3c-0.6-0.5-0.3-0.5-0.1-1"/>
</svg>