<svg xmlns="http://www.w3.org/2000/svg" viewBox="0 0 150 150">
<!-- SVG created with Arrow, by QuiverAI (https://quiver.ai) -->
  <style type="text/css">.cls-0 {fill:url(#SVGID_1_);}</style>
  <linearGradient id="SVGID_1_" x1="74.75" x2="74.75" y1="148.3" y2="2" gradientUnits="userSpaceOnUse">
    <stop stop-color="#A68645" offset="0"/>
    <stop stop-color="#CFB56A" offset="1"/>
  </linearGradient>
  <path class="cls-0" d="m133.6 75.4c-0.3-3.4-4.6-8.4-11.2-20.9-6.4-12.7-4.8-13-5.7-16.8-0.9-3.3-7.3-8.6-10.3-13.8 6.2-6.1 5.7-16 5.1-19.6-2.6 2.3-6.1 4.9-8.9 6.7 0.6-3.5-0.7-9-1.1-9-3.4 3.2-11.3 8.7-13.6 11.6l-0.2 0.1c-4.6-0.2-12.6 0.1-21.4 2.8-8.7 2.8-17.5 7.8-24.1 13.3-9.2 7.6-15.1 15.2-19.3 23.6-3.5 7.2-6.4 16.2-6.5 26.4-0.1 13.8 4.7 21.4 6.4 24.6h0.2c-1.7-5.5-2.8-14.2-2.7-20.8 0.2-11.4 3.1-21.4 8.2-30.8 4.1-6.9 9.1-12.9 14.9-17.8 6.3-5.2 13.7-9.5 21.1-12.5 7.1-2.6 15.4-4.9 25.2-4.6 1.7-2.8 4.5-4.7 8.7-8.1-0.1 6.8-3.5 10.7-5.2 13.2-0.2 0.4 0 1 0.7 0.9 2-0.4 5.8-3.2 7.1-6 1.2-1.5 4.1-3.2 6-4.8l-0.1 0.1 0.1-0.1-0.1 0.1 0.6-0.2-0.5 0.1c-1 5-3.1 7.4-5.7 10.2-0.9 1 5.6 7.6 10.8 13.9 1.8 2.2 0.8 3.4 2.3 8.1 2.5 7.8 10.1 19.7 13.9 27.2 2.6 4.6 0.1 5.6-0.5 8-0.6 2.5-0.4 2.9-1.5 4.7-1.7 1.8-3.6 1.9-4.9 1.7-6.3-0.4-6.5 0.6-7.4-2-1.1-2.8-1.2-4.2-2.5-5.4-3.6-3.4-9.3-7.3-13.6-9.7 2.1-0.7 4.3-2.7 4.7-3.4 0.3-0.4-0.1-0.9-0.7-0.7-2.3 0.9-6.8 2-10 1.9-12.7-0.5-16.3-11.1-14.7-21.5 0.5-2.5 1.9-6.4 1.6-6.4-4.3 1.4-14.9 9.2-18.9 21.5-3.7 11.3-3 21.9 0.9 33.9 1.1 3.3 3.6 9.8 3.9 9.8 0.2 0-1.6-4.8-3.1-14.7-2-13.7 0.3-27.8 6-36.6 3-4.6 7-9.2 9.3-11.6-1.5 2.6-4.8 12.2-1.1 20.5-3.2 3.6-5.4 11.1-5.4 18 0 15.1 6.4 24.5 7 37.9 0.4 7.1-0.5 13.7-2.2 19.2-3.8-7.6-10.3-14-17.4-19.5-8.7-6.6-14.4-10.3-19.7-18.6-4.9-7.5-6.5-15.1-6.4-22.1 0.2-9.9 3.5-19.3 9.5-28.4 5.7-8.4 14-15.5 21.3-20 5.1-3.1 12-6.1 16.7-8 0.2 0 0-0.3-0.1-0.3-10.3 1.4-19.6 5.9-28.2 12.4-6.7 5.4-11.5 10.8-15.5 17.4-3.7 6.4-7.8 15.6-7.8 26.7 0 15.2 7 27.2 17.3 36 7.7 6.7 14.7 9.8 21 17.2 5.2 6 7.2 11 8.8 17.6 3.1-5.1 6.4-12.4 6.7-23.6 0.5-15.3-5.5-26.8-6.7-39.2-0.6-8.3 0.9-14.3 3.7-19 2.7 3.2 8 5.5 14.4 5.5 4.1 2.3 12.3 7.7 15.1 10.4 1.6 1 1.7 4.5 3.2 6.5 1.3 1.9 3.1 2.1 6.1 2.3 4 0.2 6.2 0.6 8.6-0.4 4.6-1.9 5.3-5.3 5.8-7.6 0.5-1.5 2.3-3 2.3-6.4l-0.3-1.1z"/>
</svg>