<svg xmlns="http://www.w3.org/2000/svg" viewBox="0 0 220 62.6">
<!-- SVG created with Arrow, by QuiverAI (https://quiver.ai) -->
  <style type="text/css">.cls-0 {fill:#264E73;}
.cls-1 {fill:none;stroke:#FFFFFF;stroke-width:1.5;stroke-linecap:round;stroke-linejoin:round;stroke-miterlimit:10;}
.cls-2 {fill:none;stroke:#FFFFFF;stroke-width:1.5;stroke-linejoin:round;stroke-miterlimit:10;}</style>
  <path class="cls-1" d="m213.3 30.5c1.7 1.9 3.7 3.5 3.7 6.6s-0.9 9-5.4 13.7c-2.5 2.5-3.5 3.4-5.9 6.8l-0.2 0.3 0.2-0.3"/>
  <path class="cls-1" d="m210.4 20.2c1.5 1.2 3.2 3.2 3.2 6.1-0.1 10-7 9.2-9.2 15.3-1.7 4.7 1.3 8.3-1.8 14.5-0.6 1-1 1.9-1.2 2.1l-0.3 0.3 0.3-0.3c-0.5 0.5-2.2-2.5-3.2-6.9-1.1-5.4-4.2-5.2-7.2-10.6-1.5-2.6-3.5-9.4-0.4-13.2 3.7-4.6 12.1-4.1 16.2-5.2 1.7-0.5 2.9-1.1 3.4-2.2 0.8-2.1-0.3-4.5-2.4-5.4"/>
  <path class="cls-1" d="m196.6 17.2c-3.9 1.5-3.7 5.3-3.1 7.6"/>
  <path class="cls-1" d="m196.7 17.2c3.2-1.2 9.5-0.9 10.9-2.8 1.1-1.5 0-3.5-1.6-4.1"/>
  <path class="cls-1" d="m196.9 17-0.2 0.2c-0.2-1.8-0.3-4.4 3.1-5.4l6-1.4c0.3-1.1 0-2.5-1.2-3.1l-4 0.4c-1.3 0.7-1.6 1.8-1.4 3.7"/>
  <path class="cls-1" d="m200.6 7.7 0.2-1 1.6-2.7c0.5-0.6 1.1 0.5 2 2.5l0.2 0.8"/>
  <path class="cls-1" d="m199.8 11.8"/>
  <path class="cls-1" d="m153.3 57.6c1.8-1.2 2.8-3.3 4.6-4.9 3.2-3 7.9-6.4 8-15 0.1-2.2 0.1-3.4 1.2-5.9"/>
  <path class="cls-1" d="m158.2 19.9c1.9-0.1 3.7 2.9 3.7 5.2 0.2 9.2-6.7 9.4-9.6 15.2-2.1 4.8 1.1 8.1-1.5 14.5-0.7 1.3-1.6 3.2-2 3.5s-2.2-3-3.2-7.9c-1.2-5.2-6.3-6.5-8.9-12.8-1.1-3-1.9-8.2 1-11 4.6-4.4 12.4-4.2 15.9-4.9 1.8-0.2 3.8-0.5 4.5-1.8 1.1-2 0.5-4.4-2.3-5.9"/>
  <path class="cls-1" d="m143.8 16.8c-3.7 1.5-3.9 4.7-3.4 7.3"/>
  <path class="cls-1" d="m143.9 16.8c3-1.2 10-1.1 11.4-2.6 1.1-1.1 0.6-3.4-1.7-3.9l-6.6 1.2c-2.6 0.5-3.1 2.7-2.9 4.9l-0.2 0.4z"/>
  <path class="cls-1" d="m146.4 11.5c-0.3-0.9 0-3.1 1.7-3.8l4.5-0.7c0.9-0.1 1.2 2.1 0.9 2.9"/>
  <path class="cls-1" d="m148.1 7.7 1.4-2.8c0.6-0.9 0.9-1.9 1.9 0l1.2 2.1"/>
  <path class="cls-1" d="m161.9 26.9c1.5 1.3 2.5 3.3 5.4 4.5l0.2 0.2-0.4 0.2c-2.5 1.3-5.2-0.7-6.6-2.2"/>
  <path class="cls-2" d="m91.5 6c-2.1 0-4.2 12-4.9 16.9-0.5 2.9-2.3 2.4-5.2 2-6.3-0.7-16.5-2.3-17.1 0-0.5 1.9 9.7 6.5 12.8 8 5.4 2.7 5.7 3 4.3 6.1-1.9 4.3-8.7 16.2-6.4 17.1 2.3 1.3 11.3-8.5 15-11.8 2.1-1.9 3.2-0.5 5 1.2 2.6 2.5 10.6 10.9 12.6 10.6 2.5-0.5-1.6-8.9-5.2-16-1.8-3.5-1.3-4.2 1.7-5.7 3.3-1.6 13.4-6.6 13.6-9.1 0-2.4-11.1-1-15.3-0.4-3.4 0.4-5.3 1.2-5.8-2-0.5-3.1-2.6-16.9-5.1-16.9z"/>
  <polyline class="cls-1" points="91.5 7 91.4 33 65.1 25.1"/>
  <polyline class="cls-1" points="91.4 33 117.4 25.3 117.5 25.1"/>
  <polyline class="cls-1" points="91.4 33 75.1 55.6 75 55.7"/>
  <polyline class="cls-1" points="91.4 33 107.6 55.6 107.7 55.7"/>
  <path class="cls-1" d="m25.1 44.3-3.9-32.1c0.9-1.3 2.3-2.5 4.4-2.5 2-0.1 3.5 0.9 4.9 2.5l-3.8 32.1"/>
  <path class="cls-1" d="m23.2 44.9-9.7-29.3c1-4.3 4.5-4.9 7.4-3.8"/>
  <path class="cls-1" d="m21.3 45.7-13-24.2c-0.3-3.6 2.3-5.9 5.2-5.9"/>
  <path class="cls-1" d="m19.9 46.8-14.8-17.9c-1.2-2.2-1.1-6 2.8-7.4"/>
  <path class="cls-1" d="m29.1 44.6 9.3-29c-1-3.6-3.9-5-7.7-3.6"/>
  <path class="cls-1" d="m30.4 45.7 13.7-24.2c0.3-3.6-2.2-5.9-5.7-5.9"/>
  <path class="cls-1" d="m31.7 46.8 15.8-17.9c1.3-2.5 0.9-6-3.1-7.4"/>
  <path class="cls-1" d="m23.2 52.6-9.8-7.8-6.9-5.8c-2.4-2-3.4-3.4-3.1-6.4 0.2-0.9 0.7-2.2 1.7-3.2"/>
  <path class="cls-1" d="m30.1 52.4 17-14.9c2.9-2.6 3.3-6.2 0.6-8.4"/>
  <path class="cls-1" d="m13.4 44.8v5.1c0 1.7 1.1 2.8 2.2 2.8l7.3-0.1"/>
  <path class="cls-1" d="m38.5 44.8v5.2c0 1.6-1.1 2.7-2.5 2.7l-7-0.1"/>
  <path class="cls-1" d="m5.1 37.9"/>
  <path class="cls-2" d="m20.1 46.8-13.5-12.9-1.5-1.8"/>
  <path class="cls-2" d="m31.7 46.8 15.8-17.4"/>
  <path class="cls-1" d="m19.9 46.8-14.8-14.7"/>
  <path class="cls-1" d="m31.7 46.8 15.8-17.4"/>
  <path class="cls-2" d="m23.1 52.1c1.9 1.2 4 1.3 5.8 0.1"/>
</svg>