<svg xmlns="http://www.w3.org/2000/svg" viewBox="0 0 140 160">
<!-- SVG created with Arrow, by QuiverAI (https://quiver.ai) -->
  <style type="text/css">.cls-0 {fill:#F8F7F1;}
.cls-1 {fill:#096C77;stroke:#042029;stroke-width:1.3;stroke-linecap:round;stroke-linejoin:round;stroke-miterlimit:10;}
.cls-2 {fill:#042029;}
.cls-3 {fill:#FFFFFF;stroke:#042029;stroke-width:1.2;stroke-linecap:round;stroke-linejoin:round;stroke-miterlimit:10;}
.cls-4 {fill:none;stroke:#042029;stroke-width:1.2;stroke-linecap:round;stroke-linejoin:round;stroke-miterlimit:10;}
.cls-5 {fill:#096C77;stroke:#042029;stroke-width:1.2;stroke-linecap:round;stroke-linejoin:round;stroke-miterlimit:10;}
.cls-6 {fill:#042029;stroke:#042029;stroke-width:1.2;stroke-linecap:round;stroke-linejoin:round;stroke-miterlimit:10;}
.cls-7 {fill:#FFFFFF;stroke:#042029;stroke-width:1.2;stroke-linecap:round;stroke-linejoin:round;stroke-miterlimit:10;}
.cls-8 {fill:#DEA215;stroke:#042029;stroke-width:1.2;stroke-linecap:round;stroke-linejoin:round;stroke-miterlimit:10;}
.cls-9 {fill:#FBC317;stroke:#042029;stroke-width:1.2;stroke-linecap:round;stroke-linejoin:round;stroke-miterlimit:10;}
.cls-10 {fill:#096C77;stroke:#042029;stroke-width:1.3;stroke-linecap:round;stroke-linejoin:round;stroke-miterlimit:10;}
.cls-11 {fill:#FBC317;stroke:#042029;stroke-width:1.3;stroke-linecap:round;stroke-linejoin:round;stroke-miterlimit:10;}
.cls-12 {fill:#042029;stroke:#042029;stroke-width:0.5;stroke-linecap:round;stroke-linejoin:round;stroke-miterlimit:10;}
.cls-13 {fill:#096C77;stroke:#042029;stroke-width:1.3;stroke-linecap:round;stroke-linejoin:round;stroke-miterlimit:10;}
.cls-14 {fill:none;stroke:#042029;stroke-width:1.3;stroke-linecap:round;stroke-linejoin:round;stroke-miterlimit:10;}</style>
  <path class="cls-1" d="m104.3 109.7s7.9-3.7 16.9-1.8l2 0.5-2.5 3.1-14.2 1.6-2.2-3.4z"/>
  <path class="cls-1" d="m90 139-2.2 1c-2.5-14.6 6.5-24.1 14-28.6l1.6 3.2c-7.2 3.5-13.4 12.4-12.4 23.7l-1 0.7z"/>
  <path class="cls-2" d="m121.2 112c-4.2-1.2-9.7-1.5-15 0.6l-1.3 2.6-1.2 0.4c-5.7 3.4-11.5 8.8-13 18.9 0.5 11.1 8.5 22.3 21.1 24.1 14.6 1.8 26.4-7.4 26.7-22.2 0.5-10.9-8-22-17.3-24.4zm-6.7 42.5c-9.5 0-19.8-6.6-19.8-19.1 0-9.8 7.8-16.8 13.3-18.5 2-0.8 4.2-1.3 7-1.3 7.9 0 19.5 5.8 19.5 19-0.1 9.8-6.9 19.8-20 19.9z"/>
  <line class="cls-4" x1="114.3" x2="114.3" y1="115.5" y2="154.9"/>
  <line class="cls-4" x1="94.3" x2="135.1" y1="135" y2="134.9"/>
  <line class="cls-4" x1="100.1" x2="128.9" y1="149" y2="121.1"/>
  <line class="cls-4" x1="116.6" x2="129" y1="137.5" y2="149.5"/>
  <path class="cls-1" d="m27.5 107.9c-11.6 0-21.1 7.3-25.4 19.1l3.1 0.9c2.3-7.4 10.3-16.7 22.4-16.8 5.8 0 10.9 1.9 14.8 5l1.6-2.1-0.3-0.4c-4.2-3.6-9.8-5.6-16.2-5.7z"/>
  <path class="cls-1" d="m46 115.9-2.5 2.6c3.4 2.9 6.1 7 7.4 11.5l3.7-0.4c-1-5.2-4.1-10.1-8.6-13.7z"/>
  <path class="cls-2" d="m27.6 111c-12.1 0-23.6 9.4-23.6 23.6 0 13.3 10.1 24.3 23.6 24.3 12 0 20.9-7.8 23.6-16.5 1-3 1.4-5.5 1.4-8.4 0-13-11.2-23-25-23zm0 43.5c-9 0-17-5.4-19-15.5-2.1-9.5 3.8-23.1 18.5-23.4 9.8 0 20 7 21.5 18.9 0.8 10.5-8 20-21 20z"/>
  <path class="cls-4" d="m13.6 121.1 11.5 10.9-0.6 2.9-16.9 0.1"/>
  <line class="cls-4" x1="27.6" x2="27.6" y1="115.1" y2="131.1"/>
  <line class="cls-4" x1="25" x2="13.6" y1="137.6" y2="148.9"/>
  <line class="cls-4" x1="27.6" x2="27.6" y1="139" y2="154.9"/>
  <line class="cls-4" x1="31.5" x2="41.9" y1="139" y2="149"/>
  <line class="cls-4" x1="31.9" x2="47.1" y1="139.1" y2="141.6"/>
  <path class="cls-1" d="m33.6 130 21.9-1-0.9 0.5 0.4 5.5h-3.6l-0.8-5.4-18 2.3-1 0.7 2-2.6z"/>
  <path class="cls-5" d="m25.9 89.6-5.8-3.2-4.6-0.4c-3 1.6-7.4 4.6-10.9 9 6-1 12.4-2.4 21.3-5.4z"/>
  <path class="cls-2" d="m38 93.5c0 2.6 2 5.6 5.5 5.5 2.6 0 7.9-1.5 10.9-1.6l-3.9-3-12.5-0.9z"/>
  <path class="cls-1" d="m59 15.6c-3.1-1.5-6.1-5.7-6.1-10.2l3.5 2.2c-1.3-1-2.5-3.1-2.4-5.3 3 2.2 5.6 2.3 8.5 2.1l-1.1 6.2-2.4 5z"/>
  <path class="cls-1" d="m68.5 8.9 3.9 9.1h6.7l6.4-5c-1.4-5.6-4.1-6.6-4.1-6.6-1.9-1.9-3.8-2.9-6.3-3.4l-6.7 0.5-1.4 3.1 1.5 2.3z"/>
  <path class="cls-6" d="m92.6 76.6-7.6 1.3c-1.9 0.2-1 3.6 0.5 3.1l7.4-1.1 0.6-0.3-0.9-3z"/>
  <path class="cls-7" d="m92.5 77 2.4-0.4c2.6-0.5 5 1.5 5.5 3.8 0.2 1.2-0.3 2.7-1.4 3.2l-2.5 1.5 1.5 5.9-2.1 0.6-2.4-6.5c-0.4-1.5 0.5-2.1 1-2.5l2.5-1.5c0.6-0.2-0.9-2-2.4-1.7l-1.5 0.2-0.6-2.6z"/>
  <path class="cls-7" d="m103.5 107.6-2 0.3-1-3-26.5 24-3-1.4 27.1-26.4-0.5-1.6-30.5 5.5-2.5 12-0.5 4.5c3.3-0.4 7.9 0.1 9 0.6 0.5 0.5 0.5 1.5 0.5 1.5l-2.7 3.4-1.5-0.4-0.4-2.6h-1.9l0.4 2.4-2.9-1.4v-3c-3.1 0.5-8 2.9-10.2 6.1l10.2-0.2 0.4 6.7-1.9 11.9 1.3 0.1 1.5-9.1c0.6-0.6 0.6-2.5-0.9-2.5l0.6-5.9 3.9 1.5 1.1 5.9c1.5-2 1-3.4 1-3.4h2.5c-1-2.5-4.5-5-6.6-5.2l8.1-6.8c1.4-0.6 3.4-1.2 3.4-1.2l-10.4-2.4-0.6-0.4 3-12.7 26.6-4.9 0.5 1.6-19.1 18.9h1.5l18.6-15h1l1.3 3h0.6l3.1 9 0.5-0.5-2.1-8.9z"/>
  <path class="cls-7" d="m53.6 101.4-1.6 0.7 2.1 1.5 7.3-1.1-1.8-0.9-5 1.9-1-2.1z"/>
  <path class="cls-7" d="m61.9 102.9-7.4 1-1-2.5-2.5-4.8-2.4 0.9 2 5.4-0.1-0.3 0.4 2.5-23.9 28.4-0.4 2.9 30.3-33.3 5.2-0.5-0.2 0.3z"/>
  <path class="cls-7" d="m52.1 108.5-23 25.6-0.6 2.4 29.1 1-0.6-2.5-27-1.9 27.9-7.6-5.8-17z"/>
  <path class="cls-6" d="m58.5 146.4v2h8.1v-2h-8.1z"/>
  <path class="cls-8" d="m65.5 91.9 6 3.5c1.1 0.6 1.6 1.2 1.1 3.6l-1.7 6.5-2.9 11.5 11 2.9-5.4 4.1s-6.7-2.1-10-1.9l1.5-4.6 2.5-12 1.3-6.5-0.3-1-8.2-4.9 5.1-1.2z"/>
  <path class="cls-9" d="m85.5 12.9c-3 0.7-4 3.5-6 5.1 6 2 22.6 10.6 45.1 26.5 3.9 2.9 10.9 5.5 12 8.6 1-3.1-0.5-5.2-2.7-6.7l-48.4-33.5z"/>
  <path class="cls-9" d="m80 40c-3.4-3.5-10-12.5-10.5-16.5-0.5-3 2.1-5.9 5.5-5.9 2.1-0.1 4.4 0.5 6 1-1.4-1-2-0.7-2-0.7-3-0.8-5-0.8-6.6-0.3-0.8-3.5-1.4-7-4.4-8.7 2.5 0.5 5.5 0.2 8-0.8 4-1.5 6.6-1.1 7.9 0.9-2-3.9-5.3-6.4-10.3-6.1-4.2-0.3-11.5 1.5-11.5 1.5-2.5 2.7-4.1 6.6-4.1 10.1 0.6 12 9.6 18.6 12.6 28.6 2.5 6.3 1 11.9-3.6 13.3l2 1.6 1.1 7.5-5 8-11.1 7.1-10.5 2.9-24 2.5c6.6 4 18.5 8.6 30.1 8.6l5 3 2.3-0.1 5.2-4.4c12.4-3.1 24-13.6 24-31.5 0-7.6-2.6-14.5-6.1-21.6z"/>
  <path class="cls-1" d="m55.5 53.6c-9.9 0-25.5 3.9-38.9 19.9-4.5 5-8.6 13.1-8.6 13.4l6.9-0.5c2.7-1.3 6.7-4.3 9.2-7.3-2.6 3-5.6 5-8.6 7l7.1-0.5c3.9-1.5 8.3-5 10-6.6-2 2-5.1 4.4-8.5 6.4l7.4-0.4c3.1-0.9 8-4.4 10.4-6.6-2.3 2.6-5.8 4.7-7.8 6l8.5-0.9c3-1.1 7.5-3.9 10.9-7-2.4 2.5-6.5 5.5-9.1 6.9 8.7-1.3 17-4.4 22.2-9.9 2.5-2.9 4.5-6.5 4.4-10.9-0.4-6.6-7.9-9-15.5-9z"/>
  <path class="cls-9" d="m63.6 118.9-1.1 5.7 0.4 0.8c3.5 0.6 11.5 2.1 13 5.2l-2.4 0.5c0.5 0.8 0.6 2 0.6 2-1.5-0.2-3.5 0.4-4 3.4-1.7-2.9-8-7-10.6-7.9l-4.9 0.3c0.5-1.8 2.5-2.5 3.9-3.4l0.9-1.1 3.2-19.4v-0.6l-7.1-6.8 3.5-2 6.5 5.9c1 1 1.5 1.6 1.1 3.5l-3 13.9z"/>
  <path class="cls-1" d="m59 94c0.6-1.4 0.6-4 0.5-4.1"/>
  <path class="cls-14" d="m50.5 94.6-3.4-2.5c1.5 1.8 6.5 5.5 8 5.3 1.4-0.4 3.4-1.8 3.9-2"/>
  <path class="cls-4" d="m64.9 128.4c3 1.5 6.6 4.2 5.7 8"/>
  <path class="cls-4" d="m67.5 128c2.9 0.6 5.6 2.6 6.1 3.6"/>
  <path class="cls-4" d="m71.5 120c1.6 0 5 1.6 5 2"/>
  <path class="cls-9" d="m79.5 18c6 1.5 23 11 45.1 26.5 4.3 3 10.9 5.5 12 7.1"/>
  <path class="cls-11" d="m69.5 22.1c-0.4 4 5.5 12.9 10.5 18.3 9 9.6 18 15.7 32.5 15.7 7.5 0 14-1.6 20.6-6.1"/>
  <path class="cls-12" d="m75 12c0 1 0.6 2 1.6 2 0.9 0 2-0.6 2-1.9 0-1-1-1.7-2-1.7s-1.6 0.7-1.6 1.6z"/>
  <path class="cls-2" d="m64.4 121.4v3l0.7 0.2h8.5v-1.7c-0.1-0.8-0.5-1-1.5-1.3-2.6-0.5-5.1-0.7-7.7-0.2z"/>
  <path class="cls-1" d="m57.9 132.4 7.1-0.3-0.1 2.9c-1.4 0-1.5 1.5-1.3 2l-1.5 6.6c-2.6-1-6.2-5.2-4.2-11.2z"/>
  <path class="cls-1" d="m64.1 144.4 0.9-6.9c0.9-0.6 0.6-2.5-0.6-2.5h1.1c1.4 0 0.4 2.1 0 2.5l-1 6.9c4.9 0 8.5-3.4 7.5-10.4h-1.4c0 1-0.5 2.4-0.5 2.4-1-1-2.2-2.8-4.6-4.3l-1.4 12.3z"/>
  <path class="cls-7" d="m50.1 102.6 3.4-1.2 1.1 2.5 6.4-1.3 1.5 1.4v2l-7 1.5 4.1 14.1-0.6 3-1.1 0.9-5.8-17-6.1 7"/>
  <path class="cls-4" d="m50.6 142 10.9 1.5"/>
  <path class="cls-1" d="m28.6 131.1c-2-0.7-5 0.3-5 3.4 0 2.6 2 4.6 5 4.1 1.4-0.2 2.5-1.2 2.9-2.1l-3.9-0.1c-1.7 0.1-3-2.4-0.6-3.4l1.6-1.9z"/>
  <path class="cls-5" d="m100.5 87.6 5.5 17.3 15.6-1.9 1.4-18.1-22.5 2.7z"/>
  <path class="cls-4" d="m101.9 90.9 20.7-2.3"/>
  <path class="cls-13" d="m94.6 92.1 0.8 2.3 4.2-1-0.5-2.4-4.5 1.1z"/>
  <path class="cls-7" d="m100.5 107.9 3.1-0.9h0.9l3.6 11c1.9 6.6 4.4 10.6 7.4 15 1 1-0.5 3.5-2 1.5-4.9-5.5-6.9-9.5-8.9-16.5l-4.1-10.1z"/>
  <path class="cls-5" d="m113.1 132.1 0.4 2.4c2.1 2.4 4.1-0.4 2.4-1.5l-1.8-2c1.9 0 3.8 0.6 4 3.5 0 2-1.5 3.9-4 4.1-2-0.1-3.6-2.1-3.2-4.7l2.2-1.8z"/>
  <path class="cls-7" d="m66 101.5 30.6-5.1-0.7-2.4 3.2-0.6 4.9 13.5-3.5 1"/>
  <path class="cls-7" d="m49.9 100.1"/>
  <path class="cls-7" d="m50.6 102.6 2.9-1.2"/>
  <path class="cls-7" d="m62.1 105.9-6.6 1.6 4.1 14.1"/>
  <path class="cls-1" d="m65.5 132.1-7.6 0.3h-25.3l-1 0.2 2-2.6 24.9-1.4c2.1-0.1 4 1.4 7 3.5z"/>
  <path class="cls-4" d="m64.4 135-1.9 11.1"/>
  <path class="cls-7" d="m29.5 133.6 27.9 1.8-0.4 2.1-25.9-0.9-1 1.4-2.5-0.9 1-2.5 0.9-1z"/>
  <path class="cls-14" d="m67 56.4c-0.5-0.4-3.5-2.8-11.5-2.8"/>
</svg>