<svg xmlns="http://www.w3.org/2000/svg" viewBox="0 0 100 204">
<!-- SVG created with Arrow, by QuiverAI (https://quiver.ai) -->
  <style type="text/css">.cls-0 {fill:#FAFAFA;}
.cls-1 {fill:#75BD58;}
.cls-2 {fill:none;stroke:#438B46;stroke-width:0.9837;stroke-linecap:round;stroke-linejoin:round;stroke-miterlimit:10;}
.cls-3 {fill:#49A258;}
.cls-4 {fill:none;stroke:#397A41;stroke-width:0.9837;stroke-linecap:round;stroke-linejoin:round;stroke-miterlimit:10;}
.cls-5 {fill:#328044;}
.cls-6 {fill:#51AA5B;}
.cls-7 {fill:none;stroke:#262424;stroke-width:1.5;stroke-linecap:round;stroke-linejoin:round;stroke-miterlimit:10;}
.cls-8 {fill:#8CC651;}
.cls-9 {fill:none;stroke:#49A258;stroke-width:0.9837;stroke-linecap:round;stroke-linejoin:round;stroke-miterlimit:10;}
.cls-10 {fill:#E08142;}
.cls-11 {fill:#B26A3D;}
.cls-12 {fill:none;stroke:#262424;stroke-width:1.4184;stroke-linecap:round;stroke-linejoin:round;stroke-miterlimit:10;}
.cls-13 {fill:none;stroke:#262424;stroke-width:1.4756;stroke-linecap:round;stroke-linejoin:round;stroke-miterlimit:10;}
.cls-14 {fill:none;stroke:#2A683C;stroke-width:0.9837;stroke-linecap:round;stroke-linejoin:round;stroke-miterlimit:10;}</style>
  <path class="cls-1" d="m27.5 67c0.4-31 12.4-64 12.4-64s14.3 31.4 14.7 73.6l-6.3-12.6-6.3 47.5c-2.8-13.9-7.7-29.7-14-44.6l-0.5 0.1z"/>
  <path class="cls-3" d="m66.8 135.3c6.3-8.3 12.2-26.8 5.5-112.9l-5.5-4.7-14.5 33.9c1.3 9.6 2.1 20.5 1.8 31.5l3.2 20.4-6.8 31.8h16.3z"/>
  <path class="cls-1" d="m39.9 3c-0.2 7.8-0.8 52.7 2.8 98.6"/>
  <path class="cls-5" d="m45.1 135.3c-2.1-21.2-8.3-58.8-31.9-95.4l-6.9-9.1-0.2-0.2v-0.1h-0.1l-0.1-0.1v-0.1l-0.1-0.1-0.2-0.3-0.1-0.1v-0.1l-0.4-0.4v-0.1h-0.1v-0.1l-0.2-0.2v-0.1l-0.3-0.3v-0.1l-0.1-0.1h-0.1v-0.1l-0.1-0.1v-0.1h-0.1v-0.1 0.2l-0.1 0.4-0.1 1.2-0.2 2.1c-2.4 27.8 1.2 67.4 23.2 98.6l4.2 4.9h14z"/>
  <path class="cls-6" d="m67.3 135.3c25.8-31.2 29.4-68.5 30.6-85.3l-0.1-21.2c-14.4 15.9-37.5 57.8-47.3 106.5h16.8z"/>
  <path class="cls-1" d="m66.8 17.7-9 79.9"/>
  <path class="cls-8" d="m50.5 135.3c0.9-5.5 3.5-18.2 6.8-31.8 0-7.4-1.2-19.9-9-39.5-0.5 12.2-6 30.1-6.3 47.5 0.1 4.5 2.8 15 3.1 23.8h5.4z"/>
  <path class="cls-9" d="m49.3 134.8c0.4-5.5 2.1-42 0-68.4"/>
  <path class="cls-7" d="m27.5 67c0.4-31 8-57.6 12.2-64 4.1 9.3 10.6 28.6 12.9 49.1 1.4 8 1.9 18.5 1.5 30.3"/>
  <path class="cls-7" d="m52.3 52.1c3-10.9 9.2-24 14.5-34.8 2.8 10.5 5.9 29.5 5.7 43.9"/>
  <path class="cls-6" d="m67.3 135.3c22-27.8 29.2-62.5 30.6-85.3l-0.1-22.7c-14.7 17.4-37.5 59.3-47.3 108h16.8z"/>
  <path class="cls-7" d="m31.5 135.3c-11.8-14.8-25.2-40.8-27.9-71.2-1.3-14.1-0.7-26.6 0.3-35.6 6.2 8 16.4 22.9 23.6 38.5 4.8 10.8 11.4 30.1 14.5 44.5"/>
  <path class="cls-7" d="m67.3 135.3c16.5-22.2 28.6-50.3 30.6-85.3 0.4-8.2-0.1-17.5-4-17.2"/>
  <path class="cls-7" d="m94 29.9c-10.9 14.1-23.7 36.2-32.5 61.7-4.6 13.4-9 30.5-11 43.7"/>
  <path class="cls-14" d="m6.9 32.7c3.3 14.6 13.4 54.1 32 102.3"/>
  <path class="cls-14" d="M 93.3,34.8 C 89.8,50 75.7,99 60,134.5"/>
  <path class="cls-7" d="m41.9 115c0.6-17.4 5.7-31.4 6.4-51.4 5.3 9.3 9.2 26.3 9 39.9"/>
  <path class="cls-10" d="m86.5 148.7-12.1 50.7-2.5 2.2h-44.1l-2.5-1.7-9.2-51.2z"/>
  <path class="cls-11" d="m16.7 153.2-1-4.4 67.4-0.4-0.4 4.8z"/>
  <path class="cls-11" d="m24.6 194.1h50.5l-2.2 7.5h-45.6z"/>
  <path class="cls-10" d="m12.7 135.2h74.2l2.3-0.2 2.3 1.3 1.2 1.5-0.6 9.1-2.4 1.6-77 0.2-1.8-0.2h-0.6l-1.4-0.7h1.2 0.6-0.6-1.2 1.8-0.6l-0.8-0.7-0.4-0.8-0.4-0.7v-7.5l0.4-1.9 1.8-1z"/>
  <path class="cls-12" d="m15.7 148.8 9.6 50.6 0.8 1.2 1.7 1h43.7 1.2l1.2-0.4 1.2-1 0.6-1.2 8.1-41.4 1.9-8.8"/>
  <path class="cls-13" d="m12.7 148.7h74 0.2 0.2 0.2 0.4 0.2 0.2 0.2 1.2l0.6-0.2 0.6-0.4 0.4-0.5 0.6-0.8v-0.7-8.5l-0.2-0.9-0.6-0.8-0.8-0.7-1-0.1h-76.2-0.2-0.2-0.2-0.2-0.2-0.2-0.2-0.2-0.2-0.2-0.2-0.2-0.2-0.4l-0.8 0.2-0.8 0.6-0.6 0.8-0.2 0.9v8.5l0.4 1 0.6 0.7 0.8 0.7 1 0.2h2.2 0.2 0.2 0.2-0.2 0.2 0.2 0.2 0.2 0.2 0.2 0.2 0.2 0.2 0.2 0.2 0.2 0.4z"/>
  <path class="cls-4" d="m66.1 22.4-8.3 75.2"/>
</svg>