<svg xmlns="http://www.w3.org/2000/svg" viewBox="0 0 110 110">
<!-- SVG created with Arrow, by QuiverAI (https://quiver.ai) -->
  <style type="text/css">.cls-0 {fill:#FFCF27;}
.cls-1 {fill:#333333;}</style>
  <path class="cls-0" d="m110.3 55.2c0-30.7-25.5-55.7-55.1-55.7s-55.2 25-55.2 55.7c0 30.4 24.1 55.3 54 55.3 30.2 0 56.3-23.2 56.3-55.3z"/>
  <path class="cls-1" d="m46.4 44.3c0-2.6-3.4-5.4-9.1-5.4-4.2 0-9.2 1.8-9.2 5.4 0 2.2 2.8 5.1 9.2 5.1 4.4 0 9.1-1.8 9.1-5.1z"/>
  <path class="cls-1" d="m72.8 38.9c-4.7 0-9.1 2-9.1 5.4 0 2.2 2.7 5.1 9.2 5.1 4.6 0 9.1-1.8 9.1-5.1 0.1-2.6-3.4-5.4-9.2-5.4z"/>
  <path class="cls-1" d="m68.4 65.7c-1.1 1.8-4.9 6.9-13.4 6.9-8.2 0-12.2-5.1-13.2-6.7-0.7-1.2-2.2-1.6-3.2-0.8-0.9 0.6-1.3 2.2-0.3 3.2 1.7 2.3 6.2 8.7 16.7 8.8 9.5 0 14.3-4.8 16.7-8.3 1.1-1.1 0.8-2.7-0.3-3.5-0.9-0.7-2.4-0.6-3 0.4z"/>
</svg>