<svg xmlns="http://www.w3.org/2000/svg" viewBox="0 0 150 75">
<!-- SVG created with Arrow, by QuiverAI (https://quiver.ai) -->
  <style type="text/css">.cls-0 {fill:#142125;}
.cls-1 {fill:#B7BEC0;}</style>
  <path class="cls-0" d="m1.9 18.7 1.5-3.4c1.5 1.1 3.8 1.9 5.9 1.9 2.4 0 3.3-0.8 3.3-1.8 0-3.2-10.3-1-10.3-8 0-3 2.4-5.4 7.2-5.4 2.2-0.1 4.6 0.4 6.3 1.4l-1.3 3.3c-1.7-0.9-3.4-1.5-5.1-1.5-2.3 0-3.2 0.9-3.2 1.9 0 3.1 10.3 0.9 10.4 7.7 0 3-2.5 6.2-7.7 6.2-2.7 0-5.5-0.8-7-1.9"/>
  <polygon class="cls-0" points="36.9 20.8 36.9 9.2 31.1 18.8 29.1 18.8 23.7 9.4 23.7 20.8 19.5 20.8 19.5 1.3 23.2 1.3 30.2 13.2 37.3 1.4 40.9 1.4 40.9 20.7"/>
  <polygon class="cls-0" points="44.9 1.4 49.5 1.4 49.5 20.7 44.9 20.7"/>
  <polygon class="cls-0" points="57.9 4.9 51.8 4.9 51.8 1.4 68.1 1.4 68.1 4.9 62.3 4.9 62.3 20.7 57.9 20.7"/>
  <polygon class="cls-0" points="87.5 1.4 87.5 20.7 82.9 20.7 82.9 12.6 74.6 12.6 74.6 20.7 70.2 20.7 70.2 1.4 74.6 1.4 74.6 8.6 82.9 8.6 82.9 1.4"/>
  <path class="cls-0" d="m90.4 18.6 1.5-3.3c1.5 1.1 3.8 2 6 2 2.4 0 3.8-0.8 3.8-2 0-3.2-10.9-1-11-7.8 0-3.1 2.5-5.5 7.4-6.4 2.3-0.1 4.8 0.3 7 1.5l-1.2 3.4c-1.7-0.9-3.4-1.5-5.1-1.5-2.4 0-3.6 0.9-3.6 2 0 3.1 10.8 1.5 10.8 8.2 0 3.2-2.6 6.3-7.9 6.3-2.9 0-6-0.8-7.7-2.3"/>
  <path class="cls-0" d="m118.1 1.1c-5.3 0-10.3 3.9-10.3 9.7 0 4.5 2.8 8.4 7.3 9.9l8.7-1.1c2.7-1.5 5-4.1 5-8.7 0-5.5-4.4-9.8-10.7-9.8m0 16c-3.1 0-5.6-2.5-5.6-6.2 0-3 2.3-5.9 5.6-5.9 2.9 0 5.9 2.1 5.9 5.9 0 3.7-2.5 6.2-5.9 6.2"/>
  <polygon class="cls-0" points="148.1 1.4 144.1 1.4 144.1 12.9 135.7 1.4 131.9 1.4 131.8 20.8 136.2 20.7 136.2 9 144.7 20.7 148.1 20.7"/>
  <polygon class="cls-0" points="16.7 43.3 16.7 46.8 3.2 46.8 3.2 28.1 16.4 28.1 16.4 31.6 7 31.6 7 35.5 15.1 35.5 15.1 38.9 7.1 38.9 7.1 43.3"/>
  <polygon class="cls-0" points="31.8 46.8 27.6 40.3 23.1 46.8 18 46.8 24.9 37.2 18.6 28.2 23.6 28.2 27.7 34.1 31.7 28.2 36.9 28.2 30.2 37.1 37.3 46.8"/>
  <path class="cls-0" d="m47.9 28.1-8.7 0.1v18.6h4.5v-5.1h3.8c5 0 8.4-2.2 8.4-6.8 0-4.1-3.2-6.7-8-6.8m-0.5 9.9h-3.7v-6.3h3.8c2.1-0.1 3.8 1.1 3.9 3 0 2.2-1.5 3.3-4 3.3"/>
  <path class="cls-0" d="m71.2 40.8c2.4-0.9 3.7-3 3.7-5.9 0-3.9-3-6.8-7.7-6.8h-8.4v18.7h4.4v-5.1h4l3.3 5.1h4.8l-4.1-6zm-4.3-2.8h-3.7v-6.3l3.7-0.1c2.3 0 3.6 1.3 3.6 3.1 0 1.9-1.5 3.3-3.6 3.3z"/>
  <polygon class="cls-0" points="92.9 43.3 92.9 46.8 78 46.8 78.1 28.2 92.5 28.2 92.5 31.6 82.4 31.6 82.4 35.5 91.3 35.5 91.3 38.9 82.4 38.9 82.4 43.3"/>
  <path class="cls-0" d="m94.7 44.7 1.5-3.1c1.5 1.1 3.7 2 6.4 2 2.5 0 3.6-0.8 3.6-1.9 0-3.3-11.1-0.9-11.1-7.9 0-3.4 2.8-5.9 8-5.9 2.4 0 4.7 0.5 6.7 1.5l-1.5 3.4c-1.6-0.9-3.3-1.4-5-1.4-2.4 0-3.8 0.8-3.8 2 0 3.2 11.1 1.2 11.1 7.9 0 3.6-3 5.7-8 5.7-3.1 0-6.4-0.8-7.9-2.3"/>
  <path class="cls-0" d="m112.2 44.7 1.5-3.1c1.6 1.2 3.7 2 6.3 2 2.3 0 3.5-0.8 3.5-1.9 0-3.3-10.9-1.1-10.9-8 0-3.3 3-5.8 7.7-5.9 2.3 0 4.8 0.5 7 1.6l-1.5 3.4c-1.5-0.8-3.1-1.6-5.4-1.6s-3.5 0.8-3.5 2.1c0 3 11.3 1.3 11.3 7.9 0 3.7-3.1 5.9-8.2 5.9-3-0.1-6.2-0.7-7.8-2.4"/>
  <path class="cls-0" d="m10.7 53.8h-7.6v19.7h4v-5.7h3.3c5 0 8.1-2.2 8.1-7.3 0-3.4-2.8-6.7-7.8-6.7m-0.3 10.2h-3.3v-6.7h3.6c2 0 3.3 1.1 3.4 3.2 0 2.4-1.6 3.5-3.7 3.5"/>
  <polygon class="cls-0" points="38.5 53.8 34.1 53.8 34.1 61.1 25.6 61.1 25.6 53.8 21.3 53.8 21.3 73.5 25.6 73.5 25.6 65.2 34.1 65.2 34.1 73.5 38.5 73.5"/>
  <path class="cls-0" d="m55.5 66.9c2.3-0.9 3.8-3 3.8-6.1 0-4.1-3-7-7.6-7h-9v19.7h4.4v-5.7h4.2l3.4 5.7h4.8l-4-6.6zm-4.4-2.8h-4.1v-6.7h4.3c2.1-0.1 3.4 1.2 3.4 3.2s-1.4 3.4-3.6 3.5z"/>
  <path class="cls-0" d="m73.1 53.8h-4.6l-8.3 19.6h4.5l1.7-4.1h8.7l1.5 4.1h4.4l-7.9-19.6zm-5.3 11.8 2.8-7.7 3.1 7.7h-5.9z"/>
  <polygon class="cls-0" points="100.6 53.8 94.1 65.7 87.1 53.8 83.3 53.8 83.3 73.5 87.5 73.5 87.5 61.8 93.1 71.5 95 71.5 100.5 61.6 100.5 73.5 104.5 73.5 104.5 53.8"/>
  <polygon class="cls-0" points="123.5 69.7 113.4 69.7 113.4 65.2 121.8 64 121.8 61.4 113.4 61.4 113.4 57.3 123.1 57.3 123.1 53.8 108.6 53.8 108.6 73.5 123.5 73.5"/>
  <path class="cls-0" d="m125.5 71.5 1.4-3.7c1.6 1.2 3.8 2.1 6.6 2.1 2.2 0 3.4-0.8 3.4-2 0-3.3-11.1-1-11.1-7.9 0-4 3.2-6.4 8.3-6.4 2.3 0 4.4 0.5 6.2 1.4l-1.2 3.5c-1.7-0.9-3.5-1.6-5.3-1.6-2.3 0-3.5 0.8-3.5 2.2 0 3 10.7 1.3 10.8 8.2 0 3.3-3 6.4-7.6 6.4-2.8 0-6.1-0.4-8-2.2"/>
  <polygon class="cls-0" points="87.3 25.6 121.6 21.4 111.3 29.9 114 24.4"/>
  <polygon class="cls-0" points="120.4 25.1 126 27.5 125.4 24.4"/>
  <polygon class="cls-1" points="120.9 24.6 125.4 24.4 125.1 22.1"/>
</svg>