<svg xmlns="http://www.w3.org/2000/svg" viewBox="0 0 150 100">
<!-- SVG created with Arrow, by QuiverAI (https://quiver.ai) -->
  <style type="text/css">.cls-0 {fill:#0B3059;}
.cls-1 {fill:#23BFB0;}
.cls-2 {fill:#0B3059;}</style>
  <path class="cls-0" d="m56.9 27.8c-0.7 0.5-1.2 1-0.5 1.9l5.3 5.5c0.7 0.7 1.2 0.5 1.7 0l18.6-18.6-6.7-6.5-18.4 17.7z"/>
  <path class="cls-1" d="m98.2 23.3c0.9-0.9 1.2-2 1.2-3.3 0-2.4-1.9-4.8-4.8-4.7-1.2 0-2.5 0.4-3.3 1.3l-4.8 4.5 6.9 7 4.8-4.8z"/>
  <path class="cls-1" d="m94.8 0c-7.2 0-12.7 3-19.5 9.3l-0.1 0.8 6.8 6.5c4.7-4.1 7.8-6.5 12.6-6.5 4.8-0.2 10.4 3.5 10.4 9.5 0 3.1-1.4 5.9-3.9 8.5-0.5 0.5-0.5 1.4 0 2l5.5 5.5c0.7 0.7 1 1.2 1.4 0.5 3.8-3.8 7.1-8.9 7.1-16.1 0.1-10.1-8.7-20-20.3-20z"/>
  <path class="cls-0" d="m108.7 42.7-22.2-21.6-22.4 22.2-15.5-15.5c-2.1-2.3-3.7-5.1-3.7-8.1 0-4.9 4-9.6 10.2-9.6 3.3 0 5.8 1.2 8.6 3.7 0.5 0.3 1.1 0.3 1.6-0.2l5.8-5.4c0.5-0.5 0.5-0.9 0-1.4-3.7-3.5-8.8-6.8-15.6-6.8-10.3 0-20.3 8.4-20.3 19.6 0 4.9 1.9 9.9 5.6 14.4 2.5 2.6 10.3 10.3 16.2 15.9l-4.8 4.8c-1.9 1.9-2.1 5.1 0.2 7 1.7 1.6 4.9 1.6 6.5 0l27.3-26.3 14.3 13.6c3.1 3 4.5 5.5 4.5 9.2 0 4.2-3.5 9.2-9.5 9.7-3.4 0.2-6.5-0.8-9.3-3.6-0.4-0.5-1.2-0.5-1.6 0l-5.6 5.2c-0.8 0.7-0.4 1.4 0.3 2.1 4.1 3.6 8.6 6.6 15.7 6.6 11.1 0.2 20.1-8.2 20.1-19.8 0-6-3.3-11.9-6.4-14.8v-0.9z"/>
  <path class="cls-0" d="m50.1 49c0-0.5-0.2-0.9-0.7-1.4l-5.8-5.2c-0.5-0.6-0.9-0.2-1.4 0.3-3.8 4-7 9.3-7 15.5 0 8.7 6.3 17.9 16.3 19.7 8.3 1.4 14.9-1.3 19.4-5 3.9-3 23-22.1 23-22.8 0.4-0.4 0.2-1.1 0-1.3l-5.5-5.7c-0.3-0.4-0.8-0.4-1.2 0l-20.3 19.3c-1.2 1.2-2.8 2.2-4.5 3.5-2.3 1.5-4.5 2-6.9 2-5.6 0-10.5-4.3-10.5-9.7 0-3.5 1.7-5.8 4.2-8.3l0.9-0.9z"/>
  <path class="cls-2" d="m1.8 97.7c0.6 0.7 1.5 1.2 2.6 1.2s1.6-0.5 1.6-1c0-0.7-0.9-0.9-1.8-1.2-1.3-0.2-2.3-0.8-2.3-2.4 0-1.3 1.2-2.5 3-2.5 1.2 0 2.2 0.5 2.8 1l-0.7 1.1c-0.6-0.5-1.5-0.7-2.3-0.7-0.7 0-1.3 0.4-1.3 0.9 0 0.7 0.7 0.9 1.7 1.1 1.3 0.3 2.6 0.7 2.6 2.5 0 1.3-1.1 2.4-3.2 2.4-1.4 0-2.5-0.5-2.9-1.1l0.2-1.3z"/>
  <path class="cls-2" d="m8.7 92h1.4v4.6c0 1.1 0.8 2.1 2 2.1s1.9-0.7 1.9-2v-4.7h1.3v4.9c0 2-1.2 3.2-3.3 3.2s-3.3-1.2-3.3-3.2v-4.9z"/>
  <path class="cls-2" d="m20 96.7h-1.4v3h-1.4v-7.7h3.5c1.7 0 2.7 1 2.7 2.3s-0.8 2.3-1.8 2.3l1.7 3.1h-1.4l-1.9-3zm0.6-3.5h-2v2.3h2c0.9 0 1.4-0.5 1.4-1.2s-0.5-1.1-1.4-1.1z"/>
  <path class="cls-2" d="m24.8 91.8h5.6v1.4h-4.2v2h4.1v1.2h-4.1v2.1h4.1v1.4h-5.5v-8.1z"/>
  <path class="cls-2" d="m33.9 93.2h-2.5v-1.4h6.5v1.4h-2.5v6.7h-1.5v-6.7z"/>
  <path class="cls-2" d="m41.3 96.5-3.1-4.7h1.6l2.3 3.4 2.2-3.4h1.6l-3.1 4.7v3.4h-1.5v-3.4z"/>
  <path class="cls-2" d="m50.1 91.8h4.2c1.4 0 2.3 0.9 2.3 2.1 0 0.9-0.7 1.6-1.2 1.8 0.8 0.2 1.3 1 1.3 1.9 0 1.3-0.8 2.1-2.2 2.1h-4.4v-7.9zm3.8 3.4c0.7 0 1.2-0.5 1.2-1 0-0.6-0.5-1-1-1h-2.5v2h2.3zm0 3.3c0.7 0 1.3-0.5 1.3-1 0-0.6-0.5-1.1-1.1-1.1h-2.5v2.1h2.3z"/>
  <path class="cls-2" d="m62 91.8c2.3 0 4 1.7 4 4.1 0 2.3-1.7 4.1-4 4.1-2.4 0-4.2-1.6-4.2-4.1 0-2.4 1.6-4.1 4.2-4.1zm0 1.2c-1.6 0-2.8 1.2-2.8 2.8 0 1.7 1.1 2.9 2.8 2.9 1.4-0.2 2.5-1.2 2.5-2.8 0-1.7-0.9-2.7-2.5-2.9z"/>
  <path class="cls-2" d="m68.7 94.1v5.8h-1.4v-8.1h1.6l4 5.6v-5.6h1.4v8.1h-1.3l-4.3-5.8z"/>
  <path class="cls-2" d="m76 91.8h3.1c2.5 0 4.1 1.8 4.1 3.9 0 2.3-1.6 4-4.1 4h-3.1v-7.9zm3.1 6.7c1.6 0 2.6-1.1 2.6-2.7 0-1.5-1-2.6-2.6-2.6h-1.8v5.3h1.8z"/>
  <path class="cls-2" d="m87.9 91.8h3.7c1.8 0 2.5 1.2 2.5 2.4 0 1.3-0.9 2.5-2.5 2.5h-2.2v3.2h-1.5v-8.1zm3.5 1.4h-2v2.3h2c0.9 0 1.5-0.5 1.5-1.2s-0.6-1.1-1.5-1.1z"/>
  <path class="cls-2" d="m95.4 91.8h1.4v6.7h3.5v1.2h-4.9v-7.9z"/>
  <path class="cls-2" d="m106.9 98.2h-3.5l-0.8 1.7h-1.6l3.1-8.1h1.9l3.1 7.9h-1.5l-0.7-1.5zm-3.3-1.3h3l-1.6-3.7-1.4 3.7z"/>
  <path class="cls-2" d="m111.7 93.2h-2.6v-1.4h6.5v1.4h-2.4v6.5h-1.5v-6.5z"/>
  <path class="cls-2" d="m116.7 91.8h5.5v1.4h-4.2v2h4.1v1.2h-4.1v3.3h-1.3v-7.9z"/>
  <path class="cls-2" d="m127.5 91.8c2.3 0 4.3 1.7 4.3 4 0 2.4-1.6 4.1-4.1 4.1s-4.5-1.5-4.5-4.1c0.2-2.3 1.6-4 4.3-4zm0 1.2c-1.5 0-2.9 1.1-2.9 2.8s1.1 2.9 2.7 2.9c1.3-0.2 2.9-1.1 2.9-2.9 0-1.7-0.9-2.8-2.7-2.8z"/>
  <path class="cls-2" d="m136 96.7h-1.4v3.2h-1.4v-8.1h3.7c1.5 0 2.4 1.1 2.4 2.4s-0.9 2.2-1.8 2.4l1.6 3.1h-1.5l-1.6-3zm0.4-3.5h-1.8v2.3h1.8c0.9 0 1.4-0.5 1.4-1.2s-0.5-1.1-1.4-1.1z"/>
  <path class="cls-2" d="m147 93.9-2.4 6h-0.5l-2.5-6v5.8h-1.2v-7.9h2l2 5.1 2.1-5.2h1.7v8.2h-1.2v-6z"/>
</svg>